<?xml version="1.0" encoding="UTF-8" standalone="no"?>
<svg
   xmlns:dc="http://purl.org/dc/elements/1.1/"
   xmlns:cc="http://creativecommons.org/ns#"
   xmlns:rdf="http://www.w3.org/1999/02/22-rdf-syntax-ns#"
   xmlns:svg="http://www.w3.org/2000/svg"
   xmlns="http://www.w3.org/2000/svg"
   xmlns:sodipodi="http://sodipodi.sourceforge.net/DTD/sodipodi-0.dtd"
   xmlns:inkscape="http://www.inkscape.org/namespaces/inkscape"
   version="1.1"
   id="svg847"
   xml:space="preserve"
   width="793.33331"
   height="1122.6667"
   viewBox="0 0 793.33331 1122.6667"
   sodipodi:docname="absorcao.svg"
   inkscape:version="1.0.2 (e86c870879, 2021-01-15, custom)"><metadata
     id="metadata853"><rdf:RDF><cc:Work
         rdf:about=""><dc:format>image/svg+xml</dc:format><dc:type
           rdf:resource="http://purl.org/dc/dcmitype/StillImage" /><dc:title></dc:title></cc:Work></rdf:RDF></metadata><defs
     id="defs851"><clipPath
       clipPathUnits="userSpaceOnUse"
       id="clipEmfPath1"><path
         d="M 77.484547,246.37589 L 384.7813,246.37589 L 384.7813,349.10167 L 77.484547,349.10167 z"
         id="path1420" /></clipPath><clipPath
       clipPathUnits="userSpaceOnUse"
       id="clipEmfPath2"><path
         d="M 77.484547,143.71395 L 384.7813,143.71395 L 384.7813,246.43973 L 77.484547,246.43973 z"
         id="path1423" /></clipPath><clipPath
       clipPathUnits="userSpaceOnUse"
       id="clipEmfPath3"><path
         d="M 77.484547,41.052007 L 384.7813,41.052007 L 384.7813,143.77779 L 77.484547,143.77779 z"
         id="path1426" /></clipPath><pattern
       id="EMFhbasepattern"
       patternUnits="userSpaceOnUse"
       width="6"
       height="6"
       x="0"
       y="0" /><clipPath
       clipPathUnits="userSpaceOnUse"
       id="clipEmfPath1-3"><path
         d="M 71.475098,271.64002 L 378.77185,271.64002 L 378.77185,384.86591 L 71.475098,384.86591 z"
         id="path2132" /></clipPath><clipPath
       clipPathUnits="userSpaceOnUse"
       id="clipEmfPath2-9"><path
         d="M 71.475098,158.41413 L 378.77185,158.41413 L 378.77185,271.64002 L 71.475098,271.64002 z"
         id="path2135" /></clipPath><clipPath
       clipPathUnits="userSpaceOnUse"
       id="clipEmfPath3-4"><path
         d="M 71.475098,45.252061 L 378.77185,45.252061 L 378.77185,158.47795 L 71.475098,158.47795 z"
         id="path2138" /></clipPath><pattern
       id="EMFhbasepattern-8"
       patternUnits="userSpaceOnUse"
       width="6"
       height="6"
       x="0"
       y="0" /><clipPath
       clipPathUnits="userSpaceOnUse"
       id="clipEmfPath1-2"><path
         d="M 61.45935,271.64002 L 368.7561,271.64002 L 368.7561,384.86591 L 61.45935,384.86591 z"
         id="path2691" /></clipPath><clipPath
       clipPathUnits="userSpaceOnUse"
       id="clipEmfPath2-6"><path
         d="M 61.45935,158.41413 L 368.7561,158.41413 L 368.7561,271.64002 L 61.45935,271.64002 z"
         id="path2694" /></clipPath><clipPath
       clipPathUnits="userSpaceOnUse"
       id="clipEmfPath3-41"><path
         d="M 61.45935,45.252061 L 368.7561,45.252061 L 368.7561,158.47795 L 61.45935,158.47795 z"
         id="path2697" /></clipPath><pattern
       id="EMFhbasepattern-3"
       patternUnits="userSpaceOnUse"
       width="6"
       height="6"
       x="0"
       y="0" /></defs><sodipodi:namedview
     pagecolor="#ffffff"
     bordercolor="#666666"
     borderopacity="1"
     objecttolerance="10"
     gridtolerance="10"
     guidetolerance="10"
     inkscape:pageopacity="0"
     inkscape:pageshadow="2"
     inkscape:window-width="1280"
     inkscape:window-height="961"
     id="namedview849"
     showgrid="false"
     inkscape:zoom="2"
     inkscape:cx="495.87399"
     inkscape:cy="848.50821"
     inkscape:window-x="-8"
     inkscape:window-y="37"
     inkscape:window-maximized="1"
     inkscape:current-layer="g855" /><g
     id="g855"
     inkscape:groupmode="layer"
     inkscape:label="ink_ext_XXXXXX"
     transform="matrix(1.3333333,0,0,-1.3333333,0,1122.6667)"><g
       id="g857"
       transform="scale(0.1)" /><path
       style="fill:none;stroke:#000000;stroke-width:1.24326px;stroke-linecap:round;stroke-linejoin:round;stroke-miterlimit:10;stroke-dasharray:none;stroke-opacity:1"
       d="M 176.93191,432.7435 M 223.02643,144.14193 H 453.45122"
       id="path2703" /><path
       style="fill:none;stroke:#000000;stroke-width:1.24326px;stroke-linecap:round;stroke-linejoin:round;stroke-miterlimit:10;stroke-dasharray:none;stroke-opacity:1"
       d="m 246.0498,144.14193 v 3.30295"
       id="path2705" /><path
       style="fill:none;stroke:#000000;stroke-width:1.24326px;stroke-linecap:round;stroke-linejoin:round;stroke-miterlimit:10;stroke-dasharray:none;stroke-opacity:1"
       d="m 292.14431,144.14193 v 3.30295"
       id="path2707" /><path
       style="fill:none;stroke:#000000;stroke-width:1.24326px;stroke-linecap:round;stroke-linejoin:round;stroke-miterlimit:10;stroke-dasharray:none;stroke-opacity:1"
       d="m 338.23882,144.14193 v 3.30295"
       id="path2709" /><path
       style="fill:none;stroke:#000000;stroke-width:1.24326px;stroke-linecap:round;stroke-linejoin:round;stroke-miterlimit:10;stroke-dasharray:none;stroke-opacity:1"
       d="m 384.33334,144.14193 v 3.30295"
       id="path2711" /><path
       style="fill:none;stroke:#000000;stroke-width:1.24326px;stroke-linecap:round;stroke-linejoin:round;stroke-miterlimit:10;stroke-dasharray:none;stroke-opacity:1"
       d="m 430.42785,144.14193 v 3.30295"
       id="path2713" /><path
       style="fill:none;stroke:#000000;stroke-width:1.24326px;stroke-linecap:round;stroke-linejoin:round;stroke-miterlimit:10;stroke-dasharray:none;stroke-opacity:1"
       d="M 223.02643,229.01348 H 453.45122"
       id="path2715" /><path
       style="fill:none;stroke:#000000;stroke-width:1.24326px;stroke-linecap:round;stroke-linejoin:round;stroke-miterlimit:10;stroke-dasharray:none;stroke-opacity:1"
       d="m 246.0498,229.01348 v -3.30296"
       id="path2717" /><path
       style="fill:none;stroke:#000000;stroke-width:1.24326px;stroke-linecap:round;stroke-linejoin:round;stroke-miterlimit:10;stroke-dasharray:none;stroke-opacity:1"
       d="m 292.14431,229.01348 v -3.30296"
       id="path2719" /><path
       style="fill:none;stroke:#000000;stroke-width:1.24326px;stroke-linecap:round;stroke-linejoin:round;stroke-miterlimit:10;stroke-dasharray:none;stroke-opacity:1"
       d="m 338.23882,229.01348 v -3.30296"
       id="path2721" /><path
       style="fill:none;stroke:#000000;stroke-width:1.24326px;stroke-linecap:round;stroke-linejoin:round;stroke-miterlimit:10;stroke-dasharray:none;stroke-opacity:1"
       d="m 384.33334,229.01348 v -3.30296"
       id="path2723" /><path
       style="fill:none;stroke:#000000;stroke-width:1.24326px;stroke-linecap:round;stroke-linejoin:round;stroke-miterlimit:10;stroke-dasharray:none;stroke-opacity:1"
       d="m 430.42785,229.01348 v -3.30296"
       id="path2725" /><path
       style="fill:none;stroke:#000000;stroke-width:1.24326px;stroke-linecap:round;stroke-linejoin:round;stroke-miterlimit:10;stroke-dasharray:none;stroke-opacity:1"
       d="m 223.02643,144.14193 v 84.87155"
       id="path2727" /><path
       style="fill:none;stroke:#000000;stroke-width:1.24326px;stroke-linecap:round;stroke-linejoin:round;stroke-miterlimit:10;stroke-dasharray:none;stroke-opacity:1"
       d="m 223.02643,149.79046 h 3.29587"
       id="path2729" /><path
       style="fill:none;stroke:#000000;stroke-width:1.24326px;stroke-linecap:round;stroke-linejoin:round;stroke-miterlimit:10;stroke-dasharray:none;stroke-opacity:1"
       d="m 223.02643,171.28359 h 3.29587"
       id="path2731" /><path
       style="fill:none;stroke:#000000;stroke-width:1.24326px;stroke-linecap:round;stroke-linejoin:round;stroke-miterlimit:10;stroke-dasharray:none;stroke-opacity:1"
       d="m 223.02643,192.8246 h 3.29587"
       id="path2733" /><path
       style="fill:none;stroke:#000000;stroke-width:1.24326px;stroke-linecap:round;stroke-linejoin:round;stroke-miterlimit:10;stroke-dasharray:none;stroke-opacity:1"
       d="m 223.02643,214.31773 h 3.29587"
       id="path2735" /><path
       style="fill:none;stroke:#000000;stroke-width:1.24326px;stroke-linecap:round;stroke-linejoin:round;stroke-miterlimit:10;stroke-dasharray:none;stroke-opacity:1"
       d="m 453.45122,144.14193 v 84.87155"
       id="path2737" /><path
       style="fill:none;stroke:#000000;stroke-width:1.24326px;stroke-linecap:round;stroke-linejoin:round;stroke-miterlimit:10;stroke-dasharray:none;stroke-opacity:1"
       d="m 453.45122,149.79046 h -3.29587"
       id="path2739" /><path
       style="fill:none;stroke:#000000;stroke-width:1.24326px;stroke-linecap:round;stroke-linejoin:round;stroke-miterlimit:10;stroke-dasharray:none;stroke-opacity:1"
       d="m 453.45122,171.28359 h -3.29587"
       id="path2741" /><path
       style="fill:none;stroke:#000000;stroke-width:1.24326px;stroke-linecap:round;stroke-linejoin:round;stroke-miterlimit:10;stroke-dasharray:none;stroke-opacity:1"
       d="m 453.45122,192.8246 h -3.29587"
       id="path2743" /><path
       style="fill:none;stroke:#000000;stroke-width:1.24326px;stroke-linecap:round;stroke-linejoin:round;stroke-miterlimit:10;stroke-dasharray:none;stroke-opacity:1"
       d="m 453.45122,214.31773 h -3.29587"
       id="path2745" /><text
       xml:space="preserve"
       style="font-style:normal;font-variant:normal;font-weight:400;font-size:7.17188px;line-height:125%;font-family:Arial;text-align:start;letter-spacing:0px;word-spacing:0px;text-anchor:start;fill:#000000;fill-opacity:1;stroke:none;stroke-width:0.75"
       transform="scale(1,-1)"
       x="242.89722"
       y="-134.9511"
       id="text2751"><tspan
         sodipodi:role="line"
         x="242.89722"
         y="-134.9511"
         id="tspan2749"
         style="stroke-width:0.75"><tspan
           dx="0"
           dy="0"
           style="font-style:normal;font-variant:normal;font-weight:400;font-size:7.17188px;font-family:Arial;fill:#000000;stroke-width:0.75"
           id="tspan2747">-2</tspan></tspan></text><text
       xml:space="preserve"
       style="font-style:normal;font-variant:normal;font-weight:400;font-size:7.17188px;line-height:125%;font-family:Arial;text-align:start;letter-spacing:0px;word-spacing:0px;text-anchor:start;fill:#000000;fill-opacity:1;stroke:none;stroke-width:0.75"
       transform="scale(1,-1)"
       x="288.99173"
       y="-134.9511"
       id="text2757"><tspan
         sodipodi:role="line"
         x="288.99173"
         y="-134.9511"
         id="tspan2755"
         style="stroke-width:0.75"><tspan
           dx="0"
           dy="0"
           style="font-style:normal;font-variant:normal;font-weight:400;font-size:7.17188px;font-family:Arial;fill:#000000;stroke-width:0.75"
           id="tspan2753">-1</tspan></tspan></text><text
       xml:space="preserve"
       style="font-style:normal;font-variant:normal;font-weight:400;font-size:7.17188px;line-height:125%;font-family:Arial;text-align:start;letter-spacing:0px;word-spacing:0px;text-anchor:start;fill:#000000;fill-opacity:1;stroke:none;stroke-width:0.75"
       transform="scale(1,-1)"
       x="336.2804"
       y="-134.9511"
       id="text2763"><tspan
         sodipodi:role="line"
         x="336.2804"
         y="-134.9511"
         id="tspan2761"
         style="stroke-width:0.75"><tspan
           dx="0"
           dy="0"
           style="font-style:normal;font-variant:normal;font-weight:400;font-size:7.17188px;font-family:Arial;fill:#000000;stroke-width:0.75"
           id="tspan2759">0</tspan></tspan></text><text
       xml:space="preserve"
       style="font-style:normal;font-variant:normal;font-weight:400;font-size:7.17188px;line-height:125%;font-family:Arial;text-align:start;letter-spacing:0px;word-spacing:0px;text-anchor:start;fill:#000000;fill-opacity:1;stroke:none;stroke-width:0.75"
       transform="scale(1,-1)"
       x="382.37491"
       y="-134.9511"
       id="text2769"><tspan
         sodipodi:role="line"
         x="382.37491"
         y="-134.9511"
         id="tspan2767"
         style="stroke-width:0.75"><tspan
           dx="0"
           dy="0"
           style="font-style:normal;font-variant:normal;font-weight:400;font-size:7.17188px;font-family:Arial;fill:#000000;stroke-width:0.75"
           id="tspan2765">1</tspan></tspan></text><text
       xml:space="preserve"
       style="font-style:normal;font-variant:normal;font-weight:400;font-size:7.17188px;line-height:125%;font-family:Arial;text-align:start;letter-spacing:0px;word-spacing:0px;text-anchor:start;fill:#000000;fill-opacity:1;stroke:none;stroke-width:0.75"
       transform="scale(1,-1)"
       x="428.46942"
       y="-134.9511"
       id="text2775"><tspan
         sodipodi:role="line"
         x="428.46942"
         y="-134.9511"
         id="tspan2773"
         style="stroke-width:0.75"><tspan
           dx="0"
           dy="0"
           style="font-style:normal;font-variant:normal;font-weight:400;font-size:7.17188px;font-family:Arial;fill:#000000;stroke-width:0.75"
           id="tspan2771">2</tspan></tspan></text><text
       xml:space="preserve"
       style="font-style:normal;font-variant:normal;font-weight:400;font-size:7.17188px;line-height:125%;font-family:Arial;text-align:start;letter-spacing:0px;word-spacing:0px;text-anchor:start;fill:#000000;fill-opacity:1;stroke:none;stroke-width:0.75"
       transform="scale(1,-1)"
       x="209.50856"
       y="-147.63634"
       id="text2781"><tspan
         sodipodi:role="line"
         x="209.50856"
         y="-147.63634"
         id="tspan2779"
         style="stroke-width:0.75"><tspan
           dx="0"
           dy="0"
           style="font-style:normal;font-variant:normal;font-weight:400;font-size:7.17188px;font-family:Arial;fill:#000000;stroke-width:0.75"
           id="tspan2777">0,0</tspan></tspan></text><text
       xml:space="preserve"
       style="font-style:normal;font-variant:normal;font-weight:400;font-size:7.17188px;line-height:125%;font-family:Arial;text-align:start;letter-spacing:0px;word-spacing:0px;text-anchor:start;fill:#000000;fill-opacity:1;stroke:none;stroke-width:0.75"
       transform="scale(1,-1)"
       x="209.50856"
       y="-169.1295"
       id="text2787"><tspan
         sodipodi:role="line"
         x="209.50856"
         y="-169.1295"
         id="tspan2785"
         style="stroke-width:0.75"><tspan
           dx="0"
           dy="0"
           style="font-style:normal;font-variant:normal;font-weight:400;font-size:7.17188px;font-family:Arial;fill:#000000;stroke-width:0.75"
           id="tspan2783">0,3</tspan></tspan></text><text
       xml:space="preserve"
       style="font-style:normal;font-variant:normal;font-weight:400;font-size:7.17188px;line-height:125%;font-family:Arial;text-align:start;letter-spacing:0px;word-spacing:0px;text-anchor:start;fill:#000000;fill-opacity:1;stroke:none;stroke-width:0.75"
       transform="scale(1,-1)"
       x="209.50856"
       y="-190.67052"
       id="text2793"><tspan
         sodipodi:role="line"
         x="209.50856"
         y="-190.67052"
         id="tspan2791"
         style="stroke-width:0.75"><tspan
           dx="0"
           dy="0"
           style="font-style:normal;font-variant:normal;font-weight:400;font-size:7.17188px;font-family:Arial;fill:#000000;stroke-width:0.75"
           id="tspan2789">0,7</tspan></tspan></text><text
       xml:space="preserve"
       style="font-style:normal;font-variant:normal;font-weight:400;font-size:7.17188px;line-height:125%;font-family:Arial;text-align:start;letter-spacing:0px;word-spacing:0px;text-anchor:start;fill:#000000;fill-opacity:1;stroke:none;stroke-width:0.75"
       transform="scale(1,-1)"
       x="209.50856"
       y="-212.16362"
       id="text2799"><tspan
         sodipodi:role="line"
         x="209.50856"
         y="-212.16362"
         id="tspan2797"
         style="stroke-width:0.75"><tspan
           dx="0"
           dy="0"
           style="font-style:normal;font-variant:normal;font-weight:400;font-size:7.17188px;font-family:Arial;fill:#000000;stroke-width:0.75"
           id="tspan2795">1,0</tspan></tspan></text><path
       style="fill:none;stroke:#000000;stroke-width:1.24326px;stroke-linecap:round;stroke-linejoin:round;stroke-miterlimit:10;stroke-dasharray:none;stroke-opacity:1"
       d="M 223.02643,229.06135 H 453.45122"
       id="path2801" /><path
       style="fill:none;stroke:#000000;stroke-width:1.24326px;stroke-linecap:round;stroke-linejoin:round;stroke-miterlimit:10;stroke-dasharray:none;stroke-opacity:1"
       d="m 246.0498,229.06135 v 3.30295"
       id="path2803" /><path
       style="fill:none;stroke:#000000;stroke-width:1.24326px;stroke-linecap:round;stroke-linejoin:round;stroke-miterlimit:10;stroke-dasharray:none;stroke-opacity:1"
       d="m 292.14431,229.06135 v 3.30295"
       id="path2805" /><path
       style="fill:none;stroke:#000000;stroke-width:1.24326px;stroke-linecap:round;stroke-linejoin:round;stroke-miterlimit:10;stroke-dasharray:none;stroke-opacity:1"
       d="m 338.23882,229.06135 v 3.30295"
       id="path2807" /><path
       style="fill:none;stroke:#000000;stroke-width:1.24326px;stroke-linecap:round;stroke-linejoin:round;stroke-miterlimit:10;stroke-dasharray:none;stroke-opacity:1"
       d="m 384.33334,229.06135 v 3.30295"
       id="path2809" /><path
       style="fill:none;stroke:#000000;stroke-width:1.24326px;stroke-linecap:round;stroke-linejoin:round;stroke-miterlimit:10;stroke-dasharray:none;stroke-opacity:1"
       d="m 430.42785,229.06135 v 3.30295"
       id="path2811" /><path
       style="fill:none;stroke:#000000;stroke-width:1.24326px;stroke-linecap:round;stroke-linejoin:round;stroke-miterlimit:10;stroke-dasharray:none;stroke-opacity:1"
       d="M 223.02643,313.9329 H 453.45122"
       id="path2813" /><path
       style="fill:none;stroke:#000000;stroke-width:1.24326px;stroke-linecap:round;stroke-linejoin:round;stroke-miterlimit:10;stroke-dasharray:none;stroke-opacity:1"
       d="m 246.0498,313.9329 v -3.30296"
       id="path2815" /><path
       style="fill:none;stroke:#000000;stroke-width:1.24326px;stroke-linecap:round;stroke-linejoin:round;stroke-miterlimit:10;stroke-dasharray:none;stroke-opacity:1"
       d="m 292.14431,313.9329 v -3.30296"
       id="path2817" /><path
       style="fill:none;stroke:#000000;stroke-width:1.24326px;stroke-linecap:round;stroke-linejoin:round;stroke-miterlimit:10;stroke-dasharray:none;stroke-opacity:1"
       d="m 338.23882,313.9329 v -3.30296"
       id="path2819" /><path
       style="fill:none;stroke:#000000;stroke-width:1.24326px;stroke-linecap:round;stroke-linejoin:round;stroke-miterlimit:10;stroke-dasharray:none;stroke-opacity:1"
       d="m 384.33334,313.9329 v -3.30296"
       id="path2821" /><path
       style="fill:none;stroke:#000000;stroke-width:1.24326px;stroke-linecap:round;stroke-linejoin:round;stroke-miterlimit:10;stroke-dasharray:none;stroke-opacity:1"
       d="m 430.42785,313.9329 v -3.30296"
       id="path2823" /><path
       style="fill:none;stroke:#000000;stroke-width:1.24326px;stroke-linecap:round;stroke-linejoin:round;stroke-miterlimit:10;stroke-dasharray:none;stroke-opacity:1"
       d="M 223.02643,229.06135 V 313.9329"
       id="path2825" /><path
       style="fill:none;stroke:#000000;stroke-width:1.24326px;stroke-linecap:round;stroke-linejoin:round;stroke-miterlimit:10;stroke-dasharray:none;stroke-opacity:1"
       d="m 223.02643,239.92759 h 3.29587"
       id="path2827" /><path
       style="fill:none;stroke:#000000;stroke-width:1.24326px;stroke-linecap:round;stroke-linejoin:round;stroke-miterlimit:10;stroke-dasharray:none;stroke-opacity:1"
       d="m 223.02643,261.03777 h 3.29587"
       id="path2829" /><path
       style="fill:none;stroke:#000000;stroke-width:1.24326px;stroke-linecap:round;stroke-linejoin:round;stroke-miterlimit:10;stroke-dasharray:none;stroke-opacity:1"
       d="m 223.02643,282.19582 h 3.29587"
       id="path2831" /><path
       style="fill:none;stroke:#000000;stroke-width:1.24326px;stroke-linecap:round;stroke-linejoin:round;stroke-miterlimit:10;stroke-dasharray:none;stroke-opacity:1"
       d="m 223.02643,303.35388 h 3.29587"
       id="path2833" /><path
       style="fill:none;stroke:#000000;stroke-width:1.24326px;stroke-linecap:round;stroke-linejoin:round;stroke-miterlimit:10;stroke-dasharray:none;stroke-opacity:1"
       d="M 453.45122,229.06135 V 313.9329"
       id="path2835" /><path
       style="fill:none;stroke:#000000;stroke-width:1.24326px;stroke-linecap:round;stroke-linejoin:round;stroke-miterlimit:10;stroke-dasharray:none;stroke-opacity:1"
       d="m 453.45122,239.92759 h -3.29587"
       id="path2837" /><path
       style="fill:none;stroke:#000000;stroke-width:1.24326px;stroke-linecap:round;stroke-linejoin:round;stroke-miterlimit:10;stroke-dasharray:none;stroke-opacity:1"
       d="m 453.45122,261.03777 h -3.29587"
       id="path2839" /><path
       style="fill:none;stroke:#000000;stroke-width:1.24326px;stroke-linecap:round;stroke-linejoin:round;stroke-miterlimit:10;stroke-dasharray:none;stroke-opacity:1"
       d="m 453.45122,282.19582 h -3.29587"
       id="path2841" /><path
       style="fill:none;stroke:#000000;stroke-width:1.24326px;stroke-linecap:round;stroke-linejoin:round;stroke-miterlimit:10;stroke-dasharray:none;stroke-opacity:1"
       d="m 453.45122,303.35388 h -3.29587"
       id="path2843" /><text
       xml:space="preserve"
       style="font-style:normal;font-variant:normal;font-weight:400;font-size:7.17188px;line-height:125%;font-family:Arial;text-align:start;letter-spacing:0px;word-spacing:0px;text-anchor:start;fill:#000000;fill-opacity:1;stroke:none;stroke-width:0.75"
       transform="scale(1,-1)"
       x="209.50856"
       y="-237.77348"
       id="text2849"><tspan
         sodipodi:role="line"
         x="209.50856"
         y="-237.77348"
         id="tspan2847"
         style="stroke-width:0.75"><tspan
           dx="0"
           dy="0"
           style="font-style:normal;font-variant:normal;font-weight:400;font-size:7.17188px;font-family:Arial;fill:#000000;stroke-width:0.75"
           id="tspan2845">0,0</tspan></tspan></text><text
       xml:space="preserve"
       style="font-style:normal;font-variant:normal;font-weight:400;font-size:7.17188px;line-height:125%;font-family:Arial;text-align:start;letter-spacing:0px;word-spacing:0px;text-anchor:start;fill:#000000;fill-opacity:1;stroke:none;stroke-width:0.75"
       transform="scale(1,-1)"
       x="209.50856"
       y="-258.88364"
       id="text2855"><tspan
         sodipodi:role="line"
         x="209.50856"
         y="-258.88364"
         id="tspan2853"
         style="stroke-width:0.75"><tspan
           dx="0"
           dy="0"
           style="font-style:normal;font-variant:normal;font-weight:400;font-size:7.17188px;font-family:Arial;fill:#000000;stroke-width:0.75"
           id="tspan2851">0,4</tspan></tspan></text><text
       xml:space="preserve"
       style="font-style:normal;font-variant:normal;font-weight:400;font-size:7.17188px;line-height:125%;font-family:Arial;text-align:start;letter-spacing:0px;word-spacing:0px;text-anchor:start;fill:#000000;fill-opacity:1;stroke:none;stroke-width:0.75"
       transform="scale(1,-1)"
       x="209.50856"
       y="-280.04172"
       id="text2861"><tspan
         sodipodi:role="line"
         x="209.50856"
         y="-280.04172"
         id="tspan2859"
         style="stroke-width:0.75"><tspan
           dx="0"
           dy="0"
           style="font-style:normal;font-variant:normal;font-weight:400;font-size:7.17188px;font-family:Arial;fill:#000000;stroke-width:0.75"
           id="tspan2857">0,7</tspan></tspan></text><text
       xml:space="preserve"
       style="font-style:normal;font-variant:normal;font-weight:400;font-size:7.17188px;line-height:125%;font-family:Arial;text-align:start;letter-spacing:0px;word-spacing:0px;text-anchor:start;fill:#000000;fill-opacity:1;stroke:none;stroke-width:0.75"
       transform="scale(1,-1)"
       x="209.50856"
       y="-301.19974"
       id="text2867"><tspan
         sodipodi:role="line"
         x="209.50856"
         y="-301.19974"
         id="tspan2865"
         style="stroke-width:0.75"><tspan
           dx="0"
           dy="0"
           style="font-style:normal;font-variant:normal;font-weight:400;font-size:7.17188px;font-family:Arial;fill:#000000;stroke-width:0.75"
           id="tspan2863">1,1</tspan></tspan></text><path
       style="fill:none;stroke:#000000;stroke-width:1.24326px;stroke-linecap:round;stroke-linejoin:round;stroke-miterlimit:10;stroke-dasharray:none;stroke-opacity:1"
       d="M 223.02643,313.9329 H 453.45122"
       id="path2869" /><path
       style="fill:none;stroke:#000000;stroke-width:1.24326px;stroke-linecap:round;stroke-linejoin:round;stroke-miterlimit:10;stroke-dasharray:none;stroke-opacity:1"
       d="m 246.0498,313.9329 v 3.30295"
       id="path2871" /><path
       style="fill:none;stroke:#000000;stroke-width:1.24326px;stroke-linecap:round;stroke-linejoin:round;stroke-miterlimit:10;stroke-dasharray:none;stroke-opacity:1"
       d="m 292.14431,313.9329 v 3.30295"
       id="path2873" /><path
       style="fill:none;stroke:#000000;stroke-width:1.24326px;stroke-linecap:round;stroke-linejoin:round;stroke-miterlimit:10;stroke-dasharray:none;stroke-opacity:1"
       d="m 338.23882,313.9329 v 3.30295"
       id="path2875" /><path
       style="fill:none;stroke:#000000;stroke-width:1.24326px;stroke-linecap:round;stroke-linejoin:round;stroke-miterlimit:10;stroke-dasharray:none;stroke-opacity:1"
       d="m 384.33334,313.9329 v 3.30295"
       id="path2877" /><path
       style="fill:none;stroke:#000000;stroke-width:1.24326px;stroke-linecap:round;stroke-linejoin:round;stroke-miterlimit:10;stroke-dasharray:none;stroke-opacity:1"
       d="m 430.42785,313.9329 v 3.30295"
       id="path2879" /><path
       style="fill:none;stroke:#000000;stroke-width:1.24326px;stroke-linecap:round;stroke-linejoin:round;stroke-miterlimit:10;stroke-dasharray:none;stroke-opacity:1"
       d="M 223.02643,398.80445 H 453.45122"
       id="path2881" /><path
       style="fill:none;stroke:#000000;stroke-width:1.24326px;stroke-linecap:round;stroke-linejoin:round;stroke-miterlimit:10;stroke-dasharray:none;stroke-opacity:1"
       d="M 246.0498,398.80445 V 395.5015"
       id="path2883" /><path
       style="fill:none;stroke:#000000;stroke-width:1.24326px;stroke-linecap:round;stroke-linejoin:round;stroke-miterlimit:10;stroke-dasharray:none;stroke-opacity:1"
       d="M 292.14431,398.80445 V 395.5015"
       id="path2885" /><path
       style="fill:none;stroke:#000000;stroke-width:1.24326px;stroke-linecap:round;stroke-linejoin:round;stroke-miterlimit:10;stroke-dasharray:none;stroke-opacity:1"
       d="M 338.23882,398.80445 V 395.5015"
       id="path2887" /><path
       style="fill:none;stroke:#000000;stroke-width:1.24326px;stroke-linecap:round;stroke-linejoin:round;stroke-miterlimit:10;stroke-dasharray:none;stroke-opacity:1"
       d="M 384.33334,398.80445 V 395.5015"
       id="path2889" /><path
       style="fill:none;stroke:#000000;stroke-width:1.24326px;stroke-linecap:round;stroke-linejoin:round;stroke-miterlimit:10;stroke-dasharray:none;stroke-opacity:1"
       d="M 430.42785,398.80445 V 395.5015"
       id="path2891" /><path
       style="fill:none;stroke:#000000;stroke-width:1.24326px;stroke-linecap:round;stroke-linejoin:round;stroke-miterlimit:10;stroke-dasharray:none;stroke-opacity:1"
       d="m 223.02643,313.9329 v 84.87155"
       id="path2893" /><path
       style="fill:none;stroke:#000000;stroke-width:1.24326px;stroke-linecap:round;stroke-linejoin:round;stroke-miterlimit:10;stroke-dasharray:none;stroke-opacity:1"
       d="m 223.02643,324.79914 h 3.29587"
       id="path2895" /><path
       style="fill:none;stroke:#000000;stroke-width:1.24326px;stroke-linecap:round;stroke-linejoin:round;stroke-miterlimit:10;stroke-dasharray:none;stroke-opacity:1"
       d="m 223.02643,345.90932 h 3.29587"
       id="path2897" /><path
       style="fill:none;stroke:#000000;stroke-width:1.24326px;stroke-linecap:round;stroke-linejoin:round;stroke-miterlimit:10;stroke-dasharray:none;stroke-opacity:1"
       d="m 223.02643,367.06737 h 3.29587"
       id="path2899" /><path
       style="fill:none;stroke:#000000;stroke-width:1.24326px;stroke-linecap:round;stroke-linejoin:round;stroke-miterlimit:10;stroke-dasharray:none;stroke-opacity:1"
       d="m 223.02643,388.22542 h 3.29587"
       id="path2901" /><path
       style="fill:none;stroke:#000000;stroke-width:1.24326px;stroke-linecap:round;stroke-linejoin:round;stroke-miterlimit:10;stroke-dasharray:none;stroke-opacity:1"
       d="m 453.45122,313.9329 v 84.87155"
       id="path2903" /><path
       style="fill:none;stroke:#000000;stroke-width:1.24326px;stroke-linecap:round;stroke-linejoin:round;stroke-miterlimit:10;stroke-dasharray:none;stroke-opacity:1"
       d="m 453.45122,324.79914 h -3.29587"
       id="path2905" /><path
       style="fill:none;stroke:#000000;stroke-width:1.24326px;stroke-linecap:round;stroke-linejoin:round;stroke-miterlimit:10;stroke-dasharray:none;stroke-opacity:1"
       d="m 453.45122,345.90932 h -3.29587"
       id="path2907" /><path
       style="fill:none;stroke:#000000;stroke-width:1.24326px;stroke-linecap:round;stroke-linejoin:round;stroke-miterlimit:10;stroke-dasharray:none;stroke-opacity:1"
       d="m 453.45122,367.06737 h -3.29587"
       id="path2909" /><path
       style="fill:none;stroke:#000000;stroke-width:1.24326px;stroke-linecap:round;stroke-linejoin:round;stroke-miterlimit:10;stroke-dasharray:none;stroke-opacity:1"
       d="m 453.45122,388.22542 h -3.29587"
       id="path2911" /><text
       xml:space="preserve"
       style="font-style:normal;font-variant:normal;font-weight:400;font-size:7.17188px;line-height:125%;font-family:Arial;text-align:start;letter-spacing:0px;word-spacing:0px;text-anchor:start;fill:#000000;fill-opacity:1;stroke:none;stroke-width:0.75"
       transform="scale(1,-1)"
       x="209.50856"
       y="-322.64505"
       id="text2917"><tspan
         sodipodi:role="line"
         x="209.50856"
         y="-322.64505"
         id="tspan2915"
         style="stroke-width:0.75"><tspan
           dx="0"
           dy="0"
           style="font-style:normal;font-variant:normal;font-weight:400;font-size:7.17188px;font-family:Arial;fill:#000000;stroke-width:0.75"
           id="tspan2913">0,0</tspan></tspan></text><text
       xml:space="preserve"
       style="font-style:normal;font-variant:normal;font-weight:400;font-size:7.17188px;line-height:125%;font-family:Arial;text-align:start;letter-spacing:0px;word-spacing:0px;text-anchor:start;fill:#000000;fill-opacity:1;stroke:none;stroke-width:0.75"
       transform="scale(1,-1)"
       x="209.50856"
       y="-343.75522"
       id="text2923"><tspan
         sodipodi:role="line"
         x="209.50856"
         y="-343.75522"
         id="tspan2921"
         style="stroke-width:0.75"><tspan
           dx="0"
           dy="0"
           style="font-style:normal;font-variant:normal;font-weight:400;font-size:7.17188px;font-family:Arial;fill:#000000;stroke-width:0.75"
           id="tspan2919">0,4</tspan></tspan></text><text
       xml:space="preserve"
       style="font-style:normal;font-variant:normal;font-weight:400;font-size:7.17188px;line-height:125%;font-family:Arial;text-align:start;letter-spacing:0px;word-spacing:0px;text-anchor:start;fill:#000000;fill-opacity:1;stroke:none;stroke-width:0.75"
       transform="scale(1,-1)"
       x="209.50856"
       y="-364.91324"
       id="text2929"><tspan
         sodipodi:role="line"
         x="209.50856"
         y="-364.91324"
         id="tspan2927"
         style="stroke-width:0.75"><tspan
           dx="0"
           dy="0"
           style="font-style:normal;font-variant:normal;font-weight:400;font-size:7.17188px;font-family:Arial;fill:#000000;stroke-width:0.75"
           id="tspan2925">0,7</tspan></tspan></text><text
       xml:space="preserve"
       style="font-style:normal;font-variant:normal;font-weight:400;font-size:7.17188px;line-height:125%;font-family:Arial;text-align:start;letter-spacing:0px;word-spacing:0px;text-anchor:start;fill:#000000;fill-opacity:1;stroke:none;stroke-width:0.75"
       transform="scale(1,-1)"
       x="209.50856"
       y="-386.07132"
       id="text2935"><tspan
         sodipodi:role="line"
         x="209.50856"
         y="-386.07132"
         id="tspan2933"
         style="stroke-width:0.75"><tspan
           dx="0"
           dy="0"
           style="font-style:normal;font-variant:normal;font-weight:400;font-size:7.17188px;font-family:Arial;fill:#000000;stroke-width:0.75"
           id="tspan2931">1,1</tspan></tspan></text><path
       style="fill:none;stroke:#0000ff;stroke-width:1.65768px;stroke-linecap:round;stroke-linejoin:round;stroke-miterlimit:10;stroke-dasharray:none;stroke-opacity:1"
       clip-path="url(#clipEmfPath1-2)"
       d="m 61.45935,376.44098 m 0,0 h 0.191065 0.191065 0.191066 l 0.191065,-0.0638 h 0.254754 0.191065 0.191066 0.191065 0.254754 0.191065 0.191065 0.191066 0.191065 l 0.254754,-0.0638 h 0.191065 0.191065 0.191066 0.254754 0.191065 0.191065 0.191066 0.191065 0.254754 l 0.191065,-0.0638 h 0.191065 0.191066 0.254754 0.191065 0.191065 0.191066 0.191065 0.254754 0.191065 l 0.191065,-0.0638 h 0.191066 0.254753 0.191066 0.191065 0.191065 0.254754 0.191066 0.191065 l 0.191065,-0.0638 h 0.191066 0.254753 l 0.191066,-0.0638 h 0.191065 0.191065 l 0.254754,0.0638 h 0.191065 0.191066 0.191065 l 0.191065,-0.0638 h 0.254754 l 0.191066,-0.0638 h 0.191065 0.191065 0.254754 0.191065 0.191066 0.191065 0.191065 0.254754 l 0.191066,-0.0638 h 0.191065 0.191065 0.254754 0.191065 0.191066 0.191065 0.254754 0.191065 l 0.191065,-0.0638 H 76.6172 l 0.191065,-0.0638 h 0.254754 0.191065 0.191066 0.191065 0.254754 0.191065 0.191065 0.191066 l 0.191065,-0.0638 h 0.254754 0.191065 l 0.191065,-0.0638 h 0.191066 l 0.254754,0.0638 h 0.191065 0.191065 l 0.191066,-0.0638 h 0.191065 0.254754 l 0.191065,-0.0638 h 0.191065 0.191066 0.254754 0.191065 0.191065 0.191066 0.191065 l 0.254754,-0.0638 h 0.191065 l 0.191065,-0.0638 h 0.191066 0.254753 0.191066 0.191065 0.191065 0.254754 0.191066 l 0.191065,-0.0638 h 0.191065 l 0.191066,-0.0638 h 0.254753 0.191066 0.191065 0.191065 0.254754 0.191065 0.191066 l 0.191065,-0.0638 h 0.191065 l 0.254754,-0.0638 h 0.191066 0.191065 0.191065 0.254754 0.191065 0.191066 l 0.191065,-0.0638 h 0.191065 l 0.254754,-0.0638 h 0.191066 l 0.191065,-0.0638 h 0.191065 0.254754 0.191065 0.191066 0.191065 0.191065 l 0.254754,-0.0638 h 0.191065 l 0.191066,-0.0638 h 0.191065 0.254754 0.191065 0.191066 0.191065 0.254754 l 0.191065,-0.0638 h 0.191065 l 0.191066,-0.0638 h 0.191065 l 0.254754,-0.0638 h 0.191065 0.191065 0.191066 0.254754 0.191065 0.191065 l 0.191066,-0.0638 0.191065,-0.0638 h 0.254754 l 0.191065,-0.0638 h 0.191065 0.191066 0.254754 0.191065 0.191065 0.191066 l 0.191065,-0.0638 0.254754,-0.0638 h 0.191065 l 0.191065,-0.0638 h 0.191066 0.254753 0.191066 0.191065 0.191065 0.254754 l 0.191066,-0.0638 0.191065,-0.0638 h 0.191065 l 0.191066,-0.0638 h 0.254753 0.191068 0.19106 0.19107 0.25475 l 0.19107,-0.0638 0.19106,-0.0638 h 0.19107 l 0.19106,-0.0638 h 0.25476 l 0.19106,-0.0638 h 0.19107 0.19106 0.25476 0.19106 l 0.19107,-0.0638 h 0.19106 l 0.19107,-0.0638 0.25475,-0.0638 h 0.19107 0.19106 l 0.19107,-0.0638 h 0.25475 0.19107 0.19106 0.19107 l 0.19106,-0.0638 0.25476,-0.0638 0.19106,-0.0638 h 0.19107 l 0.19106,-0.0638 h 0.25476 0.19106 0.19107 0.19106 l 0.25476,-0.0638 h 0.19106 l 0.19107,-0.0638 0.19106,-0.0638 0.19107,-0.0638 h 0.25475 0.19107 0.19106 0.19107 l 0.25475,-0.0638 h 0.19107 l 0.19106,-0.0638 0.19107,-0.0638 0.19106,-0.0638 h 0.25476 l 0.19106,-0.0638 h 0.19107 0.19106 0.25476 0.19106 l 0.19107,-0.0638 0.19106,-0.0638 0.19107,-0.0638 0.25475,-0.0638 h 0.19107 l 0.19106,-0.0638 h 0.19107 0.25475 0.19107 l 0.19106,-0.0638 h 0.19107 l 0.25475,-0.0638 0.19107,-0.0638 0.19106,-0.0638 0.19107,-0.0638 h 0.19106 0.25476 0.19106 l 0.19107,-0.0638 h 0.19106 l 0.25476,-0.0638 0.19106,-0.0638 0.19107,-0.0638 0.19106,-0.0638 h 0.19107 l 0.25475,-0.0638 h 0.19107 0.19106 l 0.19107,-0.0638 h 0.25475 l 0.19107,-0.0638 0.19106,-0.0638 0.19107,-0.0638 0.19106,-0.0638 0.25476,-0.0638 h 0.19106 0.19107 l 0.19106,-0.0638 h 0.25476 0.19106 l 0.19107,-0.0638 0.19106,-0.0638 0.19107,-0.0638 0.25475,-0.0638 0.19107,-0.0638 0.19106,-0.0638 h 0.19107 0.25475 l 0.19107,-0.0638 h 0.19106 l 0.19107,-0.0638 0.25475,-0.0638 0.19107,-0.0638 0.19106,-0.12765 h 0.19107 l 0.19106,-0.0638 h 0.25476 0.19106 l 0.19107,-0.0638 0.19106,-0.0638 h 0.25476 l 0.19106,-0.12765 0.19107,-0.0638 0.19106,-0.0638 0.19107,-0.0638 0.25475,-0.0638 h 0.19107 0.19106 l 0.19107,-0.0638 h 0.25475 l 0.19107,-0.0638 0.19106,-0.12765 0.19107,-0.0638 0.19106,-0.0638 0.25476,-0.0638 0.19106,-0.0638 h 0.19107 l 0.19106,-0.0638 h 0.25476 l 0.19106,-0.0638 0.19107,-0.0638 0.19106,-0.0638 0.19107,-0.12765 0.25475,-0.0638 0.19107,-0.0638 0.19106,-0.0638 h 0.19107 0.25475 l 0.19107,-0.0638 0.19106,-0.0638 0.19107,-0.0638 0.25475,-0.0638 0.19107,-0.12765 0.19106,-0.0638 0.19107,-0.0638 0.19106,-0.0638 0.25476,-0.0638 h 0.19106 l 0.19107,-0.0638 0.19106,-0.0638 0.25476,-0.0638 0.19106,-0.0638 0.19107,-0.12765 0.19106,-0.0638 0.19107,-0.0638 0.25475,-0.0638 0.19107,-0.0638 h 0.19106 l 0.19107,-0.0638 0.25475,-0.0638 0.19107,-0.0638 0.19106,-0.12765 0.19107,-0.0638 0.19106,-0.12765 0.25476,-0.0638 0.19106,-0.0638 0.19107,-0.0638 h 0.19106 l 0.25475,-0.0638 0.19107,-0.0638 0.19107,-0.0638 0.19106,-0.12765 0.25475,-0.12765 0.19107,-0.0638 0.19107,-0.12765 0.19106,-0.0638 h 0.19107 l 0.25475,-0.0638 0.19107,-0.0638 0.19106,-0.0638 0.19107,-0.0638 0.25475,-0.12765 0.19106,-0.12765 0.19107,-0.12765 0.19107,-0.0638 0.19106,-0.0638 0.25475,-0.0638 0.19107,-0.0638 h 0.19107 l 0.19106,-0.12765 0.25475,-0.0638 0.19107,-0.12765 0.19107,-0.12765 0.19106,-0.12765 0.19107,-0.0638 0.25475,-0.0638 0.19106,-0.0638 0.19107,-0.0638 0.19107,-0.0638 0.25475,-0.0638 0.19106,-0.12765 0.19107,-0.12765 0.19107,-0.12765 0.19106,-0.12765 0.25475,-0.0638 0.19107,-0.12765 0.19107,-0.0638 h 0.19106 l 0.25475,-0.12765 0.19107,-0.0638 0.19106,-0.12765 0.19107,-0.12765 0.25475,-0.12765 0.19107,-0.12765 0.19106,-0.12765 0.19107,-0.0638 0.19107,-0.0638 0.25475,-0.0638 0.19106,-0.0638 0.19107,-0.12765 0.19107,-0.12765 0.25475,-0.12765 0.19106,-0.12765 0.19107,-0.12765 0.19107,-0.12765 0.19106,-0.0638 0.25475,-0.0638 0.19107,-0.0638 0.19106,-0.12765 0.19107,-0.0638 0.25475,-0.12765 0.19107,-0.19148 0.19106,-0.12765 0.19107,-0.12765 0.19107,-0.12765 0.25475,-0.12765 0.19106,-0.0638 0.19107,-0.0638 0.19107,-0.0638 0.25475,-0.12765 0.19106,-0.12766 0.19107,-0.19147 0.19106,-0.12765 0.19107,-0.19148 0.25475,-0.12765 0.19107,-0.0638 0.19106,-0.12765 0.19107,-0.0638 0.25475,-0.0638 0.19107,-0.12765 0.19106,-0.19148 0.19107,-0.12765 0.25475,-0.19148 0.19107,-0.12765 0.19106,-0.12765 0.19107,-0.12765 0.19106,-0.12765 0.25476,-0.0638 0.19106,-0.12765 0.19107,-0.12765 0.19106,-0.12765 0.25476,-0.19148 0.19106,-0.19147 0.19107,-0.12765 0.19106,-0.19148 0.19107,-0.0638 0.25475,-0.12765 0.19107,-0.0638 0.19106,-0.12765 0.19107,-0.12765 0.25475,-0.19148 0.19107,-0.19147 0.19106,-0.19148 0.19107,-0.19147 0.19106,-0.12765 0.25476,-0.12765 0.19106,-0.12766 0.19107,-0.0638 0.19106,-0.12765 0.25476,-0.12765 0.19106,-0.19148 0.19107,-0.19147 0.19106,-0.2553 0.25476,-0.19148 0.19106,-0.12765 0.19107,-0.12765 0.19106,-0.12765 0.19107,-0.0638 0.25475,-0.19148 0.19107,-0.12765 0.19106,-0.19148 0.19107,-0.19147 0.25475,-0.2553 0.19107,-0.19148 0.19106,-0.12765 0.19107,-0.19147 0.19106,-0.0638 0.25476,-0.12765 0.19106,-0.12765 0.19107,-0.19148 0.19106,-0.19147 0.25476,-0.2553 0.19106,-0.19148 0.19107,-0.2553 0.19106,-0.12765 0.19107,-0.19147 0.25475,-0.12765 0.19107,-0.12766 0.19106,-0.12765 0.19107,-0.19147 0.25475,-0.19148 0.19107,-0.2553 0.19106,-0.2553 0.19107,-0.19147 0.19106,-0.19148 0.25476,-0.19147 0.19106,-0.12766 0.19107,-0.12765 0.19106,-0.12765 0.25476,-0.19147 0.19106,-0.2553 0.19107,-0.2553 0.19106,-0.2553 0.25476,-0.19148 0.19106,-0.19148 0.19107,-0.19147 0.19106,-0.12765 0.19107,-0.19148 0.25475,-0.12765 0.19107,-0.19147 0.19106,-0.2553 0.19107,-0.2553 0.25475,-0.31913 0.19107,-0.19148 0.19106,-0.2553 0.19107,-0.12765 0.19106,-0.19147 0.25476,-0.12765 0.19106,-0.19148 0.19107,-0.19147 0.19106,-0.2553 0.25476,-0.31913 0.19106,-0.2553 0.19107,-0.2553 0.19106,-0.19148 0.19107,-0.19147 0.25475,-0.19148 0.19107,-0.12765 0.19106,-0.19147 0.19107,-0.25531 0.25475,-0.2553 0.19107,-0.31912 0.19106,-0.2553 0.19107,-0.2553 0.19106,-0.2553 0.25476,-0.19148 0.19106,-0.12765 0.19107,-0.19148 0.19106,-0.19147 0.25476,-0.2553 0.19106,-0.2553 0.19107,-0.31913 0.19106,-0.31913 0.25476,-0.2553 0.19106,-0.2553 0.19107,-0.19147 0.19106,-0.19148 0.19107,-0.12765 0.25475,-0.2553 0.19107,-0.2553 0.19106,-0.2553 0.19107,-0.38295 0.25475,-0.2553 0.19107,-0.31913 0.19106,-0.2553 0.19107,-0.19147 0.19106,-0.19148 0.25476,-0.19148 0.19106,-0.19147 0.19107,-0.2553 0.19106,-0.31913 0.25476,-0.31912 0.19106,-0.38296 0.19107,-0.2553 0.19106,-0.2553 0.19107,-0.19147 0.25475,-0.19148 0.19107,-0.19147 0.19106,-0.2553 0.19107,-0.25531 0.25475,-0.31912 0.19107,-0.38295 0.19106,-0.31913 0.19107,-0.31912 0.25475,-0.25531 0.19107,-0.19147 0.19106,-0.19148 0.19107,-0.19147 0.19106,-0.2553 0.25476,-0.2553 0.19106,-0.38295 0.19107,-0.31913 0.19106,-0.38295 0.25476,-0.31913 0.19106,-0.2553 0.19107,-0.19147 0.19106,-0.19148 0.19107,-0.19148 0.25475,-0.2553 0.19107,-0.31912 0.19106,-0.31913 0.19107,-0.38295 0.25475,-0.38295 0.19107,-0.31913 0.19106,-0.2553 0.19107,-0.19147 0.19106,-0.19148 0.25476,-0.19147 0.19106,-0.2553 0.19107,-0.31913 0.19106,-0.31913 0.25476,-0.38295 0.19106,-0.38295 0.19107,-0.31912 0.19106,-0.25531 0.19107,-0.19147 0.25475,-0.19148 0.19107,-0.19147 0.19106,-0.2553 0.19107,-0.31913 0.25475,-0.38295 0.19107,-0.38295 0.19106,-0.38295 0.19107,-0.31913 0.25475,-0.2553 0.19107,-0.19147 0.19106,-0.19148 0.19107,-0.19148 0.19106,-0.2553 0.25476,-0.31912 0.19106,-0.38295 0.19107,-0.38295 0.19106,-0.38296 0.25476,-0.31912 0.19106,-0.2553 0.19107,-0.19148 0.19106,-0.12765 0.19107,-0.19147 0.25475,-0.2553 0.19107,-0.31913 0.19106,-0.38295 0.19107,-0.44678 0.25475,-0.38295 0.19107,-0.31913 0.19106,-0.19147 0.19107,-0.19148 0.19106,-0.12765 0.25476,-0.12765 0.19106,-0.2553 0.19107,-0.31912 0.19106,-0.44678 0.25476,-0.38295 0.19106,-0.38295 0.19107,-0.31913 0.19106,-0.19147 0.25476,-0.12765 0.19106,-0.12766 0.19107,-0.12765 0.19106,-0.2553 0.19107,-0.31912 0.25475,-0.44678 0.19107,-0.38295 0.19106,-0.38295 0.19107,-0.2553 0.25475,-0.19148 0.19107,-0.12765 0.19106,-0.0638 0.19107,-0.12765 0.19106,-0.2553 0.25476,-0.31913 0.19106,-0.44678 0.19107,-0.38295 0.19106,-0.38295 0.25476,-0.2553 0.19106,-0.12765 h 0.19107 l 0.19106,-0.0638 0.19107,-0.12766 0.25475,-0.2553 0.19107,-0.31912 0.19106,-0.44678 0.19107,-0.44677 0.25475,-0.31913 0.19107,-0.19148 0.19106,-0.0638 h 0.19107 0.19106 l 0.25476,-0.0638 0.19106,-0.2553 0.19107,-0.38295 0.19106,-0.44677 0.25476,-0.44678 0.19106,-0.31913 0.19107,-0.0638 h 0.19106 l 0.25475,0.0638 0.19107,0.0638 0.19107,-0.12765"
       id="path2939"
       transform="matrix(0.75000002,0,0,-0.75000002,176.93191,432.7435)" /><path
       style="fill:none;stroke:#0000ff;stroke-width:1.65768px;stroke-linecap:round;stroke-linejoin:round;stroke-miterlimit:10;stroke-dasharray:none;stroke-opacity:1"
       clip-path="url(#clipEmfPath1-2)"
       d="m 205.01311,301.25491 0.19106,-0.2553 0.19107,-0.44678 0.25475,-0.44678 0.19107,-0.44677 0.19106,-0.19148 h 0.19107 l 0.25475,0.12765 0.19107,0.19148 0.19106,0.0638 0.19107,-0.12765 0.19106,-0.38295 0.25476,-0.5106 0.19106,-0.5106 0.19107,-0.38295 0.19106,-0.0638 0.25475,0.19148 0.19107,0.38295 0.19107,0.2553 h 0.19106 l 0.19107,-0.31913 0.25475,-0.57442 0.19107,-0.70208 0.19106,-0.44678 0.19107,-0.0638 0.25475,0.31912 0.19107,0.57443 0.19106,0.5106 0.19107,0.0638 0.19106,-0.5106 0.25475,-0.95738 0.19107,-0.95738 0.19107,-0.38295 0.19106,0.44678 0.25475,1.14885 0.19107,1.0212 0.19107,0.0638 0.19106,-1.53181 0.25475,-2.17005 0.19107,-0.82973 0.19107,2.23388 0.19106,3.25509 0.19107,-2.61684 0.25475,-7.33989 0.19106,9.70142 0.19107,-14.04154 0.19107,44.48616 0.25475,28.97664 0.19106,7.91432 0.19107,1.65946 0.19107,-1.65946 0.19106,-7.91432 0.25475,-28.97664 0.19107,-44.48616 0.19107,14.04154 0.19106,-9.70142 0.25475,7.33989 0.19107,2.61684 0.19106,-3.25509 0.19107,-2.23388 0.19107,0.82973 0.25475,2.17005 0.19106,1.53181 0.19107,-0.0638 0.19107,-1.0212 0.25475,-1.14885 0.19106,-0.44678 0.19107,0.38295 0.19107,0.95738 0.25475,0.95738 0.19106,0.5106 0.19107,-0.0638 0.19106,-0.5106 0.19107,-0.57443 0.25475,-0.31912 0.19107,0.0638 0.19106,0.44678 0.19107,0.70208 0.25475,0.57442 0.19107,0.31913 h 0.19106 l 0.19107,-0.2553 0.19107,-0.38295 0.25475,-0.19148 0.19106,0.0638 0.19107,0.38295 0.19107,0.5106 0.25475,0.5106 0.19106,0.38295 0.19107,0.12765 0.19106,-0.0638 0.19107,-0.19148 0.25475,-0.12765 h 0.19107 l 0.19106,0.19148 0.19107,0.44677 0.25475,0.44678 0.19107,0.44678 0.19106,0.2553 0.19107,0.12765 0.19107,-0.0638 0.25475,-0.0638 h 0.19106 l 0.19107,0.0638 0.19106,0.31913 0.25476,0.44678 0.19106,0.44677 0.19107,0.38295 0.19106,0.2553 0.25476,0.0638 h 0.19106 0.19107 l 0.19106,0.0638 0.19107,0.19148 0.25475,0.31913 0.19107,0.44677 0.19106,0.44678 0.19107,0.31912 0.25475,0.2553 0.19107,0.12766 0.19106,0.0638 h 0.19107 l 0.19106,0.12765 0.25476,0.2553 0.19106,0.38295 0.19107,0.38295 0.19106,0.44678 0.25476,0.31913 0.19106,0.2553 0.19107,0.12765 0.19106,0.0638 0.19107,0.12765 0.25475,0.19148 0.19107,0.2553 0.19106,0.38295 0.19107,0.38295 0.25475,0.44678 0.19107,0.31912 0.19106,0.2553 0.19107,0.12765 0.19106,0.12766 0.25476,0.12765 0.19106,0.19147 0.19107,0.31913 0.19106,0.38295 0.25476,0.38295 0.19106,0.44678 0.19107,0.31912 0.19106,0.2553 0.25476,0.12765 0.19106,0.12765 0.19107,0.19148 0.19106,0.19147 0.19107,0.31913 0.25475,0.38295 0.19107,0.44678 0.19106,0.38295 0.19107,0.31913 0.25475,0.2553 0.19107,0.19147 0.19106,0.12765 0.19107,0.19148 0.19106,0.2553 0.25476,0.31912 0.19106,0.38296 0.19107,0.38295 0.19106,0.38295 0.25476,0.31912 0.19106,0.2553 0.19107,0.19148 0.19106,0.19148 0.19107,0.19147 0.25475,0.2553 0.19107,0.31913 0.19106,0.38295 0.19107,0.38295 0.25475,0.38295 0.19107,0.31913 0.19106,0.2553 0.19107,0.19147 0.25475,0.19148 0.19107,0.19147 0.19106,0.25531 0.19107,0.31912 0.19106,0.38295 0.25476,0.38295 0.19106,0.31913 0.19107,0.31913 0.19106,0.2553 0.25476,0.19147 0.19106,0.19148 0.19107,0.19147 0.19106,0.2553 0.19107,0.31913 0.25475,0.38295 0.19107,0.38295 0.19106,0.31913 0.19107,0.31912 0.25475,0.2553 0.19107,0.19148 0.19106,0.19148 0.19107,0.19147 0.19106,0.2553 0.25476,0.31913 0.19106,0.38295 0.19107,0.31913 0.19106,0.38295 0.25476,0.2553 0.19106,0.2553 0.19107,0.19147 0.19106,0.19148 0.19107,0.19147 0.25475,0.25531 0.19107,0.31912 0.19106,0.31913 0.19107,0.38295 0.25475,0.31912 0.19107,0.25531 0.19106,0.2553 0.19107,0.19147 0.25475,0.19148 0.19107,0.19147 0.19106,0.2553 0.19107,0.2553 0.19106,0.38296 0.25476,0.31912 0.19106,0.31913 0.19107,0.2553 0.19106,0.19147 0.25476,0.19148 0.19106,0.19148 0.19107,0.19147 0.19106,0.2553 0.19107,0.31913 0.25475,0.2553 0.19107,0.38295 0.19106,0.2553 0.19107,0.2553 0.25475,0.2553 0.19107,0.12765 0.19106,0.19148 0.19107,0.19147 0.19106,0.2553 0.25476,0.2553 0.19106,0.31913 0.19107,0.31913 0.19106,0.2553 0.25476,0.2553 0.19106,0.19147 0.19107,0.19148 0.19106,0.12765 0.25476,0.19148 0.19106,0.2553 0.19107,0.2553 0.19106,0.2553 0.19107,0.31912 0.25475,0.2553 0.19107,0.25531 0.19106,0.19147 0.19107,0.12765 0.25475,0.19148 0.19107,0.19147 0.19106,0.19148 0.19107,0.2553 0.19106,0.2553 0.25476,0.31913 0.19106,0.2553 0.19107,0.19147 0.19106,0.19148 0.25476,0.12765 0.19106,0.19147 0.19107,0.12765 0.19106,0.2553 0.19107,0.19148 0.25475,0.31913 0.19107,0.2553 0.19106,0.2553 0.19107,0.19147 0.25475,0.12765 0.19107,0.19148 0.19106,0.12765 0.19107,0.19147 0.19106,0.19148 0.25476,0.19148 0.19106,0.2553 0.19107,0.2553 0.19106,0.2553 0.25476,0.19147 0.19106,0.12765 0.19107,0.12765 0.19106,0.12766 0.25476,0.19147 0.19106,0.19148 0.19107,0.19147 0.19106,0.2553 0.19107,0.2553 0.25475,0.19148 0.19107,0.19147 0.19106,0.12765 0.19107,0.12766 0.25475,0.12765 0.19107,0.19147 0.19106,0.12765 0.19107,0.2553 0.19106,0.19148 0.25476,0.2553 0.19106,0.19147 0.19107,0.19148 0.19106,0.12765 0.25476,0.12765 0.19106,0.0638 0.19107,0.19147 0.19106,0.12765 0.19107,0.19148 0.25475,0.2553 0.19107,0.19147 0.19106,0.19148 0.19107,0.12765 0.25475,0.19148 0.19107,0.0638 0.19106,0.12765 0.19107,0.12765 0.19106,0.12765 0.25476,0.19148 0.19106,0.2553 0.19107,0.19147 0.19106,0.19148 0.25476,0.12765 0.19106,0.12765 0.19107,0.0638 0.19106,0.12766 0.25476,0.12765 0.19106,0.12765 0.19107,0.19147 0.19106,0.19148 0.19107,0.19147 0.25475,0.19148 0.19107,0.12765 0.19106,0.12765 0.19107,0.0638 0.25475,0.12765 0.19107,0.0638 0.19106,0.19148 0.19107,0.12765 0.19106,0.19147 0.25476,0.19148 0.19106,0.12765 0.19107,0.12765 0.19106,0.12765 0.25476,0.0638 0.19106,0.12765 0.19107,0.12765 0.19106,0.12765 0.19107,0.12765 0.25475,0.19148 0.19107,0.12765 0.19106,0.19148 0.19107,0.12765 0.25475,0.0638 0.19107,0.0638 0.19106,0.12765 0.19107,0.0638 0.25475,0.12765 0.19107,0.19148 0.19106,0.12765 0.19107,0.19147 0.19106,0.12766 0.25475,0.12765 0.19107,0.0638 0.19107,0.0638 0.19106,0.0638 0.25475,0.12765 0.19107,0.12765 0.19107,0.12765 0.19106,0.12765 0.19107,0.19148 0.25475,0.12765 0.19107,0.0638 0.19106,0.12765 0.19107,0.0638 0.25475,0.0638 0.19107,0.0638 0.19106,0.12765 0.19107,0.12765 0.19106,0.12765 0.25475,0.12765 0.19107,0.12765 0.19107,0.12765 0.19106,0.0638 0.25475,0.0638 0.19107,0.0638 0.19107,0.0638 0.19106,0.12765 0.19107,0.12765 0.25475,0.12765 0.19107,0.12765 0.19106,0.12765 0.19107,0.0638 0.25475,0.12765 h 0.19106 l 0.19107,0.0638 0.19107,0.12765 0.25475,0.0638 0.19106,0.12765 0.19107,0.12765 0.19107,0.12765 0.19106,0.12765 0.25475,0.0638 0.19107,0.0638 0.19107,0.0638 0.19106,0.0638 0.25475,0.0638 0.19107,0.0638 0.19106,0.12765 0.19107,0.12765 0.19107,0.12765 0.25475,0.0638 0.19106,0.12765 h 0.19107 l 0.19107,0.0638 0.25475,0.0638 0.19106,0.0638 0.19107,0.0638 0.19107,0.12765 0.19106,0.12765 0.25475,0.12765 0.19107,0.0638 0.19106,0.0638 0.19107,0.0638 0.25475,0.0638 h 0.19107 l 0.19106,0.0638 0.19107,0.12765 0.19107,0.0638 0.25475,0.12765 0.19106,0.12765 0.19107,0.0638 0.19107,0.0638 0.25475,0.0638 h 0.19106 l 0.19107,0.0638 0.19106,0.0638 0.25476,0.0638 0.19106,0.12765 0.19107,0.0638 0.19106,0.12765 0.19107,0.0638 0.25475,0.0638 0.19107,0.0638 h 0.19106 l 0.19107,0.0638 0.25475,0.0638 0.19107,0.0638 0.19106,0.0638 0.19107,0.12765 0.19107,0.0638 0.25475,0.0638 0.19106,0.0638 0.19107,0.0638 h 0.19106 l 0.25476,0.0638 0.19106,0.0638 0.19107,0.0638 0.19106,0.0638 0.19107,0.12765 0.25475,0.0638 0.19107,0.0638 0.19106,0.0638 0.19107,0.0638 h 0.25475 0.19107 l 0.19106,0.0638 0.19107,0.0638 0.25475,0.0638 0.19107,0.12765 0.19106,0.0638 0.19107,0.0638 0.19106,0.0638 h 0.25476 l 0.19106,0.0638 h 0.19107 l 0.19106,0.0638 0.25476,0.0638 0.19106,0.0638 0.19107,0.0638 0.19106,0.12765 0.19107,0.0638 h 0.25475 l 0.19107,0.0638 h 0.19106 0.19107 l 0.25475,0.0638 0.19107,0.0638 0.19106,0.0638 0.19107,0.0638 0.19106,0.12765 h 0.25476 l 0.19106,0.0638 0.19107,0.0638 h 0.19106 0.25476 l 0.19106,0.0638 h 0.19107 l 0.19106,0.12765 0.19107,0.0638 0.25475,0.0638 0.19107,0.0638 h 0.19106 l 0.19107,0.0638 h 0.25475 0.19107 l 0.19106,0.0638 0.19107,0.0638 0.25475,0.0638 0.19107,0.0638 0.19106,0.0638 0.19107,0.0638 h 0.19106 0.25476 l 0.19106,0.0638 h 0.19107 0.19106 l 0.25476,0.0638 0.19106,0.0638 0.19107,0.0638 0.19106,0.0638 0.19107,0.0638 h 0.25475 l 0.19107,0.0638 h 0.19106 0.19107 l 0.25475,0.0638 h 0.19107 l 0.19106,0.0638 0.19107,0.0638 0.19106,0.0638 0.25476,0.0638 h 0.19106 l 0.19107,0.0638 h 0.19106 0.25476 0.19106 l 0.19107,0.0638 0.19106,0.0638 0.19107,0.0638 0.25475,0.0638 h 0.19107 l 0.19106,0.0638 h 0.19107 0.25475 0.19107 l 0.19106,0.0638 h 0.19107 l 0.25475,0.0638 0.19107,0.0638 0.19106,0.0638 0.19107,0.0638 h 0.19106 0.25476 0.19106 0.19107 l 0.19106,0.0638 h 0.25476 l 0.19106,0.0638 0.19107,0.0638 0.19106,0.0638 h 0.19107 l 0.25475,0.0638 h 0.19107 0.19106 0.19107 0.25475 l 0.19107,0.0638 0.19106,0.0638 0.19107,0.0638 h 0.19106 l 0.25476,0.0638 h 0.19106 0.19107 0.19106 0.25476 l 0.19106,0.0638 h 0.19107 l 0.19106,0.0638 0.25476,0.0638 0.19106,0.0638 h 0.19107 0.19106 0.19107 0.25475 l 0.19107,0.0638 h 0.19106 0.19107 l 0.25475,0.0638 0.19107,0.0638 h 0.19106 l 0.19107,0.0638 h 0.19106 0.25476 0.19106 0.19107 l 0.19106,0.0638 h 0.25476 l 0.19106,0.0638 h 0.19107 l 0.19106,0.0638 0.19107,0.0638 h 0.25475 0.19107 0.19106 0.19107 0.25475 l 0.19107,0.0638 h 0.19106 l 0.19107,0.0638 0.19106,0.0638 h 0.25476 0.19106 0.19107 0.19106 0.25476 0.19106 l 0.19107,0.0638 h 0.19106 l 0.25476,0.0638 0.19106,0.0638 h 0.19107 0.19106 0.19107 0.25475 0.19107 0.19106 l 0.19107,0.0638 h 0.25475 l 0.19107,0.0638 0.19106,0.0638 h 0.19107 0.19106 0.25476 0.19106 0.19107 0.19106 l 0.25476,0.0638 h 0.19106 l 0.19107,0.0638 h 0.19106 l 0.19107,0.0638 h 0.25475 0.19107 0.19106 0.19107 0.25475 0.19107 l 0.19106,0.0638 h 0.19107 l 0.25475,0.0638 h 0.19107 0.19106 0.19107 0.19106 0.25476 0.19106 l 0.19107,0.0638 h 0.19106 l 0.25476,0.0638 h 0.19106 l 0.19107,0.0638 h 0.19106 0.19107 0.25475 0.19107 0.19106 0.19107 l 0.25475,0.0638 h 0.19107 l 0.19106,0.0638 h 0.19107 0.19106 0.25476 0.19106 0.19107 0.19106 0.25476 l 0.19106,0.0638 h 0.19107 l 0.19106,0.0638 h 0.19107 0.25475 0.19107 0.19106 0.19107 0.25475 0.19107 l 0.19106,0.0638 h 0.19107 l 0.25475,0.0638 h 0.19107 0.19106 0.19107 0.19106"
       id="path2941"
       transform="matrix(0.75000002,0,0,-0.75000002,176.93191,432.7435)" /><path
       style="fill:none;stroke:#0000ff;stroke-width:1.65768px;stroke-linecap:round;stroke-linejoin:round;stroke-miterlimit:10;stroke-dasharray:none;stroke-opacity:1"
       clip-path="url(#clipEmfPath1-2)"
       d="m 348.56686,375.61126 h 0.25476 0.19106 0.19107 l 0.19106,0.0638 h 0.25476 0.19106 l 0.19107,0.0638 h 0.19106 0.19107 l 0.25475,-0.0638 h 0.19107 l 0.19106,0.0638 h 0.19107 0.25475 l 0.19107,0.0638 h 0.19106 0.19107 0.19106 0.25476 0.19106 0.19107 0.19106 0.25475 l 0.19107,0.0638 h 0.19107 l 0.19106,0.0638 h 0.19107 0.25475 0.19107 0.19106 0.19107 0.25475 0.19107 0.19106 l 0.19107,0.0638 h 0.25475 0.19106 0.19107 0.19107 0.19106 0.25475 0.19107 0.19107 l 0.19106,0.0638 h 0.25475 l 0.19107,0.0638 h 0.19107 0.19106 0.19107 l 0.25475,-0.0638 h 0.19107 0.19106 l 0.19107,0.0638 h 0.25475 0.19106 l 0.19107,0.0638 h 0.19107 0.19106 0.25475 0.19107 0.19107 0.19106 0.25475 0.19107 l 0.19107,0.0638 h 0.19106 0.25475 0.19107 0.19106 0.19107 0.19107 0.25475 0.19106 0.19107 l 0.19107,0.0638 h 0.25475 0.19106 0.19107 0.19107 0.19106 0.25475 0.19107 0.19106 0.19107 l 0.25475,0.0638 h 0.19107 0.19106 0.19107 0.19107 0.25475 0.19106 0.19107 0.19107 0.25475 l 0.19106,0.0638 h 0.19107 0.19106 0.19107"
       id="path2943"
       transform="matrix(0.75000002,0,0,-0.75000002,176.93191,432.7435)" /><path
       style="fill:none;stroke:#0000ff;stroke-width:1.65768px;stroke-linecap:round;stroke-linejoin:round;stroke-miterlimit:10;stroke-dasharray:none;stroke-opacity:1"
       clip-path="url(#clipEmfPath2-6)"
       d="m 61.45935,256.32197 m 0,0 h 0.191065 0.191065 0.191066 0.191065 0.254754 0.191065 0.191066 0.191065 l 0.254754,-0.0638 h 0.191065 0.191065 0.191066 0.191065 0.254754 0.191065 0.191065 0.191066 0.254754 0.191065 l 0.191065,-0.0638 h 0.191066 0.191065 0.254754 0.191065 0.191065 0.191066 0.254754 0.191065 l 0.191065,-0.0638 h 0.191066 0.191065 0.254754 0.191065 0.191065 0.191066 0.254753 0.191066 0.191065 l 0.191065,-0.0638 h 0.254754 0.191066 0.191065 0.191065 0.191066 0.254753 0.191066 0.191065 l 0.191065,-0.0638 h 0.254754 0.191065 0.191066 0.191065 0.191065 0.254754 0.191066 l 0.191065,-0.0638 h 0.191065 0.254754 0.191065 0.191066 0.191065 0.191065 l 0.254754,-0.0638 h 0.191066 0.191065 0.191065 0.254754 0.191065 0.191066 l 0.191065,-0.0638 h 0.254754 0.191065 0.191065 0.191066 0.191065 0.254754 0.191065 l 0.191066,-0.0638 h 0.191065 0.254754 0.191065 0.191065 0.191066 l 0.191065,-0.0638 h 0.254754 0.191065 0.191065 0.191066 0.254754 l 0.191065,-0.0638 h 0.191065 0.191066 0.191065 0.254754 0.191065 0.191065 l 0.191066,-0.0638 h 0.254754 0.191065 0.191065 0.191066 l 0.191065,-0.0638 h 0.254754 0.191065 0.191065 0.191066 0.254753 l 0.191066,-0.0638 h 0.191065 0.191065 0.254754 0.191066 l 0.191065,-0.0638 h 0.191065 0.191066 0.254753 0.191066 0.191065 l 0.191065,-0.0638 h 0.254754 0.191065 0.191066 l 0.191065,-0.0638 h 0.191065 0.254754 0.191066 0.191065 0.191065 l 0.254754,-0.0638 h 0.191065 0.191066 0.191065 l 0.191065,-0.0638 h 0.254754 0.191066 0.191065 0.191065 l 0.254754,-0.0638 h 0.191065 0.191066 0.191065 l 0.191065,-0.0638 h 0.254754 0.191065 0.191066 0.191065 l 0.254754,-0.0638 h 0.191065 0.191066 l 0.191065,-0.0638 h 0.254754 0.191065 0.191065 0.191066 l 0.191065,-0.0638 h 0.254754 0.191065 0.191065 l 0.191066,-0.0638 h 0.254754 0.191065 l 0.191065,-0.0638 h 0.191066 0.191065 0.254754 l 0.191065,-0.0638 h 0.191065 0.191066 l 0.254754,-0.0638 h 0.191065 0.191065 0.191066 l 0.191065,-0.0638 h 0.254754 0.191065 0.191065 l 0.191066,-0.0638 h 0.254753 0.191066 l 0.191065,-0.0638 h 0.191065 0.254754 l 0.191066,-0.0638 h 0.191065 0.191065 0.191066 l 0.254753,-0.0638 h 0.191068 l 0.19106,-0.0638 h 0.19107 0.25475 l 0.19107,-0.0638 h 0.19106 0.19107 0.19106 l 0.25476,-0.0638 h 0.19106 l 0.19107,-0.0638 h 0.19106 0.25476 l 0.19106,-0.0638 h 0.19107 0.19106 l 0.19107,-0.0638 h 0.25475 0.19107 l 0.19106,-0.0638 h 0.19107 l 0.25475,-0.0638 h 0.19107 0.19106 l 0.19107,-0.0638 h 0.19106 0.25476 l 0.19106,-0.0638 h 0.19107 0.19106 l 0.25476,-0.0638 h 0.19106 l 0.19107,-0.0638 h 0.19106 l 0.25476,-0.0638 h 0.19106 0.19107 l 0.19106,-0.0638 h 0.19107 l 0.25475,-0.0638 h 0.19107 l 0.19106,-0.0638 h 0.19107 l 0.25475,-0.0638 h 0.19107 0.19106 l 0.19107,-0.0638 h 0.19106 0.25476 l 0.19106,-0.0638 h 0.19107 l 0.19106,-0.0638 0.25476,-0.0638 h 0.19106 0.19107 l 0.19106,-0.0638 h 0.19107 l 0.25475,-0.0638 h 0.19107 l 0.19106,-0.0638 h 0.19107 l 0.25475,-0.0638 h 0.19107 l 0.19106,-0.0638 h 0.19107 l 0.25475,-0.0638 h 0.19107 l 0.19106,-0.0638 h 0.19107 l 0.19106,-0.0638 h 0.25476 l 0.19106,-0.0638 h 0.19107 l 0.19106,-0.0638 0.25476,-0.0638 h 0.19106 0.19107 l 0.19106,-0.0638 h 0.19107 l 0.25475,-0.0638 0.19107,-0.0638 h 0.19106 l 0.19107,-0.0638 0.25475,-0.0638 h 0.19107 l 0.19106,-0.0638 h 0.19107 l 0.19106,-0.0638 h 0.25476 l 0.19106,-0.0638 0.19107,-0.0638 h 0.19106 l 0.25476,-0.0638 0.19106,-0.0638 h 0.19107 l 0.19106,-0.0638 h 0.19107 l 0.25475,-0.0638 h 0.19107 l 0.19106,-0.0638 0.19107,-0.0638 0.25475,-0.0638 h 0.19107 l 0.19106,-0.0638 0.19107,-0.0638 h 0.25475 l 0.19107,-0.0638 h 0.19106 l 0.19107,-0.0638 0.19106,-0.0638 0.25476,-0.0638 h 0.19106 l 0.19107,-0.0638 0.19106,-0.0638 0.25476,-0.0638 h 0.19106 l 0.19107,-0.0638 h 0.19106 l 0.19107,-0.0638 0.25475,-0.0638 0.19107,-0.0638 0.19106,-0.0638 h 0.19107 l 0.25475,-0.0638 0.19107,-0.0638 0.19106,-0.0638 h 0.19107 l 0.19106,-0.0638 0.25476,-0.0638 0.19106,-0.0638 h 0.19107 l 0.19106,-0.0638 0.25476,-0.0638 0.19106,-0.0638 0.19107,-0.0638 0.19106,-0.0638 h 0.19107 l 0.25475,-0.0638 0.19107,-0.0638 0.19106,-0.0638 0.19107,-0.0638 0.25475,-0.0638 0.19107,-0.0638 0.19106,-0.0638 h 0.19107 l 0.25475,-0.0638 0.19107,-0.0638 0.19106,-0.0638 0.19107,-0.0638 0.19106,-0.0638 0.25476,-0.0638 0.19106,-0.0638 0.19107,-0.0638 0.19106,-0.0638 0.25476,-0.0638 h 0.19106 l 0.19107,-0.0638 0.19106,-0.0638 0.19107,-0.0638 0.25475,-0.0638 0.19107,-0.0638 0.19106,-0.0638 0.19107,-0.0638 0.25475,-0.0638 0.19107,-0.0638 0.19106,-0.0638 0.19107,-0.0638 0.19106,-0.0638 0.25476,-0.0638 0.19106,-0.0638 0.19107,-0.0638 0.19106,-0.0638 0.25475,-0.12765 0.19107,-0.0638 0.19107,-0.0638 0.19106,-0.0638 0.25475,-0.0638 0.19107,-0.0638 0.19107,-0.0638 0.19106,-0.0638 0.19107,-0.0638 0.25475,-0.0638 0.19107,-0.12765 0.19106,-0.0638 0.19107,-0.0638 0.25475,-0.0638 0.19106,-0.0638 0.19107,-0.0638 0.19107,-0.0638 0.19106,-0.12765 0.25475,-0.0638 0.19107,-0.0638 0.19107,-0.12765 0.19106,-0.0638 0.25475,-0.0638 0.19107,-0.0638 0.19107,-0.0638 0.19106,-0.12765 0.19107,-0.0638 0.25475,-0.0638 0.19106,-0.0638 0.19107,-0.12765 0.19107,-0.0638 0.25475,-0.12765 0.19106,-0.0638 0.19107,-0.0638 0.19107,-0.0638 0.19106,-0.12765 0.25475,-0.0638 0.19107,-0.0638 0.19107,-0.12765 0.19106,-0.0638 0.25475,-0.12765 0.19107,-0.0638 0.19106,-0.12765 0.19107,-0.0638 0.25475,-0.0638 0.19107,-0.12765 0.19106,-0.0638 0.19107,-0.12765 0.19107,-0.0638 0.25475,-0.12765 0.19106,-0.0638 0.19107,-0.12765 0.19107,-0.0638 0.25475,-0.12765 0.19106,-0.0638 0.19107,-0.12765 0.19107,-0.0638 0.19106,-0.12765 0.25475,-0.12765 0.19107,-0.0638 0.19106,-0.12765 0.19107,-0.12765 0.25475,-0.0638 0.19107,-0.12765 0.19106,-0.0638 0.19107,-0.12765 0.19107,-0.0638 0.25475,-0.12765 0.19106,-0.12765 0.19107,-0.12765 0.19107,-0.12765 0.25475,-0.0638 0.19106,-0.12765 0.19107,-0.12765 0.19106,-0.0638 0.19107,-0.12765 0.25475,-0.12765 0.19107,-0.12765 0.19106,-0.0638 0.19107,-0.12765 0.25475,-0.12765 0.19107,-0.12765 0.19106,-0.12765 0.19107,-0.12765 0.25475,-0.0638 0.19107,-0.12765 0.19106,-0.12765 0.19107,-0.12765 0.19106,-0.12765 0.25476,-0.12765 0.19106,-0.12766 0.19107,-0.12765 0.19106,-0.12765 0.25476,-0.12765 0.19106,-0.12765 0.19107,-0.12765 0.19106,-0.12765 0.19107,-0.12765 0.25475,-0.12765 0.19107,-0.12765 0.19106,-0.12765 0.19107,-0.19147 0.25475,-0.12766 0.19107,-0.12765 0.19106,-0.12765 0.19107,-0.12765 0.19106,-0.12765 0.25476,-0.12765 0.19106,-0.12765 0.19107,-0.19147 0.19106,-0.12765 0.25476,-0.12765 0.19106,-0.12765 0.19107,-0.19148 0.19106,-0.12765 0.25476,-0.12765 0.19106,-0.12765 0.19107,-0.12765 0.19106,-0.19148 0.19107,-0.12765 0.25475,-0.19147 0.19107,-0.12765 0.19106,-0.19148 0.19107,-0.12765 0.25475,-0.12765 0.19107,-0.12765 0.19106,-0.19148 0.19107,-0.12765 0.19106,-0.19147 0.25476,-0.19148 0.19106,-0.12765 0.19107,-0.19147 0.19106,-0.12765 0.25476,-0.19148 0.19106,-0.12765 0.19107,-0.12765 0.19106,-0.19148 0.19107,-0.19147 0.25475,-0.12765 0.19107,-0.19148 0.19106,-0.19147 0.19107,-0.19148 0.25475,-0.12765 0.19107,-0.19147 0.19106,-0.12765 0.19107,-0.19148 0.19106,-0.19148 0.25476,-0.19147 0.19106,-0.19148 0.19107,-0.12765 0.19106,-0.19147 0.25476,-0.19148 0.19106,-0.19147 0.19107,-0.19148 0.19106,-0.12765 0.25476,-0.19148 0.19106,-0.19147 0.19107,-0.19148 0.19106,-0.19147 0.19107,-0.19148 0.25475,-0.19147 0.19107,-0.19148 0.19106,-0.19147 0.19107,-0.19148 0.25475,-0.19148 0.19107,-0.19147 0.19106,-0.19148 0.19107,-0.19147 0.19106,-0.19148 0.25476,-0.2553 0.19106,-0.19147 0.19107,-0.19148 0.19106,-0.19148 0.25476,-0.19147 0.19106,-0.19148 0.19107,-0.19147 0.19106,-0.19148 0.19107,-0.2553 0.25475,-0.19147 0.19107,-0.2553 0.19106,-0.19148 0.19107,-0.19148 0.25475,-0.2553 0.19107,-0.19147 0.19106,-0.19148 0.19107,-0.19147 0.19106,-0.19148 0.25476,-0.2553 0.19106,-0.2553 0.19107,-0.19148 0.19106,-0.2553 0.25476,-0.19147 0.19106,-0.2553 0.19107,-0.19148 0.19106,-0.19147 0.25476,-0.25531 0.19106,-0.19147 0.19107,-0.2553 0.19106,-0.2553 0.19107,-0.19148 0.25475,-0.2553 0.19107,-0.2553 0.19106,-0.19147 0.19107,-0.25531 0.25475,-0.19147 0.19107,-0.2553 0.19106,-0.19148 0.19107,-0.2553 0.19106,-0.2553 0.25476,-0.2553 0.19106,-0.2553 0.19107,-0.2553 0.19106,-0.19148 0.25476,-0.2553 0.19106,-0.19147 0.19107,-0.2553 0.19106,-0.2553 0.19107,-0.25531 0.25475,-0.2553 0.19107,-0.2553 0.19106,-0.2553 0.19107,-0.2553 0.25475,-0.2553 0.19107,-0.19148 0.19106,-0.2553 0.19107,-0.2553 0.25475,-0.2553 0.19107,-0.2553 0.19106,-0.2553 0.19107,-0.2553 0.19106,-0.31913 0.25476,-0.2553 0.19106,-0.19147 0.19107,-0.2553 0.19106,-0.2553 0.25476,-0.2553 0.19106,-0.25531 0.19107,-0.2553 0.19106,-0.2553 0.19107,-0.31912 0.25475,-0.2553 0.19107,-0.2553 0.19106,-0.2553 0.19107,-0.25531 0.25475,-0.2553 0.19107,-0.2553 0.19106,-0.2553 0.19107,-0.2553 0.19106,-0.2553 0.25476,-0.31913 0.19106,-0.2553 0.19107,-0.2553 0.19106,-0.2553 0.25476,-0.2553 0.19106,-0.2553 0.19107,-0.2553 0.19106,-0.2553 0.19107,-0.31913 0.25475,-0.2553 0.19107,-0.31912 0.19106,-0.2553 0.19107,-0.25531 0.25475,-0.2553 0.19107,-0.2553 0.19106,-0.2553 0.19107,-0.2553 0.25475,-0.2553 0.19107,-0.2553 0.19106,-0.31913 0.19107,-0.2553 0.19106,-0.31912 0.25476,-0.2553 0.19106,-0.2553 0.19107,-0.2553 0.19106,-0.25531 0.25476,-0.2553 0.19106,-0.2553 0.19107,-0.2553 0.19106,-0.31912 0.19107,-0.2553 0.25475,-0.25531 0.19107,-0.31912 0.19106,-0.19148 0.19107,-0.2553 0.25475,-0.2553 0.19107,-0.2553 0.19106,-0.2553 0.19107,-0.2553 0.19106,-0.31913 0.25476,-0.2553 0.19106,-0.2553 0.19107,-0.2553 0.19106,-0.2553 0.25476,-0.2553 0.19106,-0.19148 0.19107,-0.2553 0.19106,-0.2553 0.25476,-0.2553 0.19106,-0.2553 0.19107,-0.31913 0.19106,-0.2553 0.19107,-0.2553 0.25475,-0.19147 0.19107,-0.19148 0.19106,-0.2553 0.19107,-0.19147 0.25475,-0.2553 0.19107,-0.25531 0.19106,-0.2553 0.19107,-0.2553 0.19106,-0.2553 0.25476,-0.2553 0.19106,-0.19147 0.19107,-0.19148 0.19106,-0.19148 0.25476,-0.19147 0.19106,-0.2553 0.19107,-0.2553 0.19106,-0.2553 0.19107,-0.2553 0.25475,-0.19148 0.19107,-0.2553 0.19106,-0.12765 0.19107,-0.19148 0.25475,-0.19147 0.19107,-0.19148 0.19106,-0.19147 0.19107,-0.19148 0.19106,-0.2553 0.25476,-0.2553 0.19106,-0.19148 0.19107,-0.19147 0.19106,-0.19148 0.25476,-0.12765 0.19106,-0.12765 0.19107,-0.12765 0.19106,-0.19147 0.25475,-0.19148 0.19107,-0.2553 0.19107,-0.19148"
       id="path2949"
       transform="matrix(0.75000002,0,0,-0.75000002,176.93191,432.7435)" /><path
       style="fill:none;stroke:#0000ff;stroke-width:1.65768px;stroke-linecap:round;stroke-linejoin:round;stroke-miterlimit:10;stroke-dasharray:none;stroke-opacity:1"
       clip-path="url(#clipEmfPath2-6)"
       d="m 205.01311,185.66748 0.19106,-0.19147 0.19107,-0.19148 0.25475,-0.12765 0.19107,-0.0638 0.19106,-0.12765 0.19107,-0.12765 0.25475,-0.12765 0.19107,-0.19148 0.19106,-0.2553 0.19107,-0.19148 0.19106,-0.12765 0.25476,-0.12765 0.19106,-0.0638 0.19107,-0.0638 0.19106,-0.0638 0.25475,-0.0638 0.19107,-0.19147 0.19107,-0.12765 0.19106,-0.19148 0.19107,-0.19147 0.25475,-0.19148 0.19107,-0.0638 h 0.19106 0.19107 0.25475 l 0.19107,-0.0638 0.19106,-0.0638 0.19107,-0.19147 0.19106,-0.2553 0.25475,-0.19148 0.19107,-0.0638 0.19107,-0.0638 0.19106,0.12765 0.25475,0.12765 0.19107,0.0638 h 0.19107 l 0.19106,-0.19148 0.25475,-0.31912 0.19107,-0.31913 0.19107,-0.2553 h 0.19106 l 0.19107,0.38295 0.25475,0.57443 0.19106,0.44677 0.19107,-0.31912 0.19107,-2.61683 0.25475,-4.78689 0.19106,31.59347 0.19107,30.95521 0.19107,-30.95521 0.19106,-31.59347 0.25475,4.78689 0.19107,2.61683 0.19107,0.31912 0.19106,-0.44677 0.25475,-0.57443 0.19107,-0.38295 h 0.19106 l 0.19107,0.2553 0.19107,0.31913 0.25475,0.31912 0.19106,0.19148 h 0.19107 l 0.19107,-0.0638 0.25475,-0.12765 0.19106,-0.12765 0.19107,0.0638 0.19107,0.0638 0.25475,0.19148 0.19106,0.2553 0.19107,0.19147 0.19106,0.0638 0.19107,0.0638 h 0.25475 0.19107 0.19106 l 0.19107,0.0638 0.25475,0.19148 0.19107,0.19147 0.19106,0.19148 0.19107,0.12765 0.19107,0.19147 0.25475,0.0638 0.19106,0.0638 0.19107,0.0638 0.19107,0.0638 0.25475,0.12765 0.19106,0.12765 0.19107,0.19148 0.19106,0.2553 0.19107,0.19148 0.25475,0.12765 0.19107,0.12765 0.19106,0.12765 0.19107,0.0638 0.25475,0.12765 0.19107,0.19148 0.19106,0.19147 0.19107,0.19148 0.19107,0.2553 0.25475,0.19148 0.19106,0.19147 0.19107,0.12765 0.19106,0.12765 0.25476,0.12765 0.19106,0.19148 0.19107,0.19147 0.19106,0.19148 0.25476,0.2553 0.19106,0.2553 0.19107,0.19148 0.19106,0.19147 0.19107,0.19148 0.25475,0.19147 0.19107,0.19148 0.19106,0.12765 0.19107,0.2553 0.25475,0.19148 0.19107,0.2553 0.19106,0.2553 0.19107,0.2553 0.19106,0.2553 0.25476,0.19147 0.19106,0.19148 0.19107,0.19148 0.19106,0.19147 0.25476,0.2553 0.19106,0.2553 0.19107,0.2553 0.19106,0.2553 0.19107,0.25531 0.25475,0.2553 0.19107,0.19147 0.19106,0.2553 0.19107,0.19148 0.25475,0.19147 0.19107,0.2553 0.19106,0.2553 0.19107,0.31913 0.19106,0.2553 0.25476,0.2553 0.19106,0.2553 0.19107,0.2553 0.19106,0.19148 0.25476,0.2553 0.19106,0.2553 0.19107,0.2553 0.19106,0.2553 0.25476,0.2553 0.19106,0.31913 0.19107,0.2553 0.19106,0.2553 0.19107,0.2553 0.25475,0.2553 0.19107,0.2553 0.19106,0.19148 0.19107,0.31912 0.25475,0.25531 0.19107,0.2553 0.19106,0.31912 0.19107,0.2553 0.19106,0.2553 0.25476,0.2553 0.19106,0.25531 0.19107,0.2553 0.19106,0.2553 0.25476,0.2553 0.19106,0.31912 0.19107,0.2553 0.19106,0.31913 0.19107,0.2553 0.25475,0.2553 0.19107,0.2553 0.19106,0.2553 0.19107,0.2553 0.25475,0.2553 0.19107,0.25531 0.19106,0.2553 0.19107,0.31912 0.25475,0.2553 0.19107,0.31913 0.19106,0.2553 0.19107,0.2553 0.19106,0.2553 0.25476,0.2553 0.19106,0.2553 0.19107,0.2553 0.19106,0.2553 0.25476,0.31913 0.19106,0.2553 0.19107,0.2553 0.19106,0.2553 0.19107,0.2553 0.25475,0.2553 0.19107,0.25531 0.19106,0.2553 0.19107,0.2553 0.25475,0.2553 0.19107,0.31912 0.19106,0.2553 0.19107,0.2553 0.19106,0.25531 0.25476,0.2553 0.19106,0.2553 0.19107,0.2553 0.19106,0.19147 0.25476,0.2553 0.19106,0.31913 0.19107,0.2553 0.19106,0.2553 0.19107,0.2553 0.25475,0.2553 0.19107,0.2553 0.19106,0.2553 0.19107,0.19148 0.25475,0.2553 0.19107,0.2553 0.19106,0.2553 0.19107,0.2553 0.25475,0.2553 0.19107,0.25531 0.19106,0.2553 0.19107,0.2553 0.19106,0.19147 0.25476,0.2553 0.19106,0.19148 0.19107,0.2553 0.19106,0.2553 0.25476,0.2553 0.19106,0.2553 0.19107,0.2553 0.19106,0.19148 0.19107,0.2553 0.25475,0.19147 0.19107,0.25531 0.19106,0.19147 0.19107,0.2553 0.25475,0.2553 0.19107,0.19148 0.19106,0.2553 0.19107,0.2553 0.19106,0.19147 0.25476,0.25531 0.19106,0.19147 0.19107,0.19148 0.19106,0.2553 0.25476,0.19147 0.19106,0.2553 0.19107,0.19148 0.19106,0.2553 0.25476,0.2553 0.19106,0.19148 0.19107,0.19147 0.19106,0.19148 0.19107,0.19147 0.25475,0.2553 0.19107,0.19148 0.19106,0.19148 0.19107,0.2553 0.25475,0.19147 0.19107,0.2553 0.19106,0.19148 0.19107,0.19147 0.19106,0.19148 0.25476,0.19147 0.19106,0.19148 0.19107,0.19148 0.19106,0.19147 0.25476,0.2553 0.19106,0.19148 0.19107,0.19147 0.19106,0.19148 0.19107,0.19147 0.25475,0.19148 0.19107,0.19148 0.19106,0.19147 0.19107,0.19148 0.25475,0.19147 0.19107,0.19148 0.19106,0.19147 0.19107,0.19148 0.19106,0.19147 0.25476,0.19148 0.19106,0.12765 0.19107,0.19148 0.19106,0.19147 0.25476,0.19148 0.19106,0.19147 0.19107,0.12765 0.19106,0.19148 0.25476,0.19147 0.19106,0.19148 0.19107,0.19148 0.19106,0.12765 0.19107,0.19147 0.25475,0.12765 0.19107,0.19148 0.19106,0.19147 0.19107,0.19148 0.25475,0.12765 0.19107,0.19147 0.19106,0.19148 0.19107,0.12765 0.19106,0.12765 0.25476,0.19148 0.19106,0.12765 0.19107,0.19147 0.19106,0.12765 0.25476,0.19148 0.19106,0.19147 0.19107,0.12765 0.19106,0.19148 0.19107,0.12765 0.25475,0.12765 0.19107,0.12765 0.19106,0.19148 0.19107,0.12765 0.25475,0.19147 0.19107,0.12765 0.19106,0.19148 0.19107,0.12765 0.19106,0.12765 0.25476,0.12765 0.19106,0.12765 0.19107,0.19148 0.19106,0.12765 0.25476,0.12765 0.19106,0.12765 0.19107,0.19147 0.19106,0.12765 0.25476,0.12765 0.19106,0.12765 0.19107,0.12765 0.19106,0.12765 0.19107,0.12765 0.25475,0.12766 0.19107,0.19147 0.19106,0.12765 0.19107,0.12765 0.25475,0.12765 0.19107,0.12765 0.19106,0.12765 0.19107,0.12765 0.19106,0.12765 0.25476,0.12765 0.19106,0.12765 0.19107,0.12765 0.19106,0.12766 0.25476,0.12765 0.19106,0.12765 0.19107,0.12765 0.19106,0.12765 0.19107,0.12765 0.25475,0.0638 0.19107,0.12765 0.19106,0.12765 0.19107,0.12765 0.25475,0.12765 0.19107,0.12765 0.19106,0.0638 0.19107,0.12765 0.25475,0.12765 0.19107,0.12765 0.19106,0.0638 0.19107,0.12765 0.19106,0.12765 0.25475,0.0638 0.19107,0.12765 0.19107,0.12765 0.19106,0.12765 0.25475,0.12765 0.19107,0.0638 0.19107,0.12765 0.19106,0.0638 0.19107,0.12765 0.25475,0.0638 0.19107,0.12765 0.19106,0.12765 0.19107,0.0638 0.25475,0.12765 0.19107,0.12765 0.19106,0.0638 0.19107,0.12765 0.19106,0.0638 0.25475,0.12765 0.19107,0.0638 0.19107,0.12765 0.19106,0.0638 0.25475,0.12765 0.19107,0.0638 0.19107,0.12765 0.19106,0.0638 0.19107,0.12765 0.25475,0.0638 0.19107,0.0638 0.19106,0.12765 0.19107,0.0638 0.25475,0.12765 0.19106,0.0638 0.19107,0.12765 0.19107,0.0638 0.25475,0.0638 0.19106,0.12765 0.19107,0.0638 0.19107,0.0638 0.19106,0.0638 0.25475,0.12765 0.19107,0.0638 0.19107,0.12765 0.19106,0.0638 0.25475,0.0638 0.19107,0.0638 0.19106,0.12765 0.19107,0.0638 0.19107,0.0638 0.25475,0.0638 0.19106,0.0638 0.19107,0.12765 0.19107,0.0638 0.25475,0.0638 0.19106,0.12765 0.19107,0.0638 0.19107,0.0638 0.19106,0.0638 0.25475,0.0638 0.19107,0.0638 0.19106,0.0638 0.19107,0.12765 0.25475,0.0638 0.19107,0.0638 0.19106,0.0638 0.19107,0.0638 0.19107,0.0638 0.25475,0.0638 0.19106,0.0638 0.19107,0.0638 0.19107,0.0638 0.25475,0.12765 0.19106,0.0638 0.19107,0.0638 0.19106,0.0638 0.25476,0.0638 0.19106,0.0638 0.19107,0.0638 0.19106,0.0638 0.19107,0.0638 0.25475,0.0638 0.19107,0.0638 0.19106,0.0638 0.19107,0.0638 0.25475,0.0638 0.19107,0.0638 0.19106,0.0638 0.19107,0.0638 h 0.19107 l 0.25475,0.0638 0.19106,0.0638 0.19107,0.0638 0.19106,0.0638 0.25476,0.0638 0.19106,0.0638 0.19107,0.0638 0.19106,0.0638 0.19107,0.0638 0.25475,0.0638 h 0.19107 l 0.19106,0.0638 0.19107,0.0638 0.25475,0.0638 0.19107,0.0638 0.19106,0.0638 0.19107,0.0638 0.25475,0.0638 h 0.19107 l 0.19106,0.0638 0.19107,0.0638 0.19106,0.0638 0.25476,0.0638 0.19106,0.0638 h 0.19107 l 0.19106,0.0638 0.25476,0.0638 0.19106,0.0638 h 0.19107 l 0.19106,0.0638 0.19107,0.0638 0.25475,0.0638 h 0.19107 l 0.19106,0.0638 0.19107,0.0638 0.25475,0.0638 0.19107,0.0638 h 0.19106 l 0.19107,0.0638 h 0.19106 l 0.25476,0.0638 0.19106,0.0638 0.19107,0.0638 h 0.19106 l 0.25476,0.0638 0.19106,0.0638 0.19107,0.0638 h 0.19106 l 0.19107,0.0638 h 0.25475 l 0.19107,0.0638 0.19106,0.0638 h 0.19107 l 0.25475,0.0638 0.19107,0.0638 0.19106,0.0638 h 0.19107 l 0.25475,0.0638 h 0.19107 l 0.19106,0.0638 h 0.19107 l 0.19106,0.0638 0.25476,0.0638 h 0.19106 l 0.19107,0.0638 0.19106,0.0638 h 0.25476 l 0.19106,0.0638 h 0.19107 l 0.19106,0.0638 h 0.19107 l 0.25475,0.0638 0.19107,0.0638 h 0.19106 l 0.19107,0.0638 0.25475,0.0638 h 0.19107 l 0.19106,0.0638 h 0.19107 0.19106 l 0.25476,0.0638 0.19106,0.0638 h 0.19107 l 0.19106,0.0638 h 0.25476 l 0.19106,0.0638 h 0.19107 l 0.19106,0.0638 h 0.19107 l 0.25475,0.0638 h 0.19107 l 0.19106,0.0638 h 0.19107 l 0.25475,0.0638 h 0.19107 l 0.19106,0.0638 h 0.19107 l 0.25475,0.0638 h 0.19107 l 0.19106,0.0638 h 0.19107 0.19106 l 0.25476,0.0638 0.19106,0.0638 h 0.19107 l 0.19106,0.0638 h 0.25476 0.19106 l 0.19107,0.0638 h 0.19106 0.19107 l 0.25475,0.0638 h 0.19107 l 0.19106,0.0638 h 0.19107 l 0.25475,0.0638 h 0.19107 l 0.19106,0.0638 h 0.19107 0.19106 l 0.25476,0.0638 h 0.19106 l 0.19107,0.0638 h 0.19106 l 0.25476,0.0638 h 0.19106 0.19107 l 0.19106,0.0638 h 0.25476 0.19106 l 0.19107,0.0638 h 0.19106 0.19107 l 0.25475,0.0638 h 0.19107 l 0.19106,0.0638 h 0.19107 0.25475 l 0.19107,0.0638 h 0.19106 0.19107 l 0.19106,0.0638 h 0.25476 0.19106 l 0.19107,0.0638 h 0.19106 l 0.25476,0.0638 h 0.19106 0.19107 0.19106 l 0.19107,0.0638 h 0.25475 0.19107 l 0.19106,0.0638 h 0.19107 l 0.25475,0.0638 h 0.19107 0.19106 0.19107 l 0.19106,0.0638 h 0.25476 0.19106 l 0.19107,0.0638 h 0.19106 0.25476 l 0.19106,0.0638 h 0.19107 0.19106 0.25476 l 0.19106,0.0638 h 0.19107 0.19106 0.19107 l 0.25475,0.0638 h 0.19107 0.19106 l 0.19107,0.0638 h 0.25475 0.19107 0.19106 l 0.19107,0.0638 h 0.19106 0.25476 l 0.19106,0.0638 h 0.19107 0.19106 0.25476 l 0.19106,0.0638 h 0.19107 0.19106 0.19107 0.25475 l 0.19107,0.0638 h 0.19106 0.19107 l 0.25475,0.0638 h 0.19107 0.19106 0.19107 0.25475 l 0.19107,0.0638 h 0.19106 0.19107 0.19106 l 0.25476,0.0638 h 0.19106 0.19107 0.19106 0.25476 l 0.19106,0.0638 h 0.19107 0.19106 0.19107 l 0.25475,0.0638 h 0.19107 0.19106 0.19107 0.25475 0.19107 l 0.19106,0.0638 h 0.19107 0.19106 0.25476 l 0.19106,0.0638 h 0.19107 0.19106 0.25476 0.19106 0.19107 l 0.19106,0.0638 h 0.19107 0.25475 0.19107 0.19106 l 0.19107,0.0638 h 0.25475 0.19107 0.19106 0.19107 0.25475 l 0.19107,0.0638 h 0.19106 0.19107 0.19106"
       id="path2951"
       transform="matrix(0.75000002,0,0,-0.75000002,176.93191,432.7435)" /><path
       style="fill:none;stroke:#0000ff;stroke-width:1.65768px;stroke-linecap:round;stroke-linejoin:round;stroke-miterlimit:10;stroke-dasharray:none;stroke-opacity:1"
       clip-path="url(#clipEmfPath2-6)"
       d="m 348.56686,255.55607 h 0.25476 l 0.19106,0.0638 h 0.19107 0.19106 0.25476 0.19106 0.19107 0.19106 l 0.19107,0.0638 h 0.25475 0.19107 0.19106 0.19107 0.25475 l 0.19107,0.0638 h 0.19106 0.19107 0.19106 0.25476 0.19106 l 0.19107,0.0638 h 0.19106 0.25475 0.19107 0.19107 0.19106 0.19107 0.25475 l 0.19107,0.0638 h 0.19106 0.19107 0.25475 0.19107 0.19106 0.19107 l 0.25475,0.0638 h 0.19106 0.19107 0.19107 0.19106 0.25475 0.19107 l 0.19107,0.0638 h 0.19106 0.25475 0.19107 0.19107 0.19106 0.19107 0.25475 l 0.19107,0.0638 h 0.19106 0.19107 0.25475 0.19106 0.19107 0.19107 0.19106 0.25475 l 0.19107,0.0638 h 0.19107 0.19106 0.25475 0.19107 0.19107 0.19106 0.25475 0.19107 0.19106 l 0.19107,0.0638 h 0.19107 0.25475 0.19106 0.19107 0.19107 0.25475 0.19106 0.19107 l 0.19107,0.0638 h 0.19106 0.25475 0.19107 0.19106 0.19107 0.25475 0.19107 0.19106 0.19107 0.19107 l 0.25475,0.0638 h 0.19106 0.19107 0.19107 0.25475 0.19106 0.19107 0.19106 0.19107"
       id="path2953"
       transform="matrix(0.75000002,0,0,-0.75000002,176.93191,432.7435)" /><path
       style="fill:none;stroke:#0000ff;stroke-width:1.65768px;stroke-linecap:round;stroke-linejoin:round;stroke-miterlimit:10;stroke-dasharray:none;stroke-opacity:1"
       clip-path="url(#clipEmfPath3-41)"
       d="m 61.45935,143.15991 m 0,0 h 0.191065 0.191065 0.191066 0.191065 0.254754 0.191065 0.191066 0.191065 l 0.254754,-0.0638 h 0.191065 0.191065 0.191066 0.191065 0.254754 0.191065 0.191065 0.191066 0.254754 0.191065 l 0.191065,-0.0638 h 0.191066 0.191065 0.254754 0.191065 0.191065 0.191066 0.254754 0.191065 0.191065 l 0.191066,-0.0638 h 0.191065 0.254754 0.191065 0.191065 0.191066 0.254753 0.191066 0.191065 l 0.191065,-0.0638 h 0.254754 0.191066 0.191065 0.191065 0.191066 0.254753 0.191066 l 0.191065,-0.0638 h 0.191065 0.254754 0.191065 0.191066 0.191065 0.191065 0.254754 0.191066 l 0.191065,-0.0638 h 0.191065 0.254754 0.191065 0.191066 0.191065 0.191065 l 0.254754,-0.0638 h 0.191066 0.191065 0.191065 0.254754 0.191065 0.191066 0.191065 l 0.254754,-0.0638 h 0.191065 0.191065 0.191066 0.191065 0.254754 0.191065 l 0.191066,-0.0638 h 0.191065 0.254754 0.191065 0.191065 0.191066 l 0.191065,-0.0638 h 0.254754 0.191065 0.191065 0.191066 0.254754 0.191065 l 0.191065,-0.0638 h 0.191066 0.191065 0.254754 0.191065 0.191065 l 0.191066,-0.0638 h 0.254754 0.191065 0.191065 0.191066 l 0.191065,-0.0638 h 0.254754 0.191065 0.191065 0.191066 0.254753 l 0.191066,-0.0638 h 0.191065 0.191065 0.254754 0.191066 l 0.191065,-0.0638 h 0.191065 0.191066 0.254753 0.191066 0.191065 l 0.191065,-0.0638 h 0.254754 0.191065 0.191066 0.191065 l 0.191065,-0.0638 h 0.254754 0.191066 0.191065 l 0.191065,-0.0638 h 0.254754 0.191065 0.191066 0.191065 l 0.191065,-0.0638 h 0.254754 0.191066 0.191065 0.191065 l 0.254754,-0.0638 h 0.191065 0.191066 0.191065 l 0.191065,-0.0638 h 0.254754 0.191065 0.191066 l 0.191065,-0.0638 h 0.254754 0.191065 0.191066 l 0.191065,-0.0638 h 0.254754 0.191065 0.191065 l 0.191066,-0.0638 h 0.191065 0.254754 0.191065 l 0.191065,-0.0638 h 0.191066 0.254754 0.191065 l 0.191065,-0.0638 h 0.191066 0.191065 0.254754 l 0.191065,-0.0638 h 0.191065 0.191066 l 0.254754,-0.0638 h 0.191065 0.191065 0.191066 l 0.191065,-0.0638 h 0.254754 0.191065 l 0.191065,-0.0638 h 0.191066 0.254753 0.191066 l 0.191065,-0.0638 h 0.191065 0.254754 l 0.191066,-0.0638 h 0.191065 0.191065 l 0.191066,-0.0638 h 0.254753 0.191068 l 0.19106,-0.0638 h 0.19107 0.25475 l 0.19107,-0.0638 h 0.19106 0.19107 l 0.19106,-0.0638 h 0.25476 0.19106 l 0.19107,-0.0638 h 0.19106 0.25476 l 0.19106,-0.0638 h 0.19107 0.19106 l 0.19107,-0.0638 h 0.25475 0.19107 l 0.19106,-0.0638 h 0.19107 l 0.25475,-0.0638 h 0.19107 0.19106 l 0.19107,-0.0638 h 0.19106 0.25476 l 0.19106,-0.0638 h 0.19107 l 0.19106,-0.0638 h 0.25476 0.19106 l 0.19107,-0.0638 h 0.19106 l 0.25476,-0.0638 h 0.19106 0.19107 l 0.19106,-0.0638 h 0.19107 l 0.25475,-0.0638 h 0.19107 l 0.19106,-0.0638 h 0.19107 0.25475 l 0.19107,-0.0638 h 0.19106 l 0.19107,-0.0638 h 0.19106 l 0.25476,-0.0638 h 0.19106 0.19107 l 0.19106,-0.0638 h 0.25476 l 0.19106,-0.0638 h 0.19107 l 0.19106,-0.0638 h 0.19107 l 0.25475,-0.0638 h 0.19107 l 0.19106,-0.0638 h 0.19107 l 0.25475,-0.0638 h 0.19107 l 0.19106,-0.0638 h 0.19107 l 0.25475,-0.0638 h 0.19107 l 0.19106,-0.0638 h 0.19107 l 0.19106,-0.0638 h 0.25476 l 0.19106,-0.0638 h 0.19107 l 0.19106,-0.0638 h 0.25476 l 0.19106,-0.0638 0.19107,-0.0638 h 0.19106 l 0.19107,-0.0638 h 0.25475 l 0.19107,-0.0638 h 0.19106 l 0.19107,-0.0638 h 0.25475 l 0.19107,-0.0638 0.19106,-0.0638 h 0.19107 l 0.19106,-0.0638 h 0.25476 l 0.19106,-0.0638 0.19107,-0.0638 h 0.19106 l 0.25476,-0.0638 h 0.19106 l 0.19107,-0.0638 0.19106,-0.0638 h 0.19107 l 0.25475,-0.0638 0.19107,-0.0638 h 0.19106 l 0.19107,-0.0638 0.25475,-0.0638 h 0.19107 l 0.19106,-0.0638 h 0.19107 l 0.25475,-0.0638 0.19107,-0.0638 0.19106,-0.0638 h 0.19107 l 0.19106,-0.0638 0.25476,-0.0638 h 0.19106 l 0.19107,-0.0638 0.19106,-0.0638 h 0.25476 l 0.19106,-0.0638 0.19107,-0.0638 0.19106,-0.0638 h 0.19107 l 0.25475,-0.0638 0.19107,-0.0638 0.19106,-0.0638 h 0.19107 l 0.25475,-0.0638 0.19107,-0.0638 0.19106,-0.0638 h 0.19107 l 0.19106,-0.0638 0.25476,-0.0638 0.19106,-0.0638 0.19107,-0.0638 h 0.19106 l 0.25476,-0.0638 0.19106,-0.0638 0.19107,-0.0638 0.19106,-0.0638 h 0.19107 l 0.25475,-0.0638 0.19107,-0.0638 0.19106,-0.0638 0.19107,-0.0638 0.25475,-0.0638 0.19107,-0.0638 h 0.19106 l 0.19107,-0.0638 0.25475,-0.0638 0.19107,-0.0638 0.19106,-0.0638 0.19107,-0.0638 0.19106,-0.0638 0.25476,-0.0638 0.19106,-0.0638 0.19107,-0.0638 h 0.19106 l 0.25476,-0.0638 0.19106,-0.0638 0.19107,-0.0638 0.19106,-0.0638 0.19107,-0.0638 0.25475,-0.0638 0.19107,-0.0638 0.19106,-0.0638 0.19107,-0.0638 0.25475,-0.0638 0.19107,-0.0638 0.19106,-0.0638 0.19107,-0.0638 0.19106,-0.0638 0.25476,-0.0638 0.19106,-0.0638 0.19107,-0.0638 0.19106,-0.0638 0.25475,-0.0638 0.19107,-0.12765 0.19107,-0.0638 0.19106,-0.0638 0.25475,-0.0638 0.19107,-0.0638 0.19107,-0.0638 0.19106,-0.0638 0.19107,-0.0638 0.25475,-0.0638 0.19107,-0.12765 0.19106,-0.0638 0.19107,-0.0638 0.25475,-0.0638 0.19106,-0.0638 0.19107,-0.0638 0.19107,-0.12765 0.19106,-0.0638 0.25475,-0.0638 0.19107,-0.0638 0.19107,-0.0638 0.19106,-0.12765 0.25475,-0.0638 0.19107,-0.0638 0.19107,-0.0638 0.19106,-0.12765 0.19107,-0.0638 0.25475,-0.0638 0.19106,-0.12765 0.19107,-0.0638 0.19107,-0.0638 0.25475,-0.0638 0.19106,-0.12765 0.19107,-0.0638 0.19107,-0.0638 0.19106,-0.12765 0.25475,-0.0638 0.19107,-0.12765 0.19107,-0.0638 0.19106,-0.0638 0.25475,-0.12765 0.19107,-0.0638 0.19106,-0.12765 0.19107,-0.0638 0.25475,-0.0638 0.19107,-0.12765 0.19106,-0.0638 0.19107,-0.12765 0.19107,-0.0638 0.25475,-0.12765 0.19106,-0.0638 0.19107,-0.12765 0.19107,-0.0638 0.25475,-0.12765 0.19106,-0.0638 0.19107,-0.12765 0.19107,-0.0638 0.19106,-0.12765 0.25475,-0.12765 0.19107,-0.0638 0.19106,-0.12765 0.19107,-0.0638 0.25475,-0.12765 0.19107,-0.12765 0.19106,-0.0638 0.19107,-0.12765 0.19107,-0.12765 0.25475,-0.0638 0.19106,-0.12765 0.19107,-0.12765 0.19107,-0.0638 0.25475,-0.12765 0.19106,-0.12765 0.19107,-0.12765 0.19106,-0.0638 0.19107,-0.12765 0.25475,-0.12765 0.19107,-0.12765 0.19106,-0.0638 0.19107,-0.12765 0.25475,-0.12765 0.19107,-0.12765 0.19106,-0.12765 0.19107,-0.12765 0.25475,-0.12765 0.19107,-0.0638 0.19106,-0.12765 0.19107,-0.12765 0.19106,-0.12765 0.25476,-0.12765 0.19106,-0.12765 0.19107,-0.12765 0.19106,-0.12765 0.25476,-0.12765 0.19106,-0.12765 0.19107,-0.12765 0.19106,-0.12765 0.19107,-0.12765 0.25475,-0.12765 0.19107,-0.12765 0.19106,-0.12766 0.19107,-0.12765 0.25475,-0.12765 0.19107,-0.19147 0.19106,-0.12765 0.19107,-0.12765 0.19106,-0.12765 0.25476,-0.12765 0.19106,-0.12765 0.19107,-0.19148 0.19106,-0.12765 0.25476,-0.12765 0.19106,-0.12765 0.19107,-0.12765 0.19106,-0.19148 0.25476,-0.12765 0.19106,-0.12765 0.19107,-0.19147 0.19106,-0.12765 0.19107,-0.12765 0.25475,-0.19148 0.19107,-0.12765 0.19106,-0.12765 0.19107,-0.19148 0.25475,-0.12765 0.19107,-0.19147 0.19106,-0.12765 0.19107,-0.19148 0.19106,-0.12765 0.25476,-0.12765 0.19106,-0.19147 0.19107,-0.12765 0.19106,-0.19148 0.25476,-0.19147 0.19106,-0.12766 0.19107,-0.19147 0.19106,-0.12765 0.19107,-0.19148 0.25475,-0.19147 0.19107,-0.12765 0.19106,-0.19148 0.19107,-0.12765 0.25475,-0.19147 0.19107,-0.19148 0.19106,-0.19148 0.19107,-0.12765 0.19106,-0.19147 0.25476,-0.19148 0.19106,-0.19147 0.19107,-0.12765 0.19106,-0.19148 0.25476,-0.19147 0.19106,-0.19148 0.19107,-0.19148 0.19106,-0.19147 0.25476,-0.12765 0.19106,-0.19148 0.19107,-0.19147 0.19106,-0.19148 0.19107,-0.19147 0.25475,-0.19148 0.19107,-0.19147 0.19106,-0.19148 0.19107,-0.19148 0.25475,-0.19147 0.19107,-0.19148 0.19106,-0.19147 0.19107,-0.19148 0.19106,-0.19147 0.25476,-0.2553 0.19106,-0.19148 0.19107,-0.19148 0.19106,-0.19147 0.25476,-0.19148 0.19106,-0.19147 0.19107,-0.19148 0.19106,-0.2553 0.19107,-0.19147 0.25475,-0.19148 0.19107,-0.19148 0.19106,-0.2553 0.19107,-0.19147 0.25475,-0.19148 0.19107,-0.2553 0.19106,-0.19147 0.19107,-0.19148 0.19106,-0.2553 0.25476,-0.19148 0.19106,-0.2553 0.19107,-0.19147 0.19106,-0.19148 0.25476,-0.2553 0.19106,-0.19147 0.19107,-0.2553 0.19106,-0.19148 0.25476,-0.2553 0.19106,-0.19148 0.19107,-0.2553 0.19106,-0.2553 0.19107,-0.19147 0.25475,-0.2553 0.19107,-0.19148 0.19106,-0.2553 0.19107,-0.2553 0.25475,-0.19148 0.19107,-0.2553 0.19106,-0.2553 0.19107,-0.19147 0.19106,-0.25531 0.25476,-0.2553 0.19106,-0.2553 0.19107,-0.19147 0.19106,-0.2553 0.25476,-0.2553 0.19106,-0.2553 0.19107,-0.19148 0.19106,-0.2553 0.19107,-0.2553 0.25475,-0.2553 0.19107,-0.2553 0.19106,-0.2553 0.19107,-0.2553 0.25475,-0.19148 0.19107,-0.2553 0.19106,-0.2553 0.19107,-0.2553 0.25475,-0.2553 0.19107,-0.255304 0.19106,-0.255301 0.19107,-0.255301 0.19106,-0.2553 0.25476,-0.255301 0.19106,-0.255301 0.19107,-0.255301 0.19106,-0.2553 0.25476,-0.255301 0.19106,-0.255301 0.19107,-0.255301 0.19106,-0.255301 0.19107,-0.2553 0.25475,-0.319126 0.19107,-0.255301 0.19106,-0.255301 0.19107,-0.255301 0.25475,-0.2553 0.19107,-0.255301 0.19106,-0.255301 0.19107,-0.255301 0.19106,-0.2553 0.25476,-0.319126 0.19106,-0.255301 0.19107,-0.255301 0.19106,-0.255301 0.25476,-0.2553 0.19106,-0.255301 0.19107,-0.319126 0.19106,-0.255301 0.19107,-0.255301 0.25475,-0.255301 0.19107,-0.2553 0.19106,-0.255301 0.19107,-0.319126 0.25475,-0.255301 0.19107,-0.255301 0.19106,-0.2553 0.19107,-0.255301 0.25475,-0.319126 0.19107,-0.255301 0.19106,-0.255301 0.19107,-0.2553 0.19106,-0.255301 0.25476,-0.255301 0.19106,-0.319126 0.19107,-0.255301 0.19106,-0.2553 0.25476,-0.255301 0.19106,-0.255301 0.19107,-0.255301 0.19106,-0.319126 0.19107,-0.2553 0.25475,-0.255301 0.19107,-0.255301 0.19106,-0.255301 0.19107,-0.255301 0.25475,-0.2553 0.19107,-0.255301 0.19106,-0.255301 0.19107,-0.255301 0.19106,-0.2553 0.25476,-0.319126 0.19106,-0.255301 0.19107,-0.255301 0.19106,-0.255301 0.25476,-0.2553 0.19106,-0.191476 0.19107,-0.255301 0.19106,-0.255301 0.25476,-0.2553 0.19106,-0.255301 0.19107,-0.255301 0.19106,-0.255301 0.19107,-0.2553 0.25475,-0.255301 0.19107,-0.191476 0.19106,-0.2553 0.19107,-0.255301 0.25475,-0.255301 0.19107,-0.191476 0.19106,-0.2553 0.19107,-0.255301 0.19106,-0.191476 0.25476,-0.2553 0.19106,-0.255301 0.19107,-0.191476 0.19106,-0.255301 0.25476,-0.191475 0.19106,-0.255301 0.19107,-0.191476 0.19106,-0.2553 0.19107,-0.191476 0.25475,-0.191475 0.19107,-0.255301 0.19106,-0.191476 0.19107,-0.191475 0.25475,-0.191476 0.19107,-0.255301 0.19106,-0.191475 0.19107,-0.191476 0.19106,-0.191475 0.25476,-0.191476 0.19106,-0.191476 0.19107,-0.191475 0.19106,-0.191476 0.25476,-0.191475 0.19106,-0.191476 0.19107,-0.191475 0.19106,-0.127651 0.25475,-0.191475 0.19107,-0.191476 0.19107,-0.12765"
       id="path2959"
       transform="matrix(0.75000002,0,0,-0.75000002,176.93191,432.7435)" /><path
       style="fill:none;stroke:#0000ff;stroke-width:1.65768px;stroke-linecap:round;stroke-linejoin:round;stroke-miterlimit:10;stroke-dasharray:none;stroke-opacity:1"
       clip-path="url(#clipEmfPath3-41)"
       d="m 205.01311,72.569244 0.19106,-0.191476 0.19107,-0.191476 0.25475,-0.12765 0.19107,-0.12765 0.19106,-0.191476 0.19107,-0.12765 0.25475,-0.191476 0.19107,-0.12765 0.19106,-0.127651 0.19107,-0.12765 0.19106,-0.12765 0.25476,-0.191476 0.19106,-0.12765 0.19107,-0.127651 0.19106,-0.12765 0.25475,-0.06383 0.19107,-0.127651 0.19107,-0.12765 0.19106,-0.12765 0.19107,-0.06383 0.25475,-0.12765 0.19107,-0.12765 0.19106,-0.06383 0.19107,-0.12765 0.25475,-0.06382 0.19107,-0.06383 0.19106,-0.127651 0.19107,-0.06382 0.19106,-0.06382 0.25475,-0.06383 0.19107,-0.06383 0.19107,-0.06383 0.19106,-0.06382 0.25475,-0.06383 0.19107,-0.06382 0.19107,-0.06382 0.19106,-0.06383 h 0.25475 l 0.19107,-0.06382 0.19107,-0.06383 h 0.19106 0.19107 l 0.25475,-0.06382 h 0.19106 0.19107 l 0.19107,-0.06383 h 0.25475 0.19106 0.19107 0.19107 0.19106 0.25475 l 0.19107,0.06383 h 0.19107 0.19106 l 0.25475,0.06382 h 0.19107 0.19106 l 0.19107,0.06383 0.19107,0.06382 h 0.25475 l 0.19106,0.06383 0.19107,0.06382 0.19107,0.06382 0.25475,0.06383 0.19106,0.06382 0.19107,0.06383 0.19107,0.06383 0.25475,0.06383 0.19106,0.06382 0.19107,0.06382 0.19106,0.127651 0.19107,0.06383 0.25475,0.06382 0.19107,0.12765 0.19106,0.06383 0.19107,0.12765 0.25475,0.12765 0.19107,0.06383 0.19106,0.12765 0.19107,0.12765 0.19107,0.127651 0.25475,0.06383 0.19106,0.12765 0.19107,0.127651 0.19107,0.12765 0.25475,0.191476 0.19106,0.12765 0.19107,0.12765 0.19106,0.127651 0.19107,0.12765 0.25475,0.191476 0.19107,0.12765 0.19106,0.191476 0.19107,0.12765 0.25475,0.12765 0.19107,0.191476 0.19106,0.191476 0.19107,0.12765 0.19107,0.191476 0.25475,0.191475 0.19106,0.127651 0.19107,0.191475 0.19106,0.191476 0.25476,0.191475 0.19106,0.191476 0.19107,0.191475 0.19106,0.191476 0.25476,0.191476 0.19106,0.191475 0.19107,0.191476 0.19106,0.191475 0.19107,0.255301 0.25475,0.191476 0.19107,0.191475 0.19106,0.191476 0.19107,0.255301 0.25475,0.191475 0.19107,0.191476 0.19106,0.2553 0.19107,0.191476 0.19106,0.255301 0.25476,0.191475 0.19106,0.255301 0.19107,0.191476 0.19106,0.255301 0.25476,0.2553 0.19106,0.191476 0.19107,0.255301 0.19106,0.2553 0.19107,0.191476 0.25475,0.255301 0.19107,0.255301 0.19106,0.2553 0.19107,0.191476 0.25475,0.255301 0.19107,0.2553 0.19106,0.255301 0.19107,0.255301 0.19106,0.255301 0.25476,0.2553 0.19106,0.255301 0.19107,0.255301 0.19106,0.191476 0.25476,0.2553 0.19106,0.255301 0.19107,0.255301 0.19106,0.255301 0.25476,0.319126 0.19106,0.2553 0.19107,0.255301 0.19106,0.255301 0.19107,0.255301 0.25475,0.2553 0.19107,0.255301 0.19106,0.255301 0.19107,0.255301 0.25475,0.255301 0.19107,0.2553 0.19106,0.319126 0.19107,0.255301 0.19106,0.255301 0.25476,0.255301 0.19106,0.2553 0.19107,0.255301 0.19106,0.319126 0.25476,0.255301 0.19106,0.255301 0.19107,0.2553 0.19106,0.255301 0.19107,0.255301 0.25475,0.319126 0.19107,0.255301 0.19106,0.2553 0.19107,0.255301 0.25475,0.255301 0.19107,0.319126 0.19106,0.255301 0.19107,0.2553 0.25475,0.255301 0.19107,0.255301 0.19106,0.255301 0.19107,0.319126 0.19106,0.255301 0.25476,0.2553 0.19106,0.255301 0.19107,0.255301 0.19106,0.255301 0.25476,0.319126 0.19106,0.2553 0.19107,0.255301 0.19106,0.255301 0.19107,0.255301 0.25475,0.2553 0.19107,0.255301 0.19106,0.255301 0.19107,0.255301 0.25475,0.319126 0.19107,0.2553 0.19106,0.255301 0.19107,0.255301 0.19106,0.255301 0.25476,0.255301 0.19106,0.2553 0.19107,0.255301 0.19106,0.255301 0.25476,0.255301 0.19106,0.2553 0.19107,0.255301 0.19106,0.255301 0.19107,0.255304 0.25475,0.2553 0.19107,0.2553 0.19106,0.2553 0.19107,0.2553 0.25475,0.19148 0.19107,0.2553 0.19106,0.2553 0.19107,0.2553 0.25475,0.2553 0.19107,0.2553 0.19106,0.2553 0.19107,0.19148 0.19106,0.2553 0.25476,0.2553 0.19106,0.2553 0.19107,0.19147 0.19106,0.2553 0.25476,0.2553 0.19106,0.25531 0.19107,0.19147 0.19106,0.2553 0.19107,0.2553 0.25475,0.19148 0.19107,0.2553 0.19106,0.2553 0.19107,0.19148 0.25475,0.2553 0.19107,0.19147 0.19106,0.2553 0.19107,0.2553 0.19106,0.19148 0.25476,0.2553 0.19106,0.19148 0.19107,0.2553 0.19106,0.19147 0.25476,0.2553 0.19106,0.19148 0.19107,0.19147 0.19106,0.2553 0.25476,0.19148 0.19106,0.2553 0.19107,0.19148 0.19106,0.19147 0.19107,0.2553 0.25475,0.19148 0.19107,0.19147 0.19106,0.2553 0.19107,0.19148 0.25475,0.19148 0.19107,0.19147 0.19106,0.2553 0.19107,0.19148 0.19106,0.19147 0.25476,0.19148 0.19106,0.19147 0.19107,0.19148 0.19106,0.19148 0.25476,0.2553 0.19106,0.19147 0.19107,0.19148 0.19106,0.19147 0.19107,0.19148 0.25475,0.19147 0.19107,0.19148 0.19106,0.19148 0.19107,0.19147 0.25475,0.19148 0.19107,0.19147 0.19106,0.19148 0.19107,0.19147 0.19106,0.19148 0.25476,0.12765 0.19106,0.19147 0.19107,0.19148 0.19106,0.19148 0.25476,0.19147 0.19106,0.19148 0.19107,0.12765 0.19106,0.19147 0.25476,0.19148 0.19106,0.19147 0.19107,0.12765 0.19106,0.19148 0.19107,0.19148 0.25475,0.19147 0.19107,0.12765 0.19106,0.19148 0.19107,0.12765 0.25475,0.19147 0.19107,0.19148 0.19106,0.12765 0.19107,0.19147 0.19106,0.12766 0.25476,0.19147 0.19106,0.19148 0.19107,0.12765 0.19106,0.19147 0.25476,0.12765 0.19106,0.12765 0.19107,0.19148 0.19106,0.12765 0.19107,0.19147 0.25475,0.12765 0.19107,0.19148 0.19106,0.12765 0.19107,0.12765 0.25475,0.19148 0.19107,0.12765 0.19106,0.12765 0.19107,0.19147 0.19106,0.12765 0.25476,0.12765 0.19106,0.19148 0.19107,0.12765 0.19106,0.12765 0.25476,0.12765 0.19106,0.12765 0.19107,0.19148 0.19106,0.12765 0.25476,0.12765 0.19106,0.12765 0.19107,0.12765 0.19106,0.12765 0.19107,0.19147 0.25475,0.12765 0.19107,0.12765 0.19106,0.12766 0.19107,0.12765 0.25475,0.12765 0.19107,0.12765 0.19106,0.12765 0.19107,0.12765 0.19106,0.12765 0.25476,0.12765 0.19106,0.12765 0.19107,0.12765 0.19106,0.12765 0.25476,0.12765 0.19106,0.12765 0.19107,0.12765 0.19106,0.12765 0.19107,0.0638 0.25475,0.12765 0.19107,0.12765 0.19106,0.12765 0.19107,0.12765 0.25475,0.12765 0.19107,0.12765 0.19106,0.0638 0.19107,0.12765 0.25475,0.12765 0.19107,0.12765 0.19106,0.0638 0.19107,0.12765 0.19106,0.12765 0.25475,0.12765 0.19107,0.0638 0.19107,0.12765 0.19106,0.12765 0.25475,0.0638 0.19107,0.12765 0.19107,0.12765 0.19106,0.0638 0.19107,0.12765 0.25475,0.12765 0.19107,0.0638 0.19106,0.12765 0.19107,0.0638 0.25475,0.12765 0.19107,0.12765 0.19106,0.0638 0.19107,0.12765 0.19106,0.0638 0.25475,0.12765 0.19107,0.0638 0.19107,0.12765 0.19106,0.0638 0.25475,0.12765 0.19107,0.0638 0.19107,0.12765 0.19106,0.0638 0.19107,0.12765 0.25475,0.0638 0.19107,0.0638 0.19106,0.12765 0.19107,0.0638 0.25475,0.12765 0.19106,0.0638 0.19107,0.0638 0.19107,0.12765 0.25475,0.0638 0.19106,0.12765 0.19107,0.0638 0.19107,0.0638 0.19106,0.12765 0.25475,0.0638 0.19107,0.0638 0.19107,0.0638 0.19106,0.12765 0.25475,0.0638 0.19107,0.0638 0.19106,0.12765 0.19107,0.0638 0.19107,0.0638 0.25475,0.0638 0.19106,0.12765 0.19107,0.0638 0.19107,0.0638 0.25475,0.0638 0.19106,0.0638 0.19107,0.12765 0.19107,0.0638 0.19106,0.0638 0.25475,0.0638 0.19107,0.0638 0.19106,0.0638 0.19107,0.12765 0.25475,0.0638 0.19107,0.0638 0.19106,0.0638 0.19107,0.0638 0.19107,0.0638 0.25475,0.0638 0.19106,0.0638 0.19107,0.0638 0.19107,0.12765 0.25475,0.0638 0.19106,0.0638 0.19107,0.0638 0.19106,0.0638 0.25476,0.0638 0.19106,0.0638 0.19107,0.0638 0.19106,0.0638 0.19107,0.0638 0.25475,0.0638 0.19107,0.0638 0.19106,0.0638 0.19107,0.0638 0.25475,0.0638 0.19107,0.0638 0.19106,0.0638 0.19107,0.0638 0.19107,0.0638 0.25475,0.0638 h 0.19106 l 0.19107,0.0638 0.19106,0.0638 0.25476,0.0638 0.19106,0.0638 0.19107,0.0638 0.19106,0.0638 0.19107,0.0638 0.25475,0.0638 0.19107,0.0638 h 0.19106 l 0.19107,0.0638 0.25475,0.0638 0.19107,0.0638 0.19106,0.0638 0.19107,0.0638 0.25475,0.0638 h 0.19107 l 0.19106,0.0638 0.19107,0.0638 0.19106,0.0638 0.25476,0.0638 h 0.19106 l 0.19107,0.0638 0.19106,0.0638 0.25476,0.0638 0.19106,0.0638 h 0.19107 l 0.19106,0.0638 0.19107,0.0638 0.25475,0.0638 h 0.19107 l 0.19106,0.0638 0.19107,0.0638 0.25475,0.0638 h 0.19107 l 0.19106,0.0638 0.19107,0.0638 0.19106,0.0638 h 0.25476 l 0.19106,0.0638 0.19107,0.0638 h 0.19106 l 0.25476,0.0638 0.19106,0.0638 h 0.19107 l 0.19106,0.0638 0.19107,0.0638 0.25475,0.0638 h 0.19107 l 0.19106,0.0638 h 0.19107 l 0.25475,0.0638 0.19107,0.0638 h 0.19106 l 0.19107,0.0638 0.25475,0.0638 h 0.19107 l 0.19106,0.0638 0.19107,0.0638 h 0.19106 l 0.25476,0.0638 h 0.19106 l 0.19107,0.0638 0.19106,0.0638 h 0.25476 l 0.19106,0.0638 h 0.19107 l 0.19106,0.0638 0.19107,0.0638 h 0.25475 l 0.19107,0.0638 h 0.19106 l 0.19107,0.0638 h 0.25475 l 0.19107,0.0638 h 0.19106 l 0.19107,0.0638 0.19106,0.0638 h 0.25476 l 0.19106,0.0638 h 0.19107 l 0.19106,0.0638 h 0.25476 l 0.19106,0.0638 h 0.19107 l 0.19106,0.0638 h 0.19107 l 0.25475,0.0638 h 0.19107 l 0.19106,0.0638 h 0.19107 l 0.25475,0.0638 h 0.19107 l 0.19106,0.0638 h 0.19107 l 0.25475,0.0638 h 0.19107 l 0.19106,0.0638 h 0.19107 l 0.19106,0.0638 h 0.25476 l 0.19106,0.0638 h 0.19107 0.19106 l 0.25476,0.0638 h 0.19106 l 0.19107,0.0638 h 0.19106 l 0.19107,0.0638 h 0.25475 0.19107 l 0.19106,0.0638 h 0.19107 l 0.25475,0.0638 h 0.19107 l 0.19106,0.0638 h 0.19107 0.19106 l 0.25476,0.0638 h 0.19106 l 0.19107,0.0638 h 0.19106 0.25476 l 0.19106,0.0638 h 0.19107 l 0.19106,0.0638 h 0.25476 0.19106 l 0.19107,0.0638 h 0.19106 0.19107 l 0.25475,0.0638 h 0.19107 l 0.19106,0.0638 h 0.19107 0.25475 l 0.19107,0.0638 h 0.19106 0.19107 l 0.19106,0.0638 h 0.25476 0.19106 l 0.19107,0.0638 h 0.19106 0.25476 l 0.19106,0.0638 h 0.19107 0.19106 l 0.19107,0.0638 h 0.25475 0.19107 l 0.19106,0.0638 h 0.19107 0.25475 l 0.19107,0.0638 h 0.19106 0.19107 l 0.19106,0.0638 h 0.25476 0.19106 l 0.19107,0.0638 h 0.19106 0.25476 0.19106 l 0.19107,0.0638 h 0.19106 0.25476 l 0.19106,0.0638 h 0.19107 0.19106 0.19107 l 0.25475,0.0638 h 0.19107 0.19106 l 0.19107,0.0638 h 0.25475 0.19107 0.19106 l 0.19107,0.0638 h 0.19106 0.25476 0.19106 l 0.19107,0.0638 h 0.19106 0.25476 0.19106 l 0.19107,0.0638 h 0.19106 0.19107 0.25475 l 0.19107,0.0638 h 0.19106 0.19107 0.25475 l 0.19107,0.0638 h 0.19106 0.19107 0.25475 l 0.19107,0.0638 h 0.19106 0.19107 0.19106 l 0.25476,0.0638 h 0.19106 0.19107 0.19106 0.25476 l 0.19106,0.0638 h 0.19107 0.19106 0.19107 0.25475 l 0.19107,0.0638 h 0.19106 0.19107 0.25475 l 0.19107,0.0638 h 0.19106 0.19107 0.19106 0.25476 l 0.19106,0.0638 h 0.19107 0.19106 0.25476 0.19106 0.19107 l 0.19106,0.0638 h 0.19107 0.25475 0.19107 0.19106 l 0.19107,0.0638 h 0.25475 0.19107 0.19106 0.19107 0.25475 l 0.19107,0.0638 h 0.19106 0.19107 0.19106"
       id="path2961"
       transform="matrix(0.75000002,0,0,-0.75000002,176.93191,432.7435)" /><path
       style="fill:none;stroke:#0000ff;stroke-width:1.65768px;stroke-linecap:round;stroke-linejoin:round;stroke-miterlimit:10;stroke-dasharray:none;stroke-opacity:1"
       clip-path="url(#clipEmfPath3-41)"
       d="m 348.56686,142.394 h 0.25476 l 0.19106,0.0638 h 0.19107 0.19106 0.25476 0.19106 0.19107 l 0.19106,0.0638 h 0.19107 0.25475 0.19107 0.19106 0.19107 0.25475 l 0.19107,0.0638 h 0.19106 0.19107 0.19106 0.25476 0.19106 l 0.19107,0.0638 h 0.19106 0.25475 0.19107 0.19107 0.19106 0.19107 l 0.25475,0.0638 h 0.19107 0.19106 0.19107 0.25475 0.19107 0.19106 0.19107 l 0.25475,0.0638 h 0.19106 0.19107 0.19107 0.19106 0.25475 0.19107 l 0.19107,0.0638 h 0.19106 0.25475 0.19107 0.19107 0.19106 0.19107 0.25475 0.19107 l 0.19106,0.0638 h 0.19107 0.25475 0.19106 0.19107 0.19107 0.19106 0.25475 l 0.19107,0.0638 h 0.19107 0.19106 0.25475 0.19107 0.19107 0.19106 0.25475 0.19107 l 0.19106,0.0638 h 0.19107 0.19107 0.25475 0.19106 0.19107 0.19107 0.25475 0.19106 0.19107 l 0.19107,0.0638 h 0.19106 0.25475 0.19107 0.19106 0.19107 0.25475 0.19107 0.19106 0.19107 0.19107 l 0.25475,0.0638 h 0.19106 0.19107 0.19107 0.25475 0.19106 0.19107 0.19106 0.19107"
       id="path2963"
       transform="matrix(0.75000002,0,0,-0.75000002,176.93191,432.7435)" /></g></svg>
