<?xml version="1.0" encoding="UTF-8" standalone="no"?>
<svg
   xmlns:dc="http://purl.org/dc/elements/1.1/"
   xmlns:cc="http://creativecommons.org/ns#"
   xmlns:rdf="http://www.w3.org/1999/02/22-rdf-syntax-ns#"
   xmlns:svg="http://www.w3.org/2000/svg"
   xmlns="http://www.w3.org/2000/svg"
   xmlns:xlink="http://www.w3.org/1999/xlink"
   xmlns:sodipodi="http://sodipodi.sourceforge.net/DTD/sodipodi-0.dtd"
   xmlns:inkscape="http://www.inkscape.org/namespaces/inkscape"
   width="210mm"
   height="297mm"
   viewBox="0 0 210 297"
   version="1.1"
   id="svg2481"
   inkscape:version="1.0.1 (3bc2e813f5, 2020-09-07)"
   sodipodi:docname="fluxograma.svg">
  <defs
     id="defs2475">
    <rect
       x="26.192414"
       y="247.49158"
       width="65.213765"
       height="35.814117"
       id="rect4869" />
    <inkscape:path-effect
       effect="powerstroke"
       id="path-effect3620"
       is_visible="true"
       lpeversion="1"
       offset_points="6.9338267,7.5169553"
       sort_points="true"
       interpolator_type="CentripetalCatmullRom"
       interpolator_beta="0.75"
       start_linecap_type="round"
       linejoin_type="spiro"
       miter_limit="4"
       scale_width="1"
       end_linecap_type="round" />
    <inkscape:path-effect
       effect="simplify"
       id="path-effect3618"
       is_visible="true"
       lpeversion="1"
       steps="1"
       threshold="0.0032025118"
       smooth_angles="0"
       helper_size="0"
       simplify_individual_paths="false"
       simplify_just_coalesce="false"
       step="1" />
    <inkscape:path-effect
       effect="powerstroke"
       id="path-effect3613"
       is_visible="true"
       lpeversion="1"
       offset_points="1,0.5"
       sort_points="true"
       interpolator_type="CentripetalCatmullRom"
       interpolator_beta="0.75"
       start_linecap_type="round"
       linejoin_type="spiro"
       miter_limit="4"
       scale_width="1"
       end_linecap_type="round" />
    <inkscape:path-effect
       effect="simplify"
       id="path-effect3611"
       is_visible="true"
       lpeversion="1"
       steps="1"
       threshold="0.0032025118"
       smooth_angles="0"
       helper_size="0"
       simplify_individual_paths="false"
       simplify_just_coalesce="false"
       step="1" />
    <marker
       style="overflow:visible"
       id="Arrow1Lstart"
       refX="0.0"
       refY="0.0"
       orient="auto"
       inkscape:stockid="Arrow1Lstart"
       inkscape:isstock="true">
      <path
         transform="scale(0.8) translate(12.5,0)"
         style="fill-rule:evenodd;stroke:#000000;stroke-width:1.0pt"
         d="M 0.0,0.0 L 5.0,-5.0 L -12.5,0.0 L 5.0,5.0 L 0.0,0.0 z "
         id="path3340" />
    </marker>
    <symbol
       id="CommunicationLink">
      <title
         id="title4002">Communication Link</title>
      <desc
         id="desc4004">Transcommunication link.</desc>
      <path
         d="M 17.197917,6.6145833 V 22.489583 l 5.291666,-5.291666 v 15.875"
         style="fill:none;stroke-width:0.529167"
         id="path4006" />
    </symbol>
    <symbol
       id="Decision">
      <title
         id="title3895">Decision</title>
      <desc
         id="desc3897">A decision or switching type operation.</desc>
      <path
         d="m 3.96875,19.84375 15.875,-10.5833333 15.875,10.5833333 -15.875,10.583333 z"
         style="stroke-width:0.529167"
         id="path3899" />
    </symbol>
    <symbol
       id="Process">
      <title
         id="title3853">Process</title>
      <desc
         id="desc3855">Any processing function.</desc>
      <rect
         x="3.96875"
         y="9.260417"
         width="31.75"
         height="21.166666"
         style="stroke-width:0.529167"
         id="rect3857" />
    </symbol>
    <symbol
       id="Connector">
      <title
         id="title3981">Connector</title>
      <desc
         id="desc3983">Exit to or entry from another part of chart.</desc>
      <circle
         cx="19.84375"
         cy="19.84375"
         r="5.2916665"
         style="stroke-width:0.529167"
         id="circle3985" />
    </symbol>
    <symbol
       id="Core">
      <title
         id="title4023">Core</title>
      <desc
         id="desc4025">Core memory. (ISO)</desc>
      <rect
         x="9.260417"
         y="9.260417"
         width="21.166666"
         height="21.166666"
         style="stroke-width:0.529167"
         id="rect4027" />
      <path
         d="M 9.2604167,13.229167 H 30.427083"
         style="stroke-width:0.529167"
         id="path4029" />
      <path
         d="M 13.229167,9.2604167 V 30.427083"
         style="stroke-width:0.529167"
         id="path4031" />
    </symbol>
  </defs>
  <sodipodi:namedview
     id="base"
     pagecolor="#ffffff"
     bordercolor="#666666"
     borderopacity="1.0"
     inkscape:pageopacity="0.0"
     inkscape:pageshadow="2"
     inkscape:zoom="0.35"
     inkscape:cx="691.6558"
     inkscape:cy="540.35836"
     inkscape:document-units="mm"
     inkscape:current-layer="layer1"
     inkscape:document-rotation="0"
     showgrid="false"
     inkscape:snap-global="false"
     inkscape:window-width="1366"
     inkscape:window-height="738"
     inkscape:window-x="0"
     inkscape:window-y="0"
     inkscape:window-maximized="0" />
  <metadata
     id="metadata2478">
    <rdf:RDF>
      <cc:Work
         rdf:about="">
        <dc:format>image/svg+xml</dc:format>
        <dc:type
           rdf:resource="http://purl.org/dc/dcmitype/StillImage" />
        <dc:title></dc:title>
      </cc:Work>
    </rdf:RDF>
  </metadata>
  <g
     inkscape:label="Layer 1"
     inkscape:groupmode="layer"
     id="layer1">
    <rect
       id="rect2483"
       width="83.154762"
       height="39.309525"
       x="60.254776"
       y="47.976112"
       style="fill:#501616;fill-opacity:0.718876;stroke:#000000;stroke-width:1.822;stroke-linejoin:round;stroke-miterlimit:4;stroke-dasharray:none;stroke-opacity:1" />
    <text
       xml:space="preserve"
       style="font-style:normal;font-weight:normal;font-size:10.5833px;line-height:1.25;font-family:sans-serif;fill:#000000;fill-opacity:1;stroke:none;stroke-width:0.264583"
       x="73.327377"
       y="40.821426"
       id="text2487"><tspan
         sodipodi:role="line"
         id="tspan2485"
         x="73.327377"
         y="40.821426"
         style="stroke-width:0.264583" /></text>
    <text
       xml:space="preserve"
       style="font-style:normal;font-weight:normal;font-size:10.6714px;line-height:1.25;font-family:sans-serif;fill:#ffffff;fill-opacity:1;stroke:none;stroke-width:1.04457;"
       x="93.433388"
       y="44.743504"
       id="text2491"
       transform="scale(0.72052278,1.3878812)"><tspan
         sodipodi:role="line"
         id="tspan2489"
         x="93.433388"
         y="44.743504"
         style="font-size:10.6714px;stroke-width:1.04457;fill:#ffffff;">apresentamos as</tspan><tspan
         sodipodi:role="line"
         x="93.433388"
         y="58.082756"
         style="font-size:10.6714px;stroke-width:1.04457;fill:#ffffff;"
         id="tspan2493"> condições iniciais</tspan></text>
    <use
       xlink:href="#Decision"
       style="fill:#501616;stroke:#000000"
       id="use4749"
       x="0"
       y="0"
       width="100%"
       height="100%"
       transform="matrix(2.5871726,0,0,2.4439915,52.324734,74.912452)" />
    <text
       xml:space="preserve"
       style="font-style:normal;font-weight:normal;font-size:8.60187px;line-height:1.25;font-family:sans-serif;fill:#ffffff;fill-opacity:1;stroke:none;stroke-width:0.403212;"
       x="107.34274"
       y="95.597931"
       id="text4767"
       transform="scale(0.75433958,1.3256629)"><tspan
         sodipodi:role="line"
         id="tspan4765"
         x="107.34274"
         y="95.597931"
         style="font-size:8.60187px;stroke-width:0.403212;fill:#ffffff;">Tempo = max</tspan></text>
    <use
       xlink:href="#Process"
       style="fill:#501616;stroke:#000000"
       id="use4805"
       x="0"
       y="0"
       width="100%"
       height="100%"
       transform="matrix(2.0786714,0,0,1.8098852,60.947903,153.58841)" />
    <text
       xml:space="preserve"
       style="font-style:normal;font-weight:normal;font-size:6.84366px;line-height:1.25;font-family:sans-serif;fill:#ffffff;fill-opacity:1;stroke:none;stroke-width:0.320796"
       x="69.240952"
       y="188.50174"
       id="text4823"
       transform="scale(1.0630416,0.94069695)"><tspan
         sodipodi:role="line"
         id="tspan4821"
         x="69.240952"
         y="188.50174"
         style="font-size:6.84366px;fill:#ffffff;stroke-width:0.320796">Calculo de </tspan><tspan
         sodipodi:role="line"
         x="69.240952"
         y="197.05632"
         style="font-size:6.84366px;fill:#ffffff;stroke-width:0.320796"
         id="tspan4825">k1, k2, k3 e k4</tspan><tspan
         sodipodi:role="line"
         x="69.240952"
         y="205.61089"
         style="font-size:6.84366px;fill:#ffffff;stroke-width:0.320796"
         id="tspan4827">para sigma 22 </tspan><tspan
         sodipodi:role="line"
         x="69.240952"
         y="214.16547"
         style="font-size:6.84366px;fill:#ffffff;stroke-width:0.320796"
         id="tspan4833">e sigma 12</tspan></text>
    <text
       xml:space="preserve"
       style="font-style:normal;font-weight:normal;font-size:10.5833px;line-height:1.25;font-family:sans-serif;fill:#501616;fill-opacity:1;stroke:none;stroke-width:0.264583;"
       x="56.357235"
       y="156.81909"
       id="text4831"><tspan
         sodipodi:role="line"
         id="tspan4829"
         x="56.357235"
         y="156.81909"
         style="stroke-width:0.264583;fill:#501616;"> </tspan></text>
    <text
       xml:space="preserve"
       id="text4867"
       style="fill:black;fill-opacity:1;line-height:1.25;stroke:none;font-family:sans-serif;font-style:normal;font-weight:normal;font-size:10.58333333px;white-space:pre;shape-inside:url(#rect4869);" />
    <use
       xlink:href="#Process"
       style="fill:#a02c2c;stroke:#000000"
       id="use4885"
       x="0"
       y="0"
       width="100%"
       height="100%"
       transform="matrix(2.2270624,0,0,2.0324716,57.722174,222.40195)" />
    <text
       xml:space="preserve"
       style="font-style:normal;font-weight:normal;font-size:7.21919px;line-height:1.25;font-family:sans-serif;text-align:center;text-anchor:middle;fill:#ffffff;fill-opacity:1;stroke:none;stroke-width:0.584078;"
       x="141.45078"
       y="182.91676"
       id="text4899"
       transform="scale(0.71524644,1.3981195)"><tspan
         sodipodi:role="line"
         x="141.45078"
         y="182.91676"
         style="font-size:7.21919px;text-align:center;text-anchor:middle;fill:#ffffff;stroke-width:0.584078;"
         id="tspan4901">calculo e armazenamneto</tspan><tspan
         sodipodi:role="line"
         x="141.45078"
         y="191.94075"
         style="font-size:7.21919px;text-align:center;text-anchor:middle;fill:#ffffff;stroke-width:0.584078;"
         id="tspan4903"> de sigma22 e sigma 12</tspan></text>
    <use
       xlink:href="#Connector"
       style="fill:#501616;stroke:#000000"
       id="use5157"
       x="0"
       y="0"
       width="100%"
       height="100%"
       transform="matrix(5.480929,0,0,3.3676239,-8.5984942,-46.793548)" />
    <text
       xml:space="preserve"
       style="font-style:normal;font-weight:normal;font-size:10.5833px;line-height:1.25;font-family:sans-serif;fill:#b3b3b3;fill-opacity:1;stroke:none;stroke-width:0.264583;"
       x="84.666664"
       y="21.922619"
       id="text5175"><tspan
         sodipodi:role="line"
         id="tspan5173"
         x="84.666664"
         y="21.922619"
         style="stroke-width:0.264583;fill:#b3b3b3;">Inicio</tspan></text>
    <path
       style="fill:#ff2a2a;fill-opacity:0.718876;stroke:#000000;stroke-width:1.822;stroke-linecap:butt;stroke-linejoin:round;stroke-miterlimit:4;stroke-dasharray:none;stroke-opacity:1"
       id="path5177"
       d="m 127.56598,19.208032 c 2.65946,0.867838 5.09614,2.241918 7.49369,3.657809 2.64543,1.566355 5.16162,3.307258 7.45607,5.352727 2.02787,2.165665 4.08476,4.327036 5.80107,6.753032 1.35924,2.056908 2.65703,4.138763 3.41981,6.493513 0.72262,3.015832 0.66187,6.155507 0.7031,9.237839 0.0181,3.046476 0.11342,6.105642 -0.57439,9.090631 -0.41942,2.171197 -1.73645,3.975576 -2.7371,5.895933 -0.91468,1.862026 -2.21874,3.479032 -3.27374,5.255905 -0.45224,0.816581 -1.11915,1.468292 -1.69358,2.197103 0,0 10.18275,-4.356399 10.18275,-4.356399 v 0 c 0.59184,-0.743746 1.19007,-1.486813 1.65236,-2.321782 1.11044,-1.738157 2.26618,-3.449942 3.20149,-5.293006 1.09315,-1.957972 2.24354,-3.936404 2.57144,-6.191297 0.46645,-3.049823 0.34123,-6.12498 0.30818,-9.20101 -0.028,-3.206496 0.10441,-6.509599 -0.68428,-9.636 -0.84931,-2.435889 -2.22492,-4.606751 -3.64938,-6.74651 -1.81937,-2.440773 -3.86865,-4.704289 -5.9329,-6.938915 -2.32318,-2.125403 -4.92077,-3.906928 -7.6356,-5.499044 -2.43564,-1.435916 -4.81357,-2.910728 -7.40358,-4.054894 0,0 -9.20541,6.304365 -9.20541,6.304365 z" />
    <path
       style="fill:#ff8080;fill-opacity:0.718876;stroke:#000000;stroke-width:1.822;stroke-linecap:butt;stroke-linejoin:round;stroke-miterlimit:4;stroke-dasharray:none;stroke-opacity:1"
       id="path5179"
       d="m 101.25278,89.139164 c -1.16239,2.835799 -2.360114,5.641322 -3.317321,8.555702 -0.574715,2.094697 -0.309446,1.058567 -0.798973,3.107564 0,0 9.841254,-4.724684 9.841254,-4.724684 v 0 c 0.48189,-1.982222 0.21211,-0.97939 0.81485,-3.007014 1.02114,-2.935488 2.19999,-5.804471 3.59065,-8.586806 0,0 -10.13046,4.655238 -10.13046,4.655238 z" />
    <path
       style="fill:#ff2a2a;fill-opacity:0.718876;stroke:#000000;stroke-width:1.822;stroke-linecap:butt;stroke-linejoin:round;stroke-miterlimit:4;stroke-dasharray:none;stroke-opacity:1"
       id="path5181"
       d="m 97.079848,153.60173 c -0.0155,0.35796 0.003,0.71909 -0.0465,1.07389 -0.10941,0.77715 -0.50939,2.10686 -0.67132,2.85108 -0.310188,1.42561 -0.450174,2.86843 -0.589969,4.31766 -0.236998,2.18837 -0.31718,3.93461 0.432716,6.01822 0.468753,1.18019 1.181123,2.13522 2.049403,3.04168 0,0 9.529752,-5.82003 9.529752,-5.82003 v 0 c -0.77498,-0.78869 -1.46897,-1.53814 -1.84111,-2.61756 -0.65301,-1.78993 -0.50879,-3.628 -0.35231,-5.50715 0.27342,-2.85667 1.03509,-5.59468 1.43675,-8.42626 0,0 -9.947442,5.06847 -9.947442,5.06847 z" />
    <path
       style="fill:#ff5555;fill-opacity:0.718876;stroke:#000000;stroke-width:1.822;stroke-linecap:butt;stroke-linejoin:round;stroke-miterlimit:4;stroke-dasharray:none;stroke-opacity:1"
       id="path5183"
       d="m 97.079853,214.83387 c 0.368581,3.91952 -0.01497,7.83933 -0.523007,11.72605 -0.382662,2.58826 -0.744543,5.1789 -0.90995,7.79105 -0.169529,1.66007 0.112168,3.30149 0.547138,4.89957 0.529759,1.80261 0.723669,3.67219 0.84121,5.53967 0.04903,0.27568 0.09807,0.55137 0.147098,0.82705 0,0 9.820958,-5.22179 9.820958,-5.22179 v 0 c -0.0415,-0.23818 -0.0831,-0.47636 -0.12459,-0.71453 -0.16849,-1.92064 -0.42157,-3.83839 -0.91669,-5.70556 -0.3248,-1.51967 -0.57094,-3.04275 -0.40774,-4.60254 0.12424,-2.53788 0.37489,-5.06592 0.65481,-7.59101 0.40729,-3.99695 0.65598,-8.00197 0.8182,-12.01643 0,0 -9.947437,5.06847 -9.947437,5.06847 z" />
    <path
       style="fill:#ff8080;fill-opacity:0.718876;stroke:#000000;stroke-width:1.822;stroke-linecap:butt;stroke-linejoin:round;stroke-miterlimit:4;stroke-dasharray:none;stroke-opacity:1"
       id="path5185"
       d="m 140.05894,125.73076 c 2.1271,0.82448 4.26424,1.62289 6.39396,2.44274 2.12131,1.08702 4.35454,1.98976 6.41894,3.18354 1.70909,0.89326 3.39484,1.8252 5.05907,2.8005 1.32496,0.73113 1.95638,2.05563 2.72625,3.28258 1.13711,2.09285 1.65417,4.42489 2.34644,6.68397 0.80872,2.57755 1.1473,5.25127 1.33397,7.93499 -0.0472,2.31825 0.31766,4.57329 0.82134,6.82411 0.10945,0.37319 0.21891,0.74638 0.32836,1.11957 0,0 9.68202,-5.27157 9.68202,-5.27157 v 0 c -0.0958,-0.35849 -0.19158,-0.71699 -0.28738,-1.07549 -0.49403,-2.19703 -0.75682,-4.40825 -0.78779,-6.66264 -0.23127,-2.74539 -0.68092,-5.46543 -1.49145,-8.10477 -0.64776,-2.38929 -1.2303,-4.81075 -2.34737,-7.03734 -0.86751,-1.38 -1.53372,-2.89982 -3.02245,-3.74585 -1.69195,-0.92266 -3.33732,-1.92208 -5.06993,-2.76989 -2.11046,-1.26508 -4.48174,-2.04942 -6.63216,-3.2507 -2.04232,-0.82159 -4.07678,-1.64678 -6.0925,-2.525 0,0 -9.37932,6.17125 -9.37932,6.17125 z" />
    <path
       style="fill:#ff8080;fill-opacity:0.718876;stroke:#000000;stroke-width:1.822;stroke-linecap:butt;stroke-linejoin:round;stroke-miterlimit:4;stroke-dasharray:none;stroke-opacity:1"
       id="path5187"
       d="m 68.2924,264.30406 c -2.607419,-0.32982 -5.233411,-0.46199 -7.857816,-0.56691 -3.209165,-0.11011 -6.42145,-0.0679 -9.632063,-0.0889 -2.447081,-0.0445 -4.895289,0.0396 -7.332954,-0.2051 -2.302351,-0.22601 -4.575569,-0.64714 -6.870689,-0.93049 -2.352863,-0.20798 -4.340291,-0.96575 -5.932725,-2.72139 -1.666934,-2.52057 -2.306156,-5.55885 -3.084285,-8.43934 -1.199956,-4.73994 -2.083246,-9.55196 -2.635877,-14.40897 -0.288838,-3.86074 -0.634428,-7.71742 -1.072967,-11.5643 -0.337017,-3.59495 -0.783216,-7.17454 -1.184253,-10.76244 -0.319741,-4.52982 -1.131183,-8.992 -1.542381,-13.51796 -0.487591,-5.54535 0.25603,-11.03778 0.942916,-16.52366 0.668035,-4.03775 1.097662,-8.09211 1.933044,-12.09938 0.838882,-3.44942 1.290088,-6.96033 1.812311,-10.46583 0.846782,-3.47344 1.708331,-6.94667 2.699405,-10.38389 0.998786,-3.10166 2.170822,-6.13181 3.297666,-9.18667 0.677201,-1.32724 1.032417,-2.80505 1.656347,-4.15161 0.100806,-0.21755 0.988351,-1.68861 1.087573,-1.85453 1.354867,-2.20891 3.106449,-4.1023 4.778301,-6.06405 0.661085,-0.70959 1.378344,-1.32912 2.165273,-1.89016 0.235119,-0.16763 0.955347,-0.6473 0.705083,-0.50326 -11.889489,6.84292 -11.343855,6.53509 -7.836295,4.63623 2.030492,-1.13793 4.262197,-1.72046 6.5419,-2.08547 2.296007,-0.2019 4.555,-0.62771 6.80747,-1.09943 2.056797,-0.4716 4.093691,-1.02423 6.143141,-1.52544 0.8965,-0.17588 1.784524,-0.38493 2.669066,-0.61227 0,0 8.806085,-6.75079 8.806085,-6.75079 v 0 c -0.888204,0.23904 -1.760551,0.54639 -2.677896,0.65792 -2.062573,0.45927 -4.09684,1.03788 -6.14471,1.55751 -2.238266,0.47189 -4.461023,1.05948 -6.759067,1.15228 -2.319374,0.29604 -4.626657,0.74497 -6.748078,1.772 -4.919351,2.46873 -10.19605,4.75204 -13.815306,8.98663 -1.696191,1.98568 -3.351411,4.00775 -4.703863,6.25032 -1.095774,1.95694 -1.829975,4.06858 -2.619932,6.16334 -1.080543,3.04005 -2.159441,6.07643 -3.090197,9.1675 -1.015741,3.48197 -2.013883,6.98554 -2.70163,10.54774 -0.511363,3.487 -1.042179,6.96219 -1.814056,10.40429 -0.777355,4.01043 -1.153755,8.07199 -1.760509,12.11107 -0.619801,5.52844 -1.153472,11.05957 -0.683458,16.62942 0.335926,4.57569 0.825001,9.13299 1.246677,13.70065 0.359641,3.58515 0.857191,7.15668 1.237456,10.74022 0.41227,3.84458 0.645635,7.70743 1.147474,11.54274 0.668952,4.89204 1.618627,9.72838 2.61925,14.56235 0.703664,3.09966 1.42681,6.28447 3.139818,9.00693 1.69861,1.99009 3.784142,3.09488 6.411265,3.37394 2.294814,0.25149 4.542409,0.74901 6.84089,0.9606 2.503612,0.2981 4.996066,0.30199 7.517413,0.21865 3.18838,-0.0135 6.376614,0.0153 9.564169,0.0912 2.530379,0.0807 5.073663,0.15716 7.57302,0.59404 0,0 9.157994,-6.4253 9.157994,-6.4253 z" />
    <use
       xlink:href="#Connector"
       style="fill:#a02c2c;stroke:#000000"
       id="use5201"
       x="0"
       y="0"
       width="100%"
       height="100%"
       transform="matrix(6.1846768,0,0,3.7285987,56.811515,104.79336)" />
    <text
       xml:space="preserve"
       style="font-style:normal;font-weight:normal;font-size:10.5833px;line-height:1.25;font-family:sans-serif;fill:#ffffff;fill-opacity:1;stroke:none;stroke-width:0.264583;"
       x="171.6012"
       y="178.40475"
       id="text5217"><tspan
         sodipodi:role="line"
         id="tspan5215"
         x="171.6012"
         y="178.40475"
         style="stroke-width:0.264583;fill:#ffffff;">fim</tspan></text>
  </g>
</svg>
