<?xml version="1.0" encoding="UTF-8" standalone="no"?>
<svg width="150.019mm" height="116.152mm"
 xmlns="http://www.w3.org/2000/svg" xmlns:xlink="http://www.w3.org/1999/xlink"  version="1.2" baseProfile="tiny">
<title>Qt Svg Document</title>
<desc>Generated with Qt</desc>
<defs>
</defs>
<g fill="none" stroke="black" stroke-width="1" fill-rule="evenodd" stroke-linecap="square" stroke-linejoin="bevel" >

<g fill="#ffffff" fill-opacity="0" stroke="none" transform="matrix(1,0,0,1,0,0)"
font-family="MS Shell Dlg 2" font-size="10.6667" font-weight="400" font-style="normal" 
>
<path vector-effect="non-scaling-stroke" fill-rule="evenodd" d="M7,8 L557,8 L557,433 L7,433 L7,8"/>
</g>

<g fill="none" stroke="none" transform="matrix(1,0,0,1,0,0)"
font-family="MS Shell Dlg 2" font-size="10.6667" font-weight="400" font-style="normal" 
>
<path vector-effect="non-scaling-stroke" fill-rule="evenodd" d="M7,8 L557,8 L557,433 L7,433 L7,8"/>
</g>

<g fill="none" stroke="#000000" stroke-opacity="1" stroke-width="1" stroke-linecap="square" stroke-linejoin="bevel" transform="matrix(1,0,0,1,0,0)"
font-family="MS Shell Dlg 2" font-size="10.6667" font-weight="400" font-style="normal" 
>
</g>

<g fill="#ffffff" fill-opacity="0" stroke="none" transform="matrix(1,0,0,1,0,0)"
font-family="MS Shell Dlg 2" font-size="10.6667" font-weight="400" font-style="normal" 
>
<path vector-effect="non-scaling-stroke" fill-rule="evenodd" d="M52,9 L555,9 L555,387 L52,387 L52,9"/>
</g>

<g fill="none" stroke="#000000" stroke-opacity="1" stroke-width="1" stroke-linecap="square" stroke-linejoin="bevel" transform="matrix(1,0,0,1,0,0)"
font-family="MS Shell Dlg 2" font-size="10.6667" font-weight="400" font-style="normal" 
>
</g>

<g fill="none" stroke="#000000" stroke-opacity="1" stroke-width="1" stroke-linecap="square" stroke-linejoin="bevel" transform="matrix(1,0,0,1,0,0)"
font-family="MS Shell Dlg 2" font-size="10.6667" font-weight="400" font-style="normal" 
>
</g>

<g fill="none" stroke="#000000" stroke-opacity="1" stroke-width="1" stroke-linecap="square" stroke-linejoin="bevel" transform="matrix(1,0,0,1,0,0)"
font-family="MS Shell Dlg 2" font-size="10.6667" font-weight="400" font-style="normal" 
>
</g>

<g fill="none" stroke="#000000" stroke-opacity="1" stroke-width="1" stroke-linecap="square" stroke-linejoin="bevel" transform="matrix(1,0,0,1,0,0)"
font-family="MS Shell Dlg 2" font-size="10.6667" font-weight="400" font-style="normal" 
>
</g>

<g fill="none" stroke="#0000ff" stroke-opacity="1" stroke-width="2" stroke-linecap="square" stroke-linejoin="miter" stroke-miterlimit="2" transform="matrix(1,0,0,1,0,0)"
font-family="MS Shell Dlg 2" font-size="10.6667" font-weight="400" font-style="normal" 
>
<polyline fill="none" vector-effect="non-scaling-stroke" points="52,46.8 52.6295,48.3467 53.2591,50.6107 53.8886,53.5741 54.5181,57.2168 55.1477,61.5158 55.7772,66.4462 56.4068,71.9806 57.0363,78.09 57.6658,84.743 58.2954,91.9068 58.9249,99.5469 59.5544,107.627 60.184,116.111 60.8135,124.959 61.4431,134.133 62.0726,143.592 62.7021,153.296 63.3317,163.203 63.9612,173.273 64.5907,183.463 65.2203,193.731 65.8498,204.038 66.4793,214.341 67.1089,224.6 67.7384,234.775 68.368,244.828 68.9975,254.721 69.627,264.416 70.2566,273.878 70.8861,283.072 71.5156,291.967 72.1452,300.53 72.7747,308.733 73.4043,316.547 74.0338,323.946 74.6633,330.907 75.2929,337.408 75.9224,343.429 76.5519,348.951 77.1815,353.961 77.811,358.444 78.4406,362.389 79.0701,365.788 79.6996,368.634 80.3292,370.923 80.9587,372.652 81.5882,373.822 82.2178,374.435 82.8473,374.495 83.4768,374.01 84.1064,372.988 84.7359,371.44 85.3655,369.377 85.995,366.816 86.6245,363.772 87.2541,360.263 87.8836,356.308 88.5131,351.929 89.1427,347.148 89.7722,341.989 90.4018,336.477 91.0313,330.638 91.6608,324.499 92.2904,318.088 92.9199,311.433 93.5494,304.564 94.179,297.51 94.8085,290.302 95.438,282.969 96.0676,275.541 96.6971,268.05 97.3267,260.526 97.9562,252.997 98.5857,245.495 99.2153,238.048 99.8448,230.685 100.474,223.434 101.104,216.321 101.733,209.374 102.363,202.616 102.992,196.073 103.622,189.768 104.252,183.721 104.881,177.955 105.511,172.488 106.14,167.337 106.77,162.52 107.399,158.05 108.029,153.941 108.658,150.206 109.288,146.853 109.917,143.891 110.547,141.327 111.176,139.166 111.806,137.412 112.436,136.066 113.065,135.129 113.695,134.599 114.324,134.473 114.954,134.747 115.583,135.415 116.213,136.469 116.842,137.9 117.472,139.697 118.101,141.851 118.731,144.346 119.36,147.17 119.99,150.307 120.62,153.74 121.249,157.454 121.879,161.429 122.508,165.647 123.138,170.088 123.767,174.732 124.397,179.559 125.026,184.546 125.656,189.673 126.285,194.917 126.915,200.256 127.544,205.669 128.174,211.133 128.804,216.626 129.433,222.126 130.063,227.611 130.692,233.06 131.322,238.452 131.951,243.767 132.581,248.984 133.21,254.084 133.84,259.049 134.469,263.862 135.099,268.504 135.728,272.959 136.358,277.214 136.987,281.252 137.617,285.062 138.247,288.631 138.876,291.948 139.506,295.003 140.135,297.788 140.765,300.294 141.394,302.516 142.024,304.448 142.653,306.086 143.283,307.427 143.912,308.471 144.542,309.216 145.171,309.663 145.801,309.814 146.431,309.673 147.06,309.243 147.69,308.53 148.319,307.54 148.949,306.281 149.578,304.76 150.208,302.987 150.837,300.973 151.467,298.727 152.096,296.262 152.726,293.59 153.355,290.724 153.985,287.678 154.615,284.466 155.244,281.103 155.874,277.603 156.503,273.983 157.133,270.258 157.762,266.444 158.392,262.556 159.021,258.612 159.651,254.628 160.28,250.619 160.91,246.602 161.539,242.592 162.169,238.605 162.798,234.657 163.428,230.763 164.058,226.936 164.687,223.193 165.317,219.545 165.946,216.006 166.576,212.59 167.205,209.307 167.835,206.169 168.464,203.186 169.094,200.369 169.723,197.726 170.353,195.265 170.982,192.994 171.612,190.92 172.242,189.048 172.871,187.382 173.501,185.928 174.13,184.688 174.76,183.664 175.389,182.858 176.019,182.27 176.648,181.899 177.278,181.745 177.907,181.805 178.537,182.076 179.166,182.556 179.796,183.238 180.426,184.118 181.055,185.191 181.685,186.449 182.314,187.886 182.944,189.492 183.573,191.261 184.203,193.183 184.832,195.248 185.462,197.447 186.091,199.77 186.721,202.205 187.35,204.741 187.98,207.369 188.61,210.075 189.239,212.849 189.869,215.678 190.498,218.551 191.128,221.456 191.757,224.382 192.387,227.316 193.016,230.247 193.646,233.163 194.275,236.053 194.905,238.907 195.534,241.712 196.164,244.46 196.793,247.139 197.423,249.74 198.053,252.255 198.682,254.673 199.312,256.987 199.941,259.189 200.571,261.272 201.2,263.229 201.83,265.054 202.459,266.741 203.089,268.285 203.718,269.683 204.348,270.93 204.977,272.024 205.607,272.961 206.237,273.741 206.866,274.363 207.496,274.825 208.125,275.127 208.755,275.272 209.384,275.26 210.014,275.092 210.643,274.773 211.273,274.304 211.902,273.69 212.532,272.935 213.161,272.043 213.791,271.02 214.421,269.871 215.05,268.602 215.68,267.221 216.309,265.733 216.939,264.146 217.568,262.467 218.198,260.705 218.827,258.866 219.457,256.96 220.086,254.995 220.716,252.978 221.345,250.919 221.975,248.826 222.605,246.708 223.234,244.574 223.864,242.431 224.493,240.289 225.123,238.156 225.752,236.041 226.382,233.951 227.011,231.894 227.641,229.878 228.27,227.91 228.9,225.998 229.529,224.148 230.159,222.367 230.788,220.661 231.418,219.035 232.048,217.496 232.677,216.048 233.307,214.695 233.936,213.442 234.566,212.293 235.195,211.25 235.825,210.316 236.454,209.495 237.084,208.787 237.713,208.194 238.343,207.716 238.972,207.355 239.602,207.111 240.232,206.982 240.861,206.968 241.491,207.067 242.12,207.278 242.75,207.598 243.379,208.026 244.009,208.557 244.638,209.188 245.268,209.916 245.897,210.737 246.527,211.647 247.156,212.639 247.786,213.711 248.416,214.856 249.045,216.069 249.675,217.344 250.304,218.676 250.934,220.059 251.563,221.486 252.193,222.952 252.822,224.45 253.452,225.974 254.081,227.518 254.711,229.075 255.34,230.639 255.97,232.204 256.599,233.764 257.229,235.312 257.859,236.843 258.488,238.351 259.118,239.83 259.747,241.275 260.377,242.68 261.006,244.041 261.636,245.352 262.265,246.61 262.895,247.809 263.524,248.947 264.154,250.018 264.783,251.021 265.413,251.951 266.043,252.806 266.672,253.584 267.302,254.282 267.931,254.898 268.561,255.433 269.19,255.883 269.82,256.249 270.449,256.53 271.079,256.725 271.708,256.837 272.338,256.864 272.967,256.808 273.597,256.67 274.227,256.452 274.856,256.156 275.486,255.783 276.115,255.337 276.745,254.819 277.374,254.233 278.004,253.581 278.633,252.868 279.263,252.097 279.892,251.271 280.522,250.395 281.151,249.473 281.781,248.508 282.411,247.505 283.04,246.469 283.67,245.403 284.299,244.313 284.929,243.204 285.558,242.079 286.188,240.943 286.817,239.801 287.447,238.658 288.076,237.517 288.706,236.385 289.335,235.263 289.965,234.158 290.594,233.074 291.224,232.013 291.854,230.98 292.483,229.98 293.113,229.014 293.742,228.087 294.372,227.202 295.001,226.362 295.631,225.57 296.26,224.827 296.89,224.137 297.519,223.501 298.149,222.921 298.778,222.4 299.408,221.937 300.038,221.534 300.667,221.193 301.297,220.913 301.926,220.696 302.556,220.54 303.185,220.446 303.815,220.414 304.444,220.442 305.074,220.531 305.703,220.678 306.333,220.884 306.962,221.145 307.592,221.46 308.222,221.828 308.851,222.246 309.481,222.712 310.11,223.224 310.74,223.779 311.369,224.374 311.999,225.007 312.628,225.674 313.258,226.373 313.887,227.1 314.517,227.852 315.146,228.627 315.776,229.419 316.406,230.227 317.035,231.047 317.665,231.875 318.294,232.708 318.924,233.544 319.553,234.377 320.183,235.206 320.812,236.027 321.442,236.837 322.071,237.632 322.701,238.411 323.33,239.169 323.96,239.905 324.589,240.616 325.219,241.299 325.849,241.951 326.478,242.572 327.108,243.158 327.737,243.708 328.367,244.22 328.996,244.692 329.626,245.124 330.255,245.514 330.885,245.861 331.514,246.164 332.144,246.422 332.773,246.635 333.403,246.804 334.033,246.927 334.662,247.004 335.292,247.037 335.921,247.025 336.551,246.969 337.18,246.87 337.81,246.729 338.439,246.546 339.069,246.324 339.698,246.063 340.328,245.765 340.957,245.431 341.587,245.064 342.217,244.665 342.846,244.236 343.476,243.779 344.105,243.297 344.735,242.791 345.364,242.264 345.994,241.718 346.623,241.155 347.253,240.579 347.882,239.991 348.512,239.394 349.141,238.79 349.771,238.182 350.401,237.572 351.03,236.962 351.66,236.356 352.289,235.755 352.919,235.162 353.548,234.579 354.178,234.007 354.807,233.45 355.437,232.909 356.066,232.386 356.696,231.883 357.325,231.402 357.955,230.944 358.584,230.51 359.214,230.103 359.844,229.724 360.473,229.372 361.103,229.051 361.732,228.76 362.362,228.5 362.991,228.273 363.621,228.077 364.25,227.915 364.88,227.785 365.509,227.689 366.139,227.625 366.768,227.595 367.398,227.597 368.028,227.631 368.657,227.697 369.287,227.794 369.916,227.922 370.546,228.078 371.175,228.263 371.805,228.476 372.434,228.714 373.064,228.977 373.693,229.264 374.323,229.573 374.952,229.903 375.582,230.252 376.212,230.618 376.841,231 377.471,231.396 378.1,231.804 378.73,232.223 379.359,232.651 379.989,233.086 380.618,233.527 381.248,233.97 381.877,234.416 382.507,234.861 383.136,235.304 383.766,235.744 384.395,236.179 385.025,236.606 385.655,237.026 386.284,237.435 386.914,237.832 387.543,238.217 388.173,238.588 388.802,238.943 389.432,239.281 390.061,239.601 390.691,239.902 391.32,240.184 391.95,240.444 392.579,240.684 393.209,240.901 393.839,241.095 394.468,241.266 395.098,241.414 395.727,241.537 396.357,241.637 396.986,241.712 397.616,241.763 398.245,241.791 398.875,241.794 399.504,241.773 400.134,241.73 400.763,241.664 401.393,241.575 402.023,241.465 402.652,241.334 403.282,241.183 403.911,241.012 404.541,240.824 405.17,240.617 405.8,240.395 406.429,240.157 407.059,239.905 407.688,239.64 408.318,239.363 408.947,239.076 409.577,238.78 410.207,238.475 410.836,238.164 411.466,237.847 412.095,237.526 412.725,237.202 413.354,236.877 413.984,236.552 414.613,236.228 415.243,235.906 415.872,235.587 416.502,235.274 417.131,234.966 417.761,234.666 418.39,234.374 419.02,234.091 419.65,233.818 420.279,233.556 420.909,233.307 421.538,233.07 422.168,232.847 422.797,232.639 423.427,232.445 424.056,232.267 424.686,232.105 425.315,231.96 425.945,231.831 426.574,231.72 427.204,231.626 427.834,231.55 428.463,231.491 429.093,231.45 429.722,231.427 430.352,231.421 430.981,231.433 431.611,231.461 432.24,231.506 432.87,231.567 433.499,231.645 434.129,231.737 434.758,231.845 435.388,231.967 436.018,232.102 436.647,232.25 437.277,232.41 437.906,232.581 438.536,232.763 439.165,232.955 439.795,233.156 440.424,233.364 441.054,233.579 441.683,233.801 442.313,234.027 442.942,234.258 443.572,234.492 444.202,234.728 444.831,234.965 445.461,235.203 446.09,235.44 446.72,235.675 447.349,235.908 447.979,236.138 448.608,236.364 449.238,236.584 449.867,236.799 450.497,237.007 451.126,237.208 451.756,237.401 452.385,237.585 453.015,237.76 453.645,237.925 454.274,238.079 454.904,238.223 455.533,238.355 456.163,238.476 456.792,238.584 457.422,238.681 458.051,238.764 458.681,238.836 459.31,238.894 459.94,238.939 460.569,238.972 461.199,238.992 461.829,238.998 462.458,238.993 463.088,238.974 463.717,238.944 464.347,238.901 464.976,238.847 465.606,238.782 466.235,238.706 466.865,238.619 467.494,238.522 468.124,238.416 468.753,238.3 469.383,238.177 470.013,238.045 470.642,237.907 471.272,237.762 471.901,237.611 472.531,237.454 473.16,237.293 473.79,237.129 474.419,236.961 475.049,236.79 475.678,236.618 476.308,236.445 476.937,236.271 477.567,236.098 478.196,235.926 478.826,235.755 479.456,235.587 480.085,235.421 480.715,235.259 481.344,235.102 481.974,234.949 482.603,234.801 483.233,234.659 483.862,234.523 484.492,234.394 485.121,234.272 485.751,234.158 486.38,234.051 487.01,233.953 487.64,233.863 488.269,233.782 488.899,233.709 489.528,233.646 490.158,233.593 490.787,233.548 491.417,233.513 492.046,233.487 492.676,233.471 493.305,233.464 493.935,233.466 494.564,233.478 495.194,233.498 495.824,233.528 496.453,233.566 497.083,233.612 497.712,233.666 498.342,233.728 498.971,233.797 499.601,233.873 500.23,233.956 500.86,234.045 501.489,234.14 502.119,234.24 502.748,234.345 503.378,234.455 504.008,234.568 504.637,234.685 505.267,234.805 505.896,234.927 506.526,235.051 507.155,235.177 507.785,235.303 508.414,235.43 509.044,235.557 509.673,235.683 510.303,235.808 510.932,235.931 511.562,236.052 512.191,236.171 512.821,236.287 513.451,236.399 514.08,236.508 514.71,236.613 515.339,236.713 515.969,236.808 516.598,236.898 517.228,236.983 517.857,237.062 518.487,237.135 519.116,237.202 519.746,237.263 520.375,237.317 521.005,237.364 521.635,237.405 522.264,237.439 522.894,237.466 523.523,237.486 524.153,237.499 524.782,237.506 525.412,237.505 526.041,237.498 526.671,237.485 527.3,237.465 527.93,237.438 528.559,237.406 529.189,237.367 529.819,237.323 530.448,237.274 531.078,237.219 531.707,237.159 532.337,237.095 532.966,237.027 533.596,236.954 534.225,236.878 534.855,236.799 535.484,236.717 536.114,236.632 536.743,236.545 537.373,236.456 538.003,236.365 538.632,236.274 539.262,236.182 539.891,236.089 540.521,235.996 541.15,235.904 541.78,235.813 542.409,235.722 543.039,235.634 543.668,235.546 544.298,235.461 544.927,235.379 545.557,235.299 546.186,235.222 546.816,235.148 547.446,235.077 548.075,235.011 548.705,234.948 549.334,234.889 549.964,234.835 550.593,234.785 551.223,234.74 551.852,234.7 552.482,234.664 553.111,234.633 553.741,234.608 554.37,234.587 555,234.571 " />
</g>

<g fill="none" stroke="#000000" stroke-opacity="1" stroke-width="1" stroke-linecap="square" stroke-linejoin="bevel" transform="matrix(1,0,0,1,0,0)"
font-family="MS Shell Dlg 2" font-size="10.6667" font-weight="400" font-style="normal" 
>
</g>

<g fill="none" stroke="#000000" stroke-opacity="1" stroke-width="1" stroke-linecap="square" stroke-linejoin="bevel" transform="matrix(1,0,0,1,0,0)"
font-family="MS Shell Dlg 2" font-size="10.6667" font-weight="400" font-style="normal" 
>
</g>

<g fill="none" stroke="#000000" stroke-opacity="1" stroke-width="1" stroke-linecap="square" stroke-linejoin="bevel" transform="matrix(1,0,0,1,0,0)"
font-family="MS Shell Dlg 2" font-size="10.6667" font-weight="400" font-style="normal" 
>
</g>

<g fill="none" stroke="#ff0000" stroke-opacity="1" stroke-dasharray="8,4" stroke-dashoffset="0" stroke-width="2" stroke-linecap="square" stroke-linejoin="miter" stroke-miterlimit="2" transform="matrix(1,0,0,1,0,0)"
font-family="MS Shell Dlg 2" font-size="10.6667" font-weight="400" font-style="normal" 
>
<polyline fill="none" vector-effect="non-scaling-stroke" points="52,46.8 57.0808,56.1084 62.1616,64.9584 67.2424,73.3725 72.3232,81.3722 77.404,88.9779 82.4848,96.209 87.5657,103.084 92.6465,109.62 97.7273,115.835 102.808,121.743 107.889,127.361 112.97,132.701 118.051,137.779 123.131,142.607 128.212,147.197 133.293,151.56 138.374,155.709 143.455,159.654 148.535,163.404 153.616,166.97 158.697,170.36 163.778,173.583 168.859,176.647 173.939,179.56 179.02,182.33 184.101,184.963 189.182,187.467 194.263,189.848 199.343,192.111 204.424,194.263 209.505,196.308 214.586,198.253 219.667,200.103 224.747,201.861 229.828,203.532 234.909,205.121 239.99,206.632 245.071,208.069 250.152,209.435 255.232,210.733 260.313,211.968 265.394,213.142 270.475,214.257 275.556,215.318 280.636,216.327 285.717,217.286 290.798,218.198 295.879,219.065 300.96,219.889 306.04,220.673 311.121,221.418 316.202,222.126 321.283,222.8 326.364,223.44 331.444,224.049 336.525,224.627 341.606,225.178 346.687,225.701 351.768,226.198 356.848,226.671 361.929,227.121 367.01,227.548 372.091,227.955 377.172,228.341 382.253,228.708 387.333,229.058 392.414,229.39 397.495,229.705 402.576,230.006 407.657,230.291 412.737,230.562 417.818,230.82 422.899,231.065 427.98,231.299 433.061,231.52 438.141,231.731 443.222,231.932 448.303,232.122 453.384,232.303 458.465,232.475 463.545,232.639 468.626,232.795 473.707,232.943 478.788,233.084 483.869,233.217 488.949,233.345 494.03,233.465 499.111,233.58 504.192,233.69 509.273,233.794 514.354,233.893 519.434,233.986 524.515,234.076 529.596,234.161 534.677,234.241 539.758,234.318 544.838,234.391 549.919,234.461 555,234.527 " />
</g>

<g fill="none" stroke="#000000" stroke-opacity="1" stroke-width="1" stroke-linecap="square" stroke-linejoin="bevel" transform="matrix(1,0,0,1,0,0)"
font-family="MS Shell Dlg 2" font-size="10.6667" font-weight="400" font-style="normal" 
>
</g>

<g fill="none" stroke="#000000" stroke-opacity="1" stroke-width="1" stroke-linecap="square" stroke-linejoin="bevel" transform="matrix(1,0,0,1,0,0)"
font-family="MS Shell Dlg 2" font-size="10.6667" font-weight="400" font-style="normal" 
>
</g>

<g fill="none" stroke="#000000" stroke-opacity="1" stroke-width="1" stroke-linecap="square" stroke-linejoin="bevel" transform="matrix(1,0,0,1,0,0)"
font-family="MS Shell Dlg 2" font-size="10.6667" font-weight="400" font-style="normal" 
>
<polyline fill="none" vector-effect="non-scaling-stroke" points="52,236 554,236 " />
</g>

<g fill="none" stroke="#000000" stroke-opacity="1" stroke-width="1" stroke-linecap="square" stroke-linejoin="bevel" transform="matrix(1,0,0,1,0,0)"
font-family="MS Shell Dlg 2" font-size="10.6667" font-weight="400" font-style="normal" 
>
</g>

<g fill="none" stroke="#000000" stroke-opacity="1" stroke-width="1" stroke-linecap="square" stroke-linejoin="bevel" transform="matrix(1,0,0,1,0,0)"
font-family="MS Shell Dlg 2" font-size="10.6667" font-weight="400" font-style="normal" 
>
</g>

<g fill="none" stroke="#000000" stroke-opacity="1" stroke-width="1" stroke-linecap="square" stroke-linejoin="bevel" transform="matrix(0,-1,1,0,7,386)"
font-family="MS Shell Dlg 2" font-size="9.53082" font-weight="400" font-style="normal" 
>
</g>

<g fill="none" stroke="#000000" stroke-opacity="1" stroke-width="1" stroke-linecap="square" stroke-linejoin="bevel" transform="matrix(0,-1,1,0,7,386)"
font-family="MS Shell Dlg 2" font-size="29.1755" font-weight="400" font-style="normal" 
>
<text fill="#000000" fill-opacity="1" stroke="none" xml:space="preserve" x="182.5" y="29" font-family="MS Shell Dlg 2" font-size="29.1755" font-weight="400" font-style="normal" 
 >c</text>
</g>

<g fill="none" stroke="#000000" stroke-opacity="1" stroke-width="1" stroke-linecap="square" stroke-linejoin="bevel" transform="matrix(0,-1,1,0,7,386)"
font-family="MS Shell Dlg 2" font-size="9.53082" font-weight="400" font-style="normal" 
>
</g>

<g fill="none" stroke="#000000" stroke-opacity="1" stroke-width="1" stroke-linecap="square" stroke-linejoin="bevel" transform="matrix(1,0,0,1,0,0)"
font-family="MS Shell Dlg 2" font-size="10.6667" font-weight="400" font-style="normal" 
>
</g>

<g fill="none" stroke="#000000" stroke-opacity="1" stroke-width="1" stroke-linecap="square" stroke-linejoin="bevel" transform="matrix(1,0,0,1,0,0)"
font-family="MS Shell Dlg 2" font-size="9.53082" font-weight="400" font-style="normal" 
>
<polyline fill="none" vector-effect="none" points="52,9 52,387 " />
</g>

<g fill="none" stroke="#000000" stroke-opacity="1" stroke-width="1" stroke-linecap="square" stroke-linejoin="bevel" transform="matrix(1,0,0,1,0,0)"
font-family="MS Shell Dlg 2" font-size="9.53082" font-weight="400" font-style="normal" 
>
</g>

<g fill="none" stroke="#000000" stroke-opacity="1" stroke-width="1" stroke-linecap="square" stroke-linejoin="bevel" transform="matrix(1,0,0,1,0,0)"
font-family="MS Shell Dlg 2" font-size="9.53082" font-weight="400" font-style="normal" 
>
</g>

<g fill="none" stroke="#000000" stroke-opacity="1" stroke-width="1" stroke-linecap="square" stroke-linejoin="bevel" transform="matrix(1,0,0,1,0,0)"
font-family="MS Shell Dlg 2" font-size="10.6667" font-weight="400" font-style="normal" 
>
</g>

<g fill="none" stroke="#000000" stroke-opacity="1" stroke-width="1" stroke-linecap="square" stroke-linejoin="bevel" transform="matrix(0,-1,1,0,565,386)"
font-family="MS Shell Dlg 2" font-size="9.53082" font-weight="400" font-style="normal" 
>
</g>

<g fill="none" stroke="#000000" stroke-opacity="1" stroke-width="1" stroke-linecap="square" stroke-linejoin="bevel" transform="matrix(0,-1,1,0,565,386)"
font-family="MS Shell Dlg 2" font-size="9.53082" font-weight="400" font-style="normal" 
>
</g>

<g fill="none" stroke="#000000" stroke-opacity="1" stroke-width="1" stroke-linecap="square" stroke-linejoin="bevel" transform="matrix(1,0,0,1,0,0)"
font-family="MS Shell Dlg 2" font-size="10.6667" font-weight="400" font-style="normal" 
>
</g>

<g fill="none" stroke="#000000" stroke-opacity="1" stroke-width="1" stroke-linecap="square" stroke-linejoin="bevel" transform="matrix(1,0,0,1,0,0)"
font-family="MS Shell Dlg 2" font-size="9.53082" font-weight="400" font-style="normal" 
>
<polyline fill="none" vector-effect="none" points="555,9 555,387 " />
</g>

<g fill="none" stroke="#000000" stroke-opacity="1" stroke-width="1" stroke-linecap="square" stroke-linejoin="bevel" transform="matrix(1,0,0,1,0,0)"
font-family="MS Shell Dlg 2" font-size="9.53082" font-weight="400" font-style="normal" 
>
</g>

<g fill="none" stroke="#000000" stroke-opacity="1" stroke-width="1" stroke-linecap="square" stroke-linejoin="bevel" transform="matrix(1,0,0,1,0,0)"
font-family="MS Shell Dlg 2" font-size="9.53082" font-weight="400" font-style="normal" 
>
</g>

<g fill="none" stroke="#000000" stroke-opacity="1" stroke-width="1" stroke-linecap="square" stroke-linejoin="bevel" transform="matrix(1,0,0,1,0,0)"
font-family="MS Shell Dlg 2" font-size="10.6667" font-weight="400" font-style="normal" 
>
</g>

<g fill="none" stroke="#000000" stroke-opacity="1" stroke-width="1" stroke-linecap="square" stroke-linejoin="bevel" transform="matrix(1,0,0,1,52,397)"
font-family="MS Shell Dlg 2" font-size="9.53082" font-weight="400" font-style="normal" 
>
</g>

<g fill="none" stroke="#000000" stroke-opacity="1" stroke-width="1" stroke-linecap="square" stroke-linejoin="bevel" transform="matrix(1,0,0,1,52,397)"
font-family="MS Shell Dlg 2" font-size="29.1755" font-weight="400" font-style="normal" 
>
<text fill="#000000" fill-opacity="1" stroke="none" xml:space="preserve" x="209.5" y="30" font-family="MS Shell Dlg 2" font-size="29.1755" font-weight="400" font-style="normal" 
 >Tempo</text>
</g>

<g fill="none" stroke="#000000" stroke-opacity="1" stroke-width="1" stroke-linecap="square" stroke-linejoin="bevel" transform="matrix(1,0,0,1,52,397)"
font-family="MS Shell Dlg 2" font-size="9.53082" font-weight="400" font-style="normal" 
>
</g>

<g fill="none" stroke="#000000" stroke-opacity="1" stroke-width="1" stroke-linecap="square" stroke-linejoin="bevel" transform="matrix(1,0,0,1,0,0)"
font-family="MS Shell Dlg 2" font-size="10.6667" font-weight="400" font-style="normal" 
>
</g>

<g fill="none" stroke="#000000" stroke-opacity="1" stroke-width="1" stroke-linecap="square" stroke-linejoin="bevel" transform="matrix(1,0,0,1,0,0)"
font-family="MS Shell Dlg 2" font-size="9.53082" font-weight="400" font-style="normal" 
>
<polyline fill="none" vector-effect="none" points="52,387 555,387 " />
</g>

<g fill="none" stroke="#000000" stroke-opacity="1" stroke-width="1" stroke-linecap="square" stroke-linejoin="bevel" transform="matrix(1,0,0,1,0,0)"
font-family="MS Shell Dlg 2" font-size="9.53082" font-weight="400" font-style="normal" 
>
</g>

<g fill="none" stroke="#000000" stroke-opacity="1" stroke-width="1" stroke-linecap="square" stroke-linejoin="bevel" transform="matrix(1,0,0,1,0,0)"
font-family="MS Shell Dlg 2" font-size="9.53082" font-weight="400" font-style="normal" 
>
</g>

<g fill="none" stroke="#000000" stroke-opacity="1" stroke-width="1" stroke-linecap="square" stroke-linejoin="bevel" transform="matrix(1,0,0,1,0,0)"
font-family="MS Shell Dlg 2" font-size="10.6667" font-weight="400" font-style="normal" 
>
</g>

<g fill="none" stroke="#000000" stroke-opacity="1" stroke-width="1" stroke-linecap="square" stroke-linejoin="bevel" transform="matrix(1,0,0,1,52,8)"
font-family="MS Shell Dlg 2" font-size="9.53082" font-weight="400" font-style="normal" 
>
</g>

<g fill="none" stroke="#000000" stroke-opacity="1" stroke-width="1" stroke-linecap="square" stroke-linejoin="bevel" transform="matrix(1,0,0,1,52,8)"
font-family="MS Shell Dlg 2" font-size="9.53082" font-weight="400" font-style="normal" 
>
</g>

<g fill="none" stroke="#000000" stroke-opacity="1" stroke-width="1" stroke-linecap="square" stroke-linejoin="bevel" transform="matrix(1,0,0,1,0,0)"
font-family="MS Shell Dlg 2" font-size="10.6667" font-weight="400" font-style="normal" 
>
</g>

<g fill="none" stroke="#000000" stroke-opacity="1" stroke-width="1" stroke-linecap="square" stroke-linejoin="bevel" transform="matrix(1,0,0,1,0,0)"
font-family="MS Shell Dlg 2" font-size="9.53082" font-weight="400" font-style="normal" 
>
<polyline fill="none" vector-effect="none" points="52,9 555,9 " />
</g>

<g fill="none" stroke="#000000" stroke-opacity="1" stroke-width="1" stroke-linecap="square" stroke-linejoin="bevel" transform="matrix(1,0,0,1,0,0)"
font-family="MS Shell Dlg 2" font-size="9.53082" font-weight="400" font-style="normal" 
>
</g>

<g fill="none" stroke="#000000" stroke-opacity="1" stroke-width="1" stroke-linecap="square" stroke-linejoin="bevel" transform="matrix(1,0,0,1,0,0)"
font-family="MS Shell Dlg 2" font-size="9.53082" font-weight="400" font-style="normal" 
>
</g>

<g fill="none" stroke="#000000" stroke-opacity="1" stroke-width="1" stroke-linecap="square" stroke-linejoin="bevel" transform="matrix(1,0,0,1,0,0)"
font-family="MS Shell Dlg 2" font-size="10.6667" font-weight="400" font-style="normal" 
>
</g>

<g fill="none" stroke="#000000" stroke-opacity="1" stroke-width="1" stroke-linecap="square" stroke-linejoin="bevel" transform="matrix(1,0,0,1,0,0)"
font-family="MS Shell Dlg 2" font-size="10.6667" font-weight="400" font-style="normal" 
>
</g>
</g>
</svg>
