<?xml version="1.0" encoding="UTF-8" standalone="no"?>
<svg
   xmlns:dc="http://purl.org/dc/elements/1.1/"
   xmlns:cc="http://creativecommons.org/ns#"
   xmlns:rdf="http://www.w3.org/1999/02/22-rdf-syntax-ns#"
   xmlns:svg="http://www.w3.org/2000/svg"
   xmlns="http://www.w3.org/2000/svg"
   xmlns:sodipodi="http://sodipodi.sourceforge.net/DTD/sodipodi-0.dtd"
   xmlns:inkscape="http://www.inkscape.org/namespaces/inkscape"
   version="1.1"
   id="svg10"
   xml:space="preserve"
   width="567.00092"
   height="438.99966"
   viewBox="0 0 567.00092 438.99966"
   sodipodi:docname="Graph2.svg"
   inkscape:version="1.0.1 (3bc2e813f5, 2020-09-07)"><metadata
     id="metadata16"><rdf:RDF><cc:Work
         rdf:about=""><dc:format>image/svg+xml</dc:format><dc:type
           rdf:resource="http://purl.org/dc/dcmitype/StillImage" /><dc:title></dc:title></cc:Work></rdf:RDF></metadata><defs
     id="defs14" /><sodipodi:namedview
     pagecolor="#ffffff"
     bordercolor="#666666"
     borderopacity="1"
     objecttolerance="10"
     gridtolerance="10"
     guidetolerance="10"
     inkscape:pageopacity="0"
     inkscape:pageshadow="2"
     inkscape:window-width="1366"
     inkscape:window-height="715"
     id="namedview12"
     showgrid="false"
     inkscape:zoom="1.2482925"
     inkscape:cx="283.50046"
     inkscape:cy="219.49983"
     inkscape:window-x="-8"
     inkscape:window-y="-8"
     inkscape:window-maximized="1"
     inkscape:current-layer="g20" /><g
     id="g18"
     inkscape:groupmode="layer"
     inkscape:label="Graph2"
     transform="matrix(1.3333333,0,0,1.3333333,0,6.3083252e-6)"><g
       id="g20"><g
         id="g22"><path
           d="m 45,35.176 0.461,1.133 0.465,1.656 0.461,2.168 0.465,2.668 0.461,3.148 0.464,3.61 0.461,4.05 0.465,4.473 0.461,4.871 0.465,5.246 0.461,5.594 0.465,5.918 0.461,6.211 0.464,6.476 0.461,6.719 0.461,6.922 0.465,7.106 0.461,7.253 0.465,7.375 0.461,7.457 0.465,7.52 0.461,7.547 0.465,7.543 0.46,7.508 0.465,7.453 0.461,7.359 0.465,7.242 0.461,7.098 0.465,6.93 0.461,6.73 0.465,6.512 0.461,6.269 0.461,6.004 0.464,5.723 0.461,5.418 0.465,5.098 0.461,4.757 0.465,4.407 0.461,4.047 0.465,3.668 0.461,3.281 0.465,2.886 0.46,2.489 0.465,2.086 0.461,1.675 0.465,1.266 0.461,0.856 0.461,0.449 0.465,0.043 0.461,-0.356 0.465,-0.746 0.461,-1.133 0.464,-1.511 0.461,-1.875 0.465,-2.231 0.461,-2.566 0.465,-2.899 0.461,-3.203 0.465,-3.5 0.461,-3.777 0.464,-4.035 0.461,-4.278 0.461,-4.492 0.465,-4.695 0.461,-4.871 0.465,-5.031 0.461,-5.165 0.465,-5.277 0.461,-5.371 0.465,-5.437 0.46,-5.485 0.465,-5.508 0.461,-5.511 0.465,-5.493 0.461,-5.453 0.465,-5.39 0.461,-5.309 0.465,-5.207 0.461,-5.086 0.464,-4.949 0.461,-4.789 0.461,-4.617 0.465,-4.426 0.461,-4.223 0.465,-4.004 0.461,-3.769 0.465,-3.528 0.461,-3.273 0.465,-3.008 0.46,-2.734 0.465,-2.457 0.461,-2.168 0.465,-1.875 0.461,-1.582 0.461,-1.285 0.465,-0.985 0.461,-0.687 0.465,-0.387 0.461,-0.094 0.464,0.203 0.461,0.489 0.465,0.769 0.461,1.051 0.465,1.316 0.461,1.575 0.465,1.828 0.461,2.066 0.461,2.297 0.464,2.512 0.461,2.719 0.465,2.914 0.461,3.086 0.465,3.253 0.461,3.399 0.465,3.535 0.461,3.648 0.465,3.754 0.46,3.84 0.465,3.91 0.461,3.961 0.465,4 0.461,4.024 0.465,4.027 0.461,4.016 0.465,3.988 0.461,3.949 0.464,3.891 0.461,3.82 0.461,3.735 0.465,3.632 0.461,3.524 0.465,3.398 0.461,3.266 0.465,3.113 0.461,2.957 0.465,2.789 0.46,2.613 0.465,2.43 0.461,2.235 0.465,2.039 0.461,1.836 0.461,1.625 0.465,1.414 0.461,1.199 0.465,0.984 0.461,0.762 0.464,0.547 0.461,0.328 0.465,0.109 0.461,-0.101 0.465,-0.317 0.461,-0.519 0.465,-0.727 0.461,-0.922 0.461,-1.113 0.464,-1.297 0.461,-1.476 0.465,-1.645 0.461,-1.805 0.465,-1.957 0.461,-2.097 0.465,-2.231 0.461,-2.351 0.465,-2.461 0.46,-2.563 0.465,-2.652 0.461,-2.727 0.465,-2.793 0.461,-2.843 0.465,-2.891 0.461,-2.914 0.465,-2.938 0.461,-2.941 0.464,-2.934 0.461,-2.921 0.461,-2.887 0.465,-2.852 0.461,-2.804 0.465,-2.739 0.461,-2.672 0.465,-2.589 0.461,-2.504 0.465,-2.403 0.46,-2.297 0.465,-2.183 0.461,-2.063 0.465,-1.933 0.461,-1.805 0.461,-1.66 0.465,-1.52 0.461,-1.371 0.465,-1.218 0.461,-1.067 0.464,-0.906 0.461,-0.75 0.465,-0.59 0.461,-0.43 0.465,-0.273 0.461,-0.113 0.465,0.043 0.461,0.199 0.461,0.351 0.464,0.5 0.461,0.645 0.465,0.785 0.461,0.922 0.465,1.051 0.461,1.176 0.465,1.296 0.461,1.407 0.465,1.511 0.46,1.614 0.465,1.699 0.461,1.781 0.465,1.86 0.461,1.921 0.465,1.981 0.461,2.031 0.465,2.07 0.461,2.106 0.464,2.125 0.461,2.144 0.461,2.149 0.465,2.144 0.461,2.137 0.465,2.113 0.461,2.09 0.465,2.055 0.461,2.012 0.465,1.961 0.46,1.906 0.465,1.84 0.461,1.769 0.465,1.696 0.461,1.613 0.461,1.523 0.465,1.434 0.461,1.336 0.465,1.234 0.461,1.133 0.464,1.019 0.461,0.915 0.465,0.8 0.461,0.688 0.465,0.57 0.461,0.453 0.465,0.34 0.461,0.223 0.461,0.105 0.464,-0.008 0.461,-0.125 0.465,-0.234 0.461,-0.34 0.465,-0.453 0.461,-0.551 0.465,-0.652 0.461,-0.75 0.465,-0.84 0.46,-0.93 0.465,-1.011 0.461,-1.09 0.465,-1.16 0.461,-1.231 0.465,-1.289 0.461,-1.347 0.465,-1.395 0.461,-1.441 0.464,-1.477 0.461,-1.504 0.461,-1.535 0.465,-1.551 0.461,-1.562 0.465,-1.567 0.461,-1.57 0.465,-1.563 0.461,-1.546 0.465,-1.532 0.46,-1.504 0.465,-1.476 0.461,-1.442 0.465,-1.398 0.461,-1.355 0.461,-1.305 0.465,-1.25 0.461,-1.188 0.465,-1.129 0.461,-1.058 0.464,-0.992 0.461,-0.918 0.465,-0.84 0.461,-0.766 0.465,-0.683 0.461,-0.602 0.465,-0.516 0.461,-0.433 0.461,-0.352 0.464,-0.261 0.461,-0.18 0.465,-0.098 0.461,-0.008 0.465,0.071 0.461,0.156 0.465,0.234 0.461,0.313 0.465,0.39 0.46,0.461 0.465,0.536 0.461,0.597 0.465,0.668 0.461,0.727 0.465,0.785 0.461,0.836 0.465,0.887 0.461,0.937 0.464,0.973 0.461,1.015 0.461,1.043 0.465,1.075 0.461,1.093 0.465,1.117 0.461,1.129 0.465,1.141 0.461,1.148 0.465,1.145 0.46,1.141 0.465,1.132 0.461,1.122 0.465,1.105 0.461,1.082 0.461,1.059 0.465,1.027 0.461,0.996 0.465,0.961 0.461,0.922 0.464,0.879 0.461,0.832 0.465,0.785 0.461,0.734 0.465,0.68 0.461,0.625 0.465,0.57 0.461,0.512 0.461,0.449 0.464,0.391 0.461,0.332 0.465,0.269 0.461,0.204 0.465,0.144 0.461,0.082 0.465,0.02 0.461,-0.043 0.465,-0.102 0.46,-0.156 0.465,-0.219 0.461,-0.273 0.465,-0.328 0.461,-0.379 0.465,-0.426 0.461,-0.477 0.465,-0.523 0.461,-0.567 0.464,-0.601 0.461,-0.645 0.461,-0.675 0.465,-0.704 0.461,-0.734 0.465,-0.762 0.461,-0.777 0.465,-0.797 0.461,-0.816 0.465,-0.821 0.46,-0.832 0.465,-0.836 0.461,-0.839 0.465,-0.832 0.461,-0.832 0.461,-0.821 0.465,-0.808 0.461,-0.793 0.465,-0.778 0.461,-0.757 0.464,-0.731 0.461,-0.707 0.465,-0.68 0.461,-0.648 0.465,-0.613 0.461,-0.582 0.465,-0.543 0.461,-0.504 0.461,-0.465 0.464,-0.426 0.461,-0.383 0.465,-0.34 0.461,-0.293 0.465,-0.25 0.461,-0.203 0.465,-0.16 0.461,-0.113 0.465,-0.07 0.46,-0.024 0.465,0.02 0.461,0.066 0.465,0.109 0.461,0.149 0.465,0.191 0.461,0.231 0.465,0.269 0.461,0.305 0.464,0.344 0.461,0.375 0.461,0.406 0.465,0.434 0.461,0.464 0.465,0.489 0.461,0.511 0.465,0.532 0.461,0.55 0.465,0.567 0.46,0.582 0.465,0.59 0.461,0.601 0.465,0.606 0.461,0.609 0.461,0.613 0.465,0.61 0.461,0.605 0.465,0.602 0.461,0.594 0.464,0.582 0.461,0.57 0.465,0.555 0.461,0.539 0.465,0.519 0.461,0.5 0.465,0.481 0.461,0.453 0.461,0.43 0.464,0.402 0.461,0.375 0.465,0.348 0.461,0.312 0.465,0.289 0.461,0.25 0.465,0.223 0.461,0.191 0.465,0.156 0.46,0.121 0.465,0.09 0.461,0.059 0.465,0.023 0.461,-0.007 0.465,-0.043 0.461,-0.071 0.465,-0.105 0.461,-0.133 0.464,-0.164 0.461,-0.191 0.461,-0.219 0.465,-0.242 0.461,-0.27 0.465,-0.293 0.461,-0.312 0.465,-0.336 0.461,-0.352 0.465,-0.371 0.46,-0.387 0.465,-0.398 0.461,-0.41 0.465,-0.426 0.461,-0.43 0.461,-0.437 0.465,-0.442 0.461,-0.445 0.465,-0.445 0.461,-0.446 0.464,-0.445 0.461,-0.441 0.465,-0.434 0.461,-0.426 0.465,-0.418 0.461,-0.41 0.465,-0.394 0.461,-0.383 0.461,-0.367 0.464,-0.352 0.461,-0.336 0.465,-0.32 0.461,-0.297 0.465,-0.277 0.461,-0.258 0.465,-0.235 0.461,-0.214 0.465,-0.188 0.46,-0.168 0.465,-0.144 0.461,-0.118 0.465,-0.093 0.461,-0.071 0.465,-0.047 0.461,-0.023 h 0.465 l 0.461,0.027 0.464,0.047 0.461,0.071 0.461,0.093 0.465,0.117 0.461,0.133 0.465,0.157 0.461,0.175 0.465,0.192 0.461,0.211 0.465,0.226 0.46,0.238 0.465,0.258 0.461,0.266 0.465,0.281 0.461,0.289 0.461,0.301 0.465,0.309 0.461,0.312 0.465,0.317 0.461,0.324 0.464,0.324 0.461,0.324 0.465,0.328 0.461,0.325 0.465,0.32 0.461,0.32 0.465,0.313 0.461,0.304 0.461,0.301 0.464,0.293 0.461,0.281 0.465,0.27 0.461,0.262 0.465,0.246 0.461,0.234 0.465,0.223 0.461,0.203 0.465,0.191 0.46,0.176 0.465,0.16 0.461,0.141 0.465,0.125 0.461,0.109 0.465,0.09 0.461,0.074 0.465,0.055 0.461,0.035 0.464,0.024 h 0.461 l 0.461,-0.016 0.465,-0.031 0.461,-0.047 0.465,-0.067 0.461,-0.078 0.465,-0.097 0.461,-0.11 0.465,-0.125 0.46,-0.14 0.465,-0.149 0.461,-0.164 0.465,-0.176 0.461,-0.183 0.461,-0.192 0.465,-0.203 0.461,-0.211 0.465,-0.219 0.461,-0.222 0.464,-0.227 0.461,-0.234 0.465,-0.234 0.461,-0.235 0.465,-0.238 0.461,-0.238 0.465,-0.239 0.922,-0.468 0.464,-0.231 0.461,-0.223 0.465,-0.222 0.461,-0.211 0.465,-0.211 0.461,-0.199 0.465,-0.192 0.461,-0.183 0.465,-0.172 0.46,-0.164 0.465,-0.153 0.461,-0.14 0.465,-0.129 0.461,-0.121 0.465,-0.106 0.461,-0.093 0.465,-0.082 0.461,-0.067 0.464,-0.058 0.461,-0.043 0.461,-0.028 0.465,-0.019 0.461,-0.004 0.465,0.008 0.461,0.019 0.465,0.035 0.461,0.043 0.465,0.059 0.46,0.066 0.465,0.078 0.461,0.09 0.465,0.102 0.461,0.105 0.461,0.117 0.465,0.129 0.461,0.133 0.465,0.141 0.461,0.144 0.464,0.153 0.461,0.16 0.465,0.16 0.461,0.164 0.465,0.172 0.461,0.172 0.465,0.172 0.461,0.172 0.461,0.175 0.464,0.172 0.461,0.172 0.465,0.172 0.461,0.168 0.465,0.164 0.461,0.164 0.465,0.156 0.461,0.153 0.465,0.148 0.46,0.141 0.465,0.132 0.461,0.129 0.465,0.121 0.461,0.114 0.465,0.105 0.461,0.098 0.465,0.086 0.461,0.082 0.464,0.07 0.461,0.059 0.461,0.054 0.465,0.043 0.461,0.032 0.465,0.023 0.461,0.016 0.465,0.004 0.461,-0.004 0.465,-0.012 0.46,-0.023 0.465,-0.032 0.461,-0.039 0.465,-0.047 0.461,-0.058 0.461,-0.063 0.465,-0.07 0.461,-0.078 0.465,-0.086 0.461,-0.09 0.464,-0.094 0.461,-0.101 0.465,-0.11 0.461,-0.109 0.465,-0.113 0.461,-0.117 0.465,-0.122 0.922,-0.25 0.464,-0.125 0.461,-0.125 0.465,-0.128 0.461,-0.125 0.465,-0.129 0.461,-0.125 0.465,-0.121 0.461,-0.122 0.465,-0.121 0.46,-0.113 0.465,-0.113 0.461,-0.106 0.465,-0.105 0.461,-0.102 0.465,-0.093 0.461,-0.09 0.465,-0.082 0.461,-0.078 0.464,-0.071 0.461,-0.066 0.461,-0.059 0.465,-0.054 0.461,-0.047 0.465,-0.039 0.461,-0.032 0.465,-0.027 0.461,-0.02 0.465,-0.011 0.46,-0.004 h 0.465 l 0.461,0.012 0.465,0.011 0.461,0.024 0.461,0.027 0.465,0.035 0.461,0.039 0.465,0.043 0.461,0.051 0.464,0.059 0.461,0.058 0.465,0.067 0.461,0.07 0.465,0.07 0.461,0.078 0.465,0.082 0.461,0.082 0.461,0.086 0.464,0.086 0.461,0.09 0.465,0.09 0.461,0.094 0.465,0.094 0.461,0.089 0.465,0.094 0.461,0.094 0.465,0.09 0.46,0.09 0.465,0.089 0.461,0.086 0.465,0.086 0.461,0.082 0.465,0.078 0.461,0.079 0.465,0.074 0.461,0.07 0.464,0.066 0.461,0.063 0.461,0.055 0.465,0.054 0.461,0.051 0.465,0.043 0.461,0.039 0.465,0.035 0.461,0.032 0.465,0.023 0.46,0.02 0.465,0.015 0.461,0.008 0.465,0.004 H 393 l 0.461,-0.004 0.465,-0.008 0.461,-0.015 0.465,-0.02 0.461,-0.023 0.464,-0.028 0.461,-0.035 0.465,-0.035 0.461,-0.039 0.465,-0.043 0.461,-0.051 0.465,-0.047 0.922,-0.109 0.464,-0.059 0.461,-0.058 0.465,-0.063 0.461,-0.066 0.465,-0.063 0.461,-0.066 0.465,-0.067 0.461,-0.07 0.465,-0.066 0.46,-0.067 0.465,-0.07 0.461,-0.066 0.465,-0.067 0.461,-0.062 0.465,-0.067 0.461,-0.062 0.465,-0.059 0.461,-0.058 0.464,-0.059 0.461,-0.055 0.461,-0.05 0.465,-0.047 0.461,-0.047 0.465,-0.043 0.461,-0.039 0.465,-0.035 0.461,-0.036 0.465,-0.027 0.46,-0.027 0.465,-0.024 0.461,-0.019 0.465,-0.016 0.461,-0.012"
           style="fill:none;stroke:#0000ff;stroke-width:2.25;stroke-linecap:square;stroke-linejoin:miter;stroke-miterlimit:2;stroke-dasharray:none;stroke-opacity:1"
           id="path24" /></g><g
         id="g26"><path
           d="m 45,35.176 3.734,6.812 3.735,6.481 3.734,6.16 3.735,5.859 3.738,5.567 3.734,5.293 3.735,5.035 3.734,4.785 3.734,4.551 3.735,4.324 3.734,4.113 3.738,3.91 3.735,3.719 3.734,3.535 3.734,3.36 3.735,3.195 3.734,3.035 3.735,2.891 3.734,2.746 3.734,2.609 3.739,2.481 3.734,2.359 3.734,2.246 3.735,2.133 3.734,2.027 3.734,1.93 3.735,1.832 3.734,1.742 3.735,1.657 3.738,1.578 3.734,1.496 3.735,1.422 3.734,1.355 3.734,1.289 3.735,1.223 3.734,1.164 3.738,1.105 3.735,1.051 3.734,1 3.735,0.953 3.734,0.903 3.734,0.859 3.735,0.816 3.734,0.778 3.734,0.738 3.739,0.703 3.734,0.668 3.734,0.633 3.735,0.605 3.734,0.575 3.735,0.543 3.734,0.519 3.734,0.492 3.739,0.469 3.734,0.445 3.734,0.426 3.735,0.402 3.734,0.383 3.734,0.364 3.735,0.347 3.734,0.328 3.735,0.313 3.738,0.297 3.734,0.285 3.735,0.269 3.734,0.254 3.734,0.242 3.735,0.235 3.734,0.219 3.738,0.207 3.735,0.199 3.734,0.187 3.735,0.18 3.734,0.172 3.734,0.164 3.735,0.152 3.734,0.149 3.734,0.14 3.739,0.129 3.734,0.129 3.734,0.117 3.735,0.114 3.734,0.109 3.735,0.106 3.734,0.097 3.734,0.094 3.735,0.086 3.738,0.086 7.469,0.156 7.468,0.141 3.735,0.066 3.734,0.063 3.739,0.058 7.468,0.11 3.735,0.05 3.734,0.047"
           style="fill:none;stroke:#ff0000;stroke-width:2.25;stroke-linecap:square;stroke-linejoin:miter;stroke-miterlimit:2;stroke-dasharray:9, 4.5;stroke-dashoffset:0;stroke-opacity:1"
           id="path28" /></g><g
         id="g30"><path
           d="M 45,173.25 H 414"
           style="fill:none;stroke:#000000;stroke-width:2.25;stroke-linecap:square;stroke-linejoin:bevel;stroke-miterlimit:4;stroke-dasharray:none;stroke-opacity:1"
           id="path32" /></g><text
         transform="rotate(-90,116.25,85.5)"
         style="font-variant:normal;font-weight:normal;font-size:25.4759px;font-family:Verdana;-inkscape-font-specification:Verdana;writing-mode:lr-tb;fill:#000000;fill-opacity:1;fill-rule:nonzero;stroke:none"
         id="text36"><tspan
           x="0"
           y="0"
           id="tspan34">c</tspan></text><text
         transform="rotate(-90,111.75,78)"
         style="font-variant:normal;font-weight:normal;font-size:16px;font-family:Verdana;-inkscape-font-specification:Verdana;writing-mode:lr-tb;fill:#000000;fill-opacity:1;fill-rule:nonzero;stroke:none"
         id="text40"><tspan
           x="0"
           y="0"
           id="tspan38">n</tspan></text><text
         transform="rotate(-90,105.75,75)"
         style="font-variant:normal;font-weight:normal;font-size:25.4759px;font-family:Verdana;-inkscape-font-specification:Verdana;writing-mode:lr-tb;fill:#000000;fill-opacity:1;fill-rule:nonzero;stroke:none"
         id="text44"><tspan
           x="0 11.56607 21.603584 33.169655 44.735722"
           y="0"
           sodipodi:role="line"
           id="tspan42">(t)/c</tspan></text><text
         transform="rotate(-90,78,44.25)"
         style="font-variant:normal;font-weight:normal;font-size:16px;font-family:Verdana;-inkscape-font-specification:Verdana;writing-mode:lr-tb;fill:#000000;fill-opacity:1;fill-rule:nonzero;stroke:none"
         id="text48"><tspan
           x="0"
           y="0"
           id="tspan46">n</tspan></text><text
         transform="rotate(-90,72.75,42)"
         style="font-variant:normal;font-weight:normal;font-size:25.4759px;font-family:Verdana;-inkscape-font-specification:Verdana;writing-mode:lr-tb;fill:#000000;fill-opacity:1;fill-rule:nonzero;stroke:none"
         id="text52"><tspan
           x="0 11.56607 27.74328"
           y="0"
           sodipodi:role="line"
           id="tspan50">(0)</tspan></text><g
         id="g54"><path
           d="M 45,7.5 V 284.25"
           style="fill:none;stroke:#000000;stroke-width:2.25;stroke-linecap:square;stroke-linejoin:bevel;stroke-miterlimit:4;stroke-dasharray:none;stroke-opacity:1"
           id="path56" /></g><g
         id="g58"><path
           d="M 414.75,7.5 V 284.25"
           style="fill:none;stroke:#000000;stroke-width:2.25;stroke-linecap:square;stroke-linejoin:bevel;stroke-miterlimit:4;stroke-dasharray:none;stroke-opacity:1"
           id="path60" /></g><text
         transform="translate(192.375,319.5)"
         style="font-variant:normal;font-weight:normal;font-size:25.4759px;font-family:Verdana;-inkscape-font-specification:Verdana;writing-mode:lr-tb;fill:#000000;fill-opacity:1;fill-rule:nonzero;stroke:none"
         id="text64"><tspan
           x="0 12.967245 28.12542 52.88802 68.759521"
           y="0"
           sodipodi:role="line"
           id="tspan62">Tempo</tspan></text><g
         id="g66"><path
           d="M 45,284.25 H 414.75"
           style="fill:none;stroke:#000000;stroke-width:2.25;stroke-linecap:square;stroke-linejoin:bevel;stroke-miterlimit:4;stroke-dasharray:none;stroke-opacity:1"
           id="path68" /></g><g
         id="g70"><path
           d="M 45,7.5 H 414.75"
           style="fill:none;stroke:#000000;stroke-width:2.25;stroke-linecap:square;stroke-linejoin:bevel;stroke-miterlimit:4;stroke-dasharray:none;stroke-opacity:1"
           id="path72" /></g></g></g></svg>
