<?xml version="1.0" encoding="UTF-8" standalone="no"?>
<svg width="150.019mm" height="116.152mm"
 xmlns="http://www.w3.org/2000/svg" xmlns:xlink="http://www.w3.org/1999/xlink"  version="1.2" baseProfile="tiny">
<title>Qt Svg Document</title>
<desc>Generated with Qt</desc>
<defs>
</defs>
<g fill="none" stroke="black" stroke-width="1" fill-rule="evenodd" stroke-linecap="square" stroke-linejoin="bevel" >

<g fill="#ffffff" fill-opacity="0" stroke="none" transform="matrix(1,0,0,1,0,0)"
font-family="MS Shell Dlg 2" font-size="10.6667" font-weight="400" font-style="normal" 
>
<path vector-effect="non-scaling-stroke" fill-rule="evenodd" d="M7,7 L557,7 L557,433 L7,433 L7,7"/>
</g>

<g fill="none" stroke="none" transform="matrix(1,0,0,1,0,0)"
font-family="MS Shell Dlg 2" font-size="10.6667" font-weight="400" font-style="normal" 
>
<path vector-effect="non-scaling-stroke" fill-rule="evenodd" d="M7,7 L557,7 L557,433 L7,433 L7,7"/>
</g>

<g fill="none" stroke="#000000" stroke-opacity="1" stroke-width="1" stroke-linecap="square" stroke-linejoin="bevel" transform="matrix(1,0,0,1,0,0)"
font-family="MS Shell Dlg 2" font-size="10.6667" font-weight="400" font-style="normal" 
>
</g>

<g fill="#ffffff" fill-opacity="0" stroke="none" transform="matrix(1,0,0,1,0,0)"
font-family="MS Shell Dlg 2" font-size="10.6667" font-weight="400" font-style="normal" 
>
<path vector-effect="non-scaling-stroke" fill-rule="evenodd" d="M60,10 L553,10 L553,379 L60,379 L60,10"/>
</g>

<g fill="none" stroke="#000000" stroke-opacity="1" stroke-width="1" stroke-linecap="square" stroke-linejoin="bevel" transform="matrix(1,0,0,1,0,0)"
font-family="MS Shell Dlg 2" font-size="10.6667" font-weight="400" font-style="normal" 
>
</g>

<g fill="none" stroke="#000000" stroke-opacity="1" stroke-width="1" stroke-linecap="square" stroke-linejoin="bevel" transform="matrix(1,0,0,1,0,0)"
font-family="MS Shell Dlg 2" font-size="10.6667" font-weight="400" font-style="normal" 
>
</g>

<g fill="none" stroke="#000000" stroke-opacity="1" stroke-width="1" stroke-linecap="square" stroke-linejoin="bevel" transform="matrix(1,0,0,1,0,0)"
font-family="MS Shell Dlg 2" font-size="10.6667" font-weight="400" font-style="normal" 
>
</g>

<g fill="none" stroke="#000000" stroke-opacity="1" stroke-width="1" stroke-linecap="square" stroke-linejoin="bevel" transform="matrix(1,0,0,1,0,0)"
font-family="MS Shell Dlg 2" font-size="10.6667" font-weight="400" font-style="normal" 
>
</g>

<g fill="none" stroke="#0000ff" stroke-opacity="1" stroke-width="3" stroke-linecap="square" stroke-linejoin="miter" stroke-miterlimit="2" transform="matrix(1,0,0,1,0,0)"
font-family="MS Shell Dlg 2" font-size="10.6667" font-weight="400" font-style="normal" 
>
<polyline fill="none" vector-effect="non-scaling-stroke" points="60,46.9 60.617,48.4098 61.234,50.6199 61.8511,53.5129 62.4681,57.0688 63.0851,61.2654 63.7021,66.0784 64.3191,71.4811 64.9362,77.445 65.5532,83.9396 66.1702,90.9328 66.7872,98.391 67.4043,106.279 68.0213,114.561 68.6383,123.198 69.2553,132.154 69.8723,141.388 70.4894,150.861 71.1064,160.532 71.7234,170.362 72.3404,180.309 72.9574,190.333 73.5745,200.394 74.1915,210.452 74.8085,220.466 75.4255,230.4 76.0426,240.213 76.6596,249.87 77.2766,259.334 77.8936,268.571 78.5106,277.547 79.1277,286.23 79.7447,294.589 80.3617,302.596 80.9787,310.224 81.5957,317.447 82.2128,324.243 82.8298,330.589 83.4468,336.466 84.0638,341.857 84.6809,346.748 85.2979,351.124 85.9149,354.975 86.5319,358.293 87.1489,361.071 87.766,363.305 88.383,364.993 89,366.135 89.617,366.734 90.234,366.793 90.8511,366.319 91.4681,365.322 92.0851,363.81 92.7021,361.797 93.3191,359.297 93.9362,356.325 94.5532,352.899 95.1702,349.039 95.7872,344.764 96.4043,340.097 97.0213,335.061 97.6383,329.68 98.2553,323.98 98.8723,317.987 99.4894,311.729 100.106,305.233 100.723,298.527 101.34,291.641 101.957,284.604 102.574,277.445 103.191,270.195 103.809,262.882 104.426,255.537 105.043,248.188 105.66,240.864 106.277,233.595 106.894,226.407 107.511,219.328 108.128,212.385 108.745,205.603 109.362,199.006 109.979,192.619 110.596,186.464 111.213,180.561 111.83,174.932 112.447,169.595 113.064,164.567 113.681,159.864 114.298,155.501 114.915,151.49 115.532,147.844 116.149,144.57 116.766,141.679 117.383,139.176 118,137.067 118.617,135.354 119.234,134.041 119.851,133.126 120.468,132.608 121.085,132.486 121.702,132.753 122.319,133.405 122.936,134.434 123.553,135.831 124.17,137.586 124.787,139.687 125.404,142.123 126.021,144.88 126.638,147.942 127.255,151.294 127.872,154.919 128.489,158.8 129.106,162.918 129.723,167.253 130.34,171.786 130.957,176.498 131.574,181.366 132.191,186.371 132.809,191.49 133.426,196.703 134.043,201.986 134.66,207.32 135.277,212.682 135.894,218.051 136.511,223.406 137.128,228.725 137.745,233.989 138.362,239.177 138.979,244.27 139.596,249.249 140.213,254.096 140.83,258.793 141.447,263.325 142.064,267.675 142.681,271.828 143.298,275.77 143.915,279.489 144.532,282.973 145.149,286.211 145.766,289.194 146.383,291.912 147,294.359 147.617,296.527 148.234,298.413 148.851,300.012 149.468,301.322 150.085,302.341 150.702,303.068 151.319,303.504 151.936,303.652 152.553,303.514 153.17,303.095 153.787,302.399 154.404,301.432 155.021,300.203 155.638,298.718 156.255,296.988 156.872,295.021 157.489,292.829 158.106,290.422 158.723,287.814 159.34,285.016 159.957,282.043 160.574,278.907 161.191,275.624 161.809,272.208 162.426,268.674 163.043,265.037 163.66,261.314 164.277,257.519 164.894,253.669 165.511,249.78 166.128,245.866 166.745,241.944 167.362,238.03 167.979,234.138 168.596,230.284 169.213,226.483 169.83,222.747 170.447,219.093 171.064,215.532 171.681,212.078 172.298,208.742 172.915,205.537 173.532,202.474 174.149,199.562 174.766,196.812 175.383,194.232 176,191.83 176.617,189.613 177.234,187.588 177.851,185.761 178.468,184.135 179.085,182.716 179.702,181.505 180.319,180.505 180.936,179.718 181.553,179.144 182.17,178.782 182.787,178.632 183.404,178.69 184.021,178.955 184.638,179.423 185.255,180.089 185.872,180.949 186.489,181.996 187.106,183.224 187.723,184.626 188.34,186.195 188.957,187.922 189.574,189.798 190.191,191.814 190.809,193.961 191.426,196.228 192.043,198.605 192.66,201.081 193.277,203.646 193.894,206.287 194.511,208.995 195.128,211.757 195.745,214.562 196.362,217.398 196.979,220.254 197.596,223.118 198.213,225.979 198.83,228.826 199.447,231.647 200.064,234.433 200.681,237.171 201.298,239.854 201.915,242.469 202.532,245.009 203.149,247.463 203.766,249.824 204.383,252.083 205,254.233 205.617,256.266 206.234,258.176 206.851,259.957 207.468,261.604 208.085,263.112 208.702,264.476 209.319,265.694 209.936,266.761 210.553,267.677 211.17,268.438 211.787,269.044 212.404,269.495 213.021,269.791 213.638,269.932 214.255,269.92 214.872,269.757 215.489,269.445 216.106,268.988 216.723,268.388 217.34,267.651 217.957,266.78 218.574,265.781 219.191,264.66 219.809,263.421 220.426,262.073 221.043,260.62 221.66,259.071 222.277,257.432 222.894,255.712 223.511,253.917 224.128,252.056 224.745,250.137 225.362,248.169 225.979,246.159 226.596,244.116 227.213,242.048 227.83,239.965 228.447,237.873 229.064,235.782 229.681,233.7 230.298,231.635 230.915,229.595 231.532,227.587 232.149,225.619 232.766,223.698 233.383,221.831 234,220.026 234.617,218.287 235.234,216.621 235.851,215.035 236.468,213.532 237.085,212.118 237.702,210.798 238.319,209.574 238.936,208.452 239.553,207.434 240.17,206.523 240.787,205.721 241.404,205.03 242.021,204.451 242.638,203.985 243.255,203.633 243.872,203.394 244.489,203.268 245.106,203.254 245.723,203.351 246.34,203.557 246.957,203.87 247.574,204.287 248.191,204.805 248.809,205.422 249.426,206.133 250.043,206.934 250.66,207.822 251.277,208.791 251.894,209.837 252.511,210.954 253.128,212.138 253.745,213.383 254.362,214.684 254.979,216.034 255.596,217.427 256.213,218.858 256.83,220.32 257.447,221.808 258.064,223.315 258.681,224.835 259.298,226.362 259.915,227.89 260.532,229.412 261.149,230.924 261.766,232.418 262.383,233.89 263,235.334 263.617,236.744 264.234,238.116 264.851,239.444 265.468,240.725 266.085,241.952 266.702,243.123 267.319,244.234 267.936,245.28 268.553,246.258 269.17,247.166 269.787,248.001 270.404,248.76 271.021,249.442 271.638,250.044 272.255,250.565 272.872,251.005 273.489,251.362 274.106,251.636 274.723,251.827 275.34,251.936 275.957,251.962 276.574,251.908 277.191,251.773 277.809,251.561 278.426,251.271 279.043,250.907 279.66,250.471 280.277,249.966 280.894,249.394 281.511,248.758 282.128,248.062 282.745,247.309 283.362,246.503 283.979,245.648 284.596,244.747 285.213,243.805 285.83,242.826 286.447,241.815 287.064,240.775 287.681,239.711 288.298,238.627 288.915,237.529 289.532,236.42 290.149,235.306 290.766,234.19 291.383,233.077 292,231.971 292.617,230.876 293.234,229.798 293.851,228.739 294.468,227.703 295.085,226.695 295.702,225.718 296.319,224.776 296.936,223.871 297.553,223.007 298.17,222.187 298.787,221.413 299.404,220.688 300.021,220.014 300.638,219.394 301.255,218.828 301.872,218.319 302.489,217.867 303.106,217.474 303.723,217.141 304.34,216.868 304.957,216.655 305.574,216.503 306.191,216.412 306.809,216.38 307.426,216.408 308.043,216.495 308.66,216.639 309.277,216.839 309.894,217.094 310.511,217.401 311.128,217.761 311.745,218.169 312.362,218.624 312.979,219.124 313.596,219.665 314.213,220.246 314.83,220.864 315.447,221.515 316.064,222.198 316.681,222.907 317.298,223.642 317.915,224.397 318.532,225.171 319.149,225.96 319.766,226.76 320.383,227.568 321,228.382 321.617,229.197 322.234,230.011 322.851,230.82 323.468,231.621 324.085,232.412 324.702,233.189 325.319,233.948 325.936,234.689 326.553,235.407 327.17,236.101 327.787,236.768 328.404,237.405 329.021,238.011 329.638,238.583 330.255,239.12 330.872,239.619 331.489,240.081 332.106,240.502 332.723,240.883 333.34,241.221 333.957,241.517 334.574,241.769 335.191,241.977 335.809,242.142 336.426,242.262 337.043,242.337 337.66,242.369 338.277,242.358 338.894,242.303 339.511,242.206 340.128,242.069 340.745,241.89 341.362,241.673 341.979,241.418 342.596,241.127 343.213,240.802 343.83,240.443 344.447,240.054 345.064,239.635 345.681,239.189 346.298,238.718 346.915,238.224 347.532,237.71 348.149,237.177 348.766,236.628 349.383,236.065 350,235.491 350.617,234.908 351.234,234.319 351.851,233.725 352.468,233.13 353.085,232.535 353.702,231.943 354.319,231.356 354.936,230.777 355.553,230.208 356.17,229.65 356.787,229.106 357.404,228.578 358.021,228.067 358.638,227.576 359.255,227.107 359.872,226.659 360.489,226.236 361.106,225.839 361.723,225.468 362.34,225.126 362.957,224.812 363.574,224.528 364.191,224.274 364.809,224.052 365.426,223.861 366.043,223.702 366.66,223.576 367.277,223.482 367.894,223.42 368.511,223.39 369.128,223.392 369.745,223.426 370.362,223.49 370.979,223.585 371.596,223.709 372.213,223.862 372.83,224.043 373.447,224.25 374.064,224.483 374.681,224.74 375.298,225.02 375.915,225.322 376.532,225.643 377.149,225.984 377.766,226.341 378.383,226.714 379,227.101 379.617,227.499 380.234,227.909 380.851,228.326 381.468,228.751 382.085,229.181 382.702,229.614 383.319,230.049 383.936,230.483 384.553,230.916 385.17,231.345 385.787,231.77 386.404,232.187 387.021,232.596 387.638,232.996 388.255,233.384 388.872,233.76 389.489,234.121 390.106,234.468 390.723,234.798 391.34,235.11 391.957,235.405 392.574,235.679 393.191,235.934 393.809,236.167 394.426,236.379 395.043,236.569 395.66,236.736 396.277,236.88 396.894,237.001 397.511,237.098 398.128,237.171 398.745,237.221 399.362,237.248 399.979,237.251 400.596,237.231 401.213,237.189 401.83,237.124 402.447,237.038 403.064,236.93 403.681,236.802 404.298,236.655 404.915,236.488 405.532,236.304 406.149,236.103 406.766,235.886 407.383,235.653 408,235.407 408.617,235.149 409.234,234.879 409.851,234.598 410.468,234.309 411.085,234.011 411.702,233.707 412.319,233.398 412.936,233.085 413.553,232.769 414.17,232.451 414.787,232.134 415.404,231.817 416.021,231.503 416.638,231.192 417.255,230.886 417.872,230.586 418.489,230.293 419.106,230.008 419.723,229.731 420.34,229.465 420.957,229.21 421.574,228.966 422.191,228.735 422.809,228.517 423.426,228.314 424.043,228.125 424.66,227.951 425.277,227.793 425.894,227.651 426.511,227.526 427.128,227.417 427.745,227.326 428.362,227.251 428.979,227.194 429.596,227.154 430.213,227.131 430.83,227.125 431.447,227.137 432.064,227.164 432.681,227.208 433.298,227.268 433.915,227.344 434.532,227.434 435.149,227.539 435.766,227.658 436.383,227.79 437,227.934 437.617,228.091 438.234,228.258 438.851,228.436 439.468,228.623 440.085,228.819 440.702,229.022 441.319,229.232 441.936,229.448 442.553,229.669 443.17,229.895 443.787,230.123 444.404,230.353 445.021,230.585 445.638,230.817 446.255,231.048 446.872,231.278 447.489,231.506 448.106,231.73 448.723,231.95 449.34,232.166 449.957,232.375 450.574,232.578 451.191,232.775 451.809,232.963 452.426,233.142 453.043,233.313 453.66,233.474 454.277,233.625 454.894,233.765 455.511,233.894 456.128,234.012 456.745,234.118 457.362,234.212 457.979,234.294 458.596,234.363 459.213,234.42 459.83,234.465 460.447,234.496 461.064,234.516 461.681,234.522 462.298,234.517 462.915,234.499 463.532,234.469 464.149,234.428 464.766,234.375 465.383,234.311 466,234.236 466.617,234.152 467.234,234.057 467.851,233.953 468.468,233.841 469.085,233.72 469.702,233.592 470.319,233.457 470.936,233.315 471.553,233.167 472.17,233.015 472.787,232.858 473.404,232.697 474.021,232.533 474.638,232.367 475.255,232.199 475.872,232.03 476.489,231.86 477.106,231.691 477.723,231.523 478.34,231.356 478.957,231.192 479.574,231.03 480.191,230.872 480.809,230.718 481.426,230.569 482.043,230.425 482.66,230.286 483.277,230.153 483.894,230.027 484.511,229.908 485.128,229.797 485.745,229.693 486.362,229.597 486.979,229.509 487.596,229.43 488.213,229.359 488.83,229.298 489.447,229.245 490.064,229.202 490.681,229.167 491.298,229.142 491.915,229.126 492.532,229.12 493.149,229.122 493.766,229.133 494.383,229.153 495,229.182 495.617,229.219 496.234,229.264 496.851,229.317 497.468,229.377 498.085,229.445 498.702,229.519 499.319,229.6 499.936,229.687 500.553,229.78 501.17,229.877 501.787,229.98 502.404,230.087 503.021,230.198 503.638,230.312 504.255,230.429 504.872,230.548 505.489,230.669 506.106,230.792 506.723,230.915 507.34,231.039 507.957,231.162 508.574,231.286 509.191,231.407 509.809,231.528 510.426,231.646 511.043,231.762 511.66,231.875 512.277,231.985 512.894,232.091 513.511,232.194 514.128,232.291 514.745,232.384 515.362,232.472 515.979,232.555 516.596,232.632 517.213,232.703 517.83,232.769 518.447,232.828 519.064,232.881 519.681,232.927 520.298,232.967 520.915,233 521.532,233.026 522.149,233.046 522.766,233.059 523.383,233.065 524,233.065 524.617,233.058 525.234,233.045 525.851,233.025 526.468,232.999 527.085,232.967 527.702,232.93 528.319,232.887 528.936,232.839 529.553,232.785 530.17,232.727 530.787,232.664 531.404,232.598 532.021,232.527 532.638,232.453 533.255,232.375 533.872,232.295 534.489,232.212 535.106,232.127 535.723,232.04 536.34,231.952 536.957,231.863 537.574,231.773 538.191,231.682 538.809,231.592 539.426,231.502 540.043,231.413 540.66,231.324 541.277,231.237 541.894,231.152 542.511,231.069 543.128,230.989 543.745,230.91 544.362,230.835 544.979,230.763 545.596,230.695 546.213,230.63 546.83,230.568 547.447,230.511 548.064,230.458 548.681,230.41 549.298,230.365 549.915,230.326 550.532,230.291 551.149,230.261 551.766,230.236 552.383,230.216 553,230.2 " />
</g>

<g fill="none" stroke="#000000" stroke-opacity="1" stroke-width="1" stroke-linecap="square" stroke-linejoin="bevel" transform="matrix(1,0,0,1,0,0)"
font-family="MS Shell Dlg 2" font-size="10.6667" font-weight="400" font-style="normal" 
>
</g>

<g fill="none" stroke="#000000" stroke-opacity="1" stroke-width="1" stroke-linecap="square" stroke-linejoin="bevel" transform="matrix(1,0,0,1,0,0)"
font-family="MS Shell Dlg 2" font-size="10.6667" font-weight="400" font-style="normal" 
>
</g>

<g fill="none" stroke="#000000" stroke-opacity="1" stroke-width="1" stroke-linecap="square" stroke-linejoin="bevel" transform="matrix(1,0,0,1,0,0)"
font-family="MS Shell Dlg 2" font-size="10.6667" font-weight="400" font-style="normal" 
>
</g>

<g fill="none" stroke="#ff0000" stroke-opacity="1" stroke-dasharray="12,6" stroke-dashoffset="0" stroke-width="3" stroke-linecap="square" stroke-linejoin="miter" stroke-miterlimit="2" transform="matrix(1,0,0,1,0,0)"
font-family="MS Shell Dlg 2" font-size="10.6667" font-weight="400" font-style="normal" 
>
<polyline fill="none" vector-effect="non-scaling-stroke" points="60,46.9 64.9798,55.9868 69.9596,64.626 74.9394,72.8398 79.9192,80.649 84.899,88.0736 89.8788,95.1326 94.8586,101.844 99.8384,108.225 104.818,114.291 109.798,120.059 114.778,125.542 119.758,130.756 124.737,135.713 129.717,140.426 134.697,144.906 139.677,149.166 144.657,153.216 149.636,157.067 154.616,160.728 159.596,164.208 164.576,167.518 169.556,170.664 174.535,173.655 179.515,176.499 184.495,179.203 189.475,181.774 194.455,184.218 199.434,186.542 204.414,188.751 209.394,190.852 214.374,192.849 219.354,194.747 224.333,196.552 229.313,198.269 234.293,199.9 239.273,201.452 244.253,202.927 249.232,204.329 254.212,205.662 259.192,206.93 264.172,208.135 269.152,209.281 274.131,210.37 279.111,211.406 284.091,212.391 289.071,213.327 294.051,214.217 299.03,215.063 304.01,215.868 308.99,216.633 313.97,217.36 318.949,218.052 323.929,218.709 328.909,219.334 333.889,219.928 338.869,220.493 343.848,221.031 348.828,221.541 353.808,222.027 358.788,222.488 363.768,222.927 368.747,223.345 373.727,223.741 378.707,224.119 383.687,224.477 388.667,224.818 393.646,225.142 398.626,225.451 403.606,225.744 408.586,226.022 413.566,226.287 418.545,226.539 423.525,226.778 428.505,227.006 433.485,227.222 438.465,227.428 443.444,227.624 448.424,227.81 453.404,227.986 458.384,228.155 463.364,228.314 468.343,228.466 473.323,228.611 478.303,228.748 483.283,228.879 488.263,229.003 493.242,229.121 498.222,229.233 503.202,229.34 508.182,229.441 513.162,229.538 518.141,229.63 523.121,229.717 528.101,229.8 533.081,229.879 538.061,229.953 543.04,230.025 548.02,230.092 553,230.157 " />
</g>

<g fill="none" stroke="#000000" stroke-opacity="1" stroke-width="1" stroke-linecap="square" stroke-linejoin="bevel" transform="matrix(1,0,0,1,0,0)"
font-family="MS Shell Dlg 2" font-size="10.6667" font-weight="400" font-style="normal" 
>
</g>

<g fill="none" stroke="#000000" stroke-opacity="1" stroke-width="1" stroke-linecap="square" stroke-linejoin="bevel" transform="matrix(1,0,0,1,0,0)"
font-family="MS Shell Dlg 2" font-size="10.6667" font-weight="400" font-style="normal" 
>
</g>

<g fill="none" stroke="#000000" stroke-opacity="1" stroke-width="3" stroke-linecap="square" stroke-linejoin="bevel" transform="matrix(1,0,0,1,0,0)"
font-family="MS Shell Dlg 2" font-size="10.6667" font-weight="400" font-style="normal" 
>
<polyline fill="none" vector-effect="non-scaling-stroke" points="60,231 552,231 " />
</g>

<g fill="none" stroke="#000000" stroke-opacity="1" stroke-width="1" stroke-linecap="square" stroke-linejoin="bevel" transform="matrix(1,0,0,1,0,0)"
font-family="MS Shell Dlg 2" font-size="10.6667" font-weight="400" font-style="normal" 
>
</g>

<g fill="none" stroke="#000000" stroke-opacity="1" stroke-width="1" stroke-linecap="square" stroke-linejoin="bevel" transform="matrix(1,0,0,1,0,0)"
font-family="MS Shell Dlg 2" font-size="10.6667" font-weight="400" font-style="normal" 
>
</g>

<g fill="none" stroke="#000000" stroke-opacity="1" stroke-width="1" stroke-linecap="square" stroke-linejoin="bevel" transform="matrix(0,-1,1,0,7,378)"
font-family="MS Shell Dlg 2" font-size="11.1692" font-weight="400" font-style="normal" 
>
</g>

<g fill="none" stroke="#000000" stroke-opacity="1" stroke-width="1" stroke-linecap="square" stroke-linejoin="bevel" transform="matrix(0,-1,1,0,7,378)"
font-family="MS Shell Dlg 2" font-size="33.9679" font-weight="400" font-style="normal" 
>
</g>

<g fill="none" stroke="#000000" stroke-opacity="1" stroke-width="1" stroke-linecap="square" stroke-linejoin="bevel" transform="matrix(0,-1,1,0,7,378)"
font-family="MS Shell Dlg 2" font-size="33.9679" font-weight="400" font-style="normal" 
>
<text fill="#000000" fill-opacity="1" stroke="none" xml:space="preserve" x="109" y="34" font-family="MS Shell Dlg 2" font-size="33.9679" font-weight="400" font-style="normal" 
 >c</text>
<text fill="#000000" fill-opacity="1" stroke="none" xml:space="preserve" x="125" y="38" font-family="MS Shell Dlg 2" font-size="21.3333" font-weight="400" font-style="normal" 
 >n</text>
<text fill="#000000" fill-opacity="1" stroke="none" xml:space="preserve" x="137" y="34" font-family="MS Shell Dlg 2" font-size="33.9679" font-weight="400" font-style="normal" 
 >(t)/c</text>
<text fill="#000000" fill-opacity="1" stroke="none" xml:space="preserve" x="203" y="38" font-family="MS Shell Dlg 2" font-size="21.3333" font-weight="400" font-style="normal" 
 >n</text>
<text fill="#000000" fill-opacity="1" stroke="none" xml:space="preserve" x="215" y="34" font-family="MS Shell Dlg 2" font-size="33.9679" font-weight="400" font-style="normal" 
 >(0)</text>
</g>

<g fill="none" stroke="#000000" stroke-opacity="1" stroke-width="1" stroke-linecap="square" stroke-linejoin="bevel" transform="matrix(0,-1,1,0,7,378)"
font-family="MS Shell Dlg 2" font-size="33.9679" font-weight="400" font-style="normal" 
>
</g>

<g fill="none" stroke="#000000" stroke-opacity="1" stroke-width="1" stroke-linecap="square" stroke-linejoin="bevel" transform="matrix(0,-1,1,0,7,378)"
font-family="MS Shell Dlg 2" font-size="11.1692" font-weight="400" font-style="normal" 
>
</g>

<g fill="none" stroke="#000000" stroke-opacity="1" stroke-width="1" stroke-linecap="square" stroke-linejoin="bevel" transform="matrix(1,0,0,1,0,0)"
font-family="MS Shell Dlg 2" font-size="10.6667" font-weight="400" font-style="normal" 
>
</g>

<g fill="none" stroke="#000000" stroke-opacity="1" stroke-width="3" stroke-linecap="square" stroke-linejoin="bevel" transform="matrix(1,0,0,1,0,0)"
font-family="MS Shell Dlg 2" font-size="11.1692" font-weight="400" font-style="normal" 
>
<polyline fill="none" vector-effect="none" points="60,10 60,379 " />
</g>

<g fill="none" stroke="#000000" stroke-opacity="1" stroke-width="3" stroke-linecap="square" stroke-linejoin="bevel" transform="matrix(1,0,0,1,0,0)"
font-family="MS Shell Dlg 2" font-size="11.1692" font-weight="400" font-style="normal" 
>
</g>

<g fill="none" stroke="#000000" stroke-opacity="1" stroke-width="3" stroke-linecap="square" stroke-linejoin="bevel" transform="matrix(1,0,0,1,0,0)"
font-family="MS Shell Dlg 2" font-size="11.1692" font-weight="400" font-style="normal" 
>
</g>

<g fill="none" stroke="#000000" stroke-opacity="1" stroke-width="1" stroke-linecap="square" stroke-linejoin="bevel" transform="matrix(1,0,0,1,0,0)"
font-family="MS Shell Dlg 2" font-size="10.6667" font-weight="400" font-style="normal" 
>
</g>

<g fill="none" stroke="#000000" stroke-opacity="1" stroke-width="1" stroke-linecap="square" stroke-linejoin="bevel" transform="matrix(0,-1,1,0,565,378)"
font-family="MS Shell Dlg 2" font-size="11.1692" font-weight="400" font-style="normal" 
>
</g>

<g fill="none" stroke="#000000" stroke-opacity="1" stroke-width="1" stroke-linecap="square" stroke-linejoin="bevel" transform="matrix(0,-1,1,0,565,378)"
font-family="MS Shell Dlg 2" font-size="11.1692" font-weight="400" font-style="normal" 
>
</g>

<g fill="none" stroke="#000000" stroke-opacity="1" stroke-width="1" stroke-linecap="square" stroke-linejoin="bevel" transform="matrix(1,0,0,1,0,0)"
font-family="MS Shell Dlg 2" font-size="10.6667" font-weight="400" font-style="normal" 
>
</g>

<g fill="none" stroke="#000000" stroke-opacity="1" stroke-width="3" stroke-linecap="square" stroke-linejoin="bevel" transform="matrix(1,0,0,1,0,0)"
font-family="MS Shell Dlg 2" font-size="11.1692" font-weight="400" font-style="normal" 
>
<polyline fill="none" vector-effect="none" points="553,10 553,379 " />
</g>

<g fill="none" stroke="#000000" stroke-opacity="1" stroke-width="3" stroke-linecap="square" stroke-linejoin="bevel" transform="matrix(1,0,0,1,0,0)"
font-family="MS Shell Dlg 2" font-size="11.1692" font-weight="400" font-style="normal" 
>
</g>

<g fill="none" stroke="#000000" stroke-opacity="1" stroke-width="3" stroke-linecap="square" stroke-linejoin="bevel" transform="matrix(1,0,0,1,0,0)"
font-family="MS Shell Dlg 2" font-size="11.1692" font-weight="400" font-style="normal" 
>
</g>

<g fill="none" stroke="#000000" stroke-opacity="1" stroke-width="1" stroke-linecap="square" stroke-linejoin="bevel" transform="matrix(1,0,0,1,0,0)"
font-family="MS Shell Dlg 2" font-size="10.6667" font-weight="400" font-style="normal" 
>
</g>

<g fill="none" stroke="#000000" stroke-opacity="1" stroke-width="1" stroke-linecap="square" stroke-linejoin="bevel" transform="matrix(1,0,0,1,60,391)"
font-family="MS Shell Dlg 2" font-size="11.1692" font-weight="400" font-style="normal" 
>
</g>

<g fill="none" stroke="#000000" stroke-opacity="1" stroke-width="1" stroke-linecap="square" stroke-linejoin="bevel" transform="matrix(1,0,0,1,60,391)"
font-family="MS Shell Dlg 2" font-size="33.9679" font-weight="400" font-style="normal" 
>
<text fill="#000000" fill-opacity="1" stroke="none" xml:space="preserve" x="196.5" y="35" font-family="MS Shell Dlg 2" font-size="33.9679" font-weight="400" font-style="normal" 
 >Tempo</text>
</g>

<g fill="none" stroke="#000000" stroke-opacity="1" stroke-width="1" stroke-linecap="square" stroke-linejoin="bevel" transform="matrix(1,0,0,1,60,391)"
font-family="MS Shell Dlg 2" font-size="11.1692" font-weight="400" font-style="normal" 
>
</g>

<g fill="none" stroke="#000000" stroke-opacity="1" stroke-width="1" stroke-linecap="square" stroke-linejoin="bevel" transform="matrix(1,0,0,1,0,0)"
font-family="MS Shell Dlg 2" font-size="10.6667" font-weight="400" font-style="normal" 
>
</g>

<g fill="none" stroke="#000000" stroke-opacity="1" stroke-width="3" stroke-linecap="square" stroke-linejoin="bevel" transform="matrix(1,0,0,1,0,0)"
font-family="MS Shell Dlg 2" font-size="11.1692" font-weight="400" font-style="normal" 
>
<polyline fill="none" vector-effect="none" points="60,379 553,379 " />
</g>

<g fill="none" stroke="#000000" stroke-opacity="1" stroke-width="3" stroke-linecap="square" stroke-linejoin="bevel" transform="matrix(1,0,0,1,0,0)"
font-family="MS Shell Dlg 2" font-size="11.1692" font-weight="400" font-style="normal" 
>
</g>

<g fill="none" stroke="#000000" stroke-opacity="1" stroke-width="3" stroke-linecap="square" stroke-linejoin="bevel" transform="matrix(1,0,0,1,0,0)"
font-family="MS Shell Dlg 2" font-size="11.1692" font-weight="400" font-style="normal" 
>
</g>

<g fill="none" stroke="#000000" stroke-opacity="1" stroke-width="1" stroke-linecap="square" stroke-linejoin="bevel" transform="matrix(1,0,0,1,0,0)"
font-family="MS Shell Dlg 2" font-size="10.6667" font-weight="400" font-style="normal" 
>
</g>

<g fill="none" stroke="#000000" stroke-opacity="1" stroke-width="1" stroke-linecap="square" stroke-linejoin="bevel" transform="matrix(1,0,0,1,60,7)"
font-family="MS Shell Dlg 2" font-size="11.1692" font-weight="400" font-style="normal" 
>
</g>

<g fill="none" stroke="#000000" stroke-opacity="1" stroke-width="1" stroke-linecap="square" stroke-linejoin="bevel" transform="matrix(1,0,0,1,60,7)"
font-family="MS Shell Dlg 2" font-size="11.1692" font-weight="400" font-style="normal" 
>
</g>

<g fill="none" stroke="#000000" stroke-opacity="1" stroke-width="1" stroke-linecap="square" stroke-linejoin="bevel" transform="matrix(1,0,0,1,0,0)"
font-family="MS Shell Dlg 2" font-size="10.6667" font-weight="400" font-style="normal" 
>
</g>

<g fill="none" stroke="#000000" stroke-opacity="1" stroke-width="3" stroke-linecap="square" stroke-linejoin="bevel" transform="matrix(1,0,0,1,0,0)"
font-family="MS Shell Dlg 2" font-size="11.1692" font-weight="400" font-style="normal" 
>
<polyline fill="none" vector-effect="none" points="60,10 553,10 " />
</g>

<g fill="none" stroke="#000000" stroke-opacity="1" stroke-width="3" stroke-linecap="square" stroke-linejoin="bevel" transform="matrix(1,0,0,1,0,0)"
font-family="MS Shell Dlg 2" font-size="11.1692" font-weight="400" font-style="normal" 
>
</g>

<g fill="none" stroke="#000000" stroke-opacity="1" stroke-width="3" stroke-linecap="square" stroke-linejoin="bevel" transform="matrix(1,0,0,1,0,0)"
font-family="MS Shell Dlg 2" font-size="11.1692" font-weight="400" font-style="normal" 
>
</g>

<g fill="none" stroke="#000000" stroke-opacity="1" stroke-width="1" stroke-linecap="square" stroke-linejoin="bevel" transform="matrix(1,0,0,1,0,0)"
font-family="MS Shell Dlg 2" font-size="10.6667" font-weight="400" font-style="normal" 
>
</g>

<g fill="none" stroke="#000000" stroke-opacity="1" stroke-width="1" stroke-linecap="square" stroke-linejoin="bevel" transform="matrix(1,0,0,1,0,0)"
font-family="MS Shell Dlg 2" font-size="10.6667" font-weight="400" font-style="normal" 
>
</g>
</g>
</svg>
